<?xml version="1.0" encoding="UTF-8"?>
<svg xmlns="http://www.w3.org/2000/svg" version="1.1" viewBox="0 0 172.6 69.9">
  <!-- Generator: Adobe Illustrator 29.2.1, SVG Export Plug-In . SVG Version: 2.1.0 Build 116)  -->
  <defs>
    <style>
      .st0, .st1 {
        isolation: isolate;
      }

      .st1 {
        mix-blend-mode: multiply;
        opacity: .6;
      }

      .st1, .st2 {
        fill: #8e1642;
      }

      .st3 {
        fill: #eff4fa;
      }
    </style>
  </defs>
  <g class="st0">
    <g id="Layer_1">
      <g>
        <g>
          <path class="st3" d="M64.6,31.7v8h-2v-8h-3v-1.8h7.5v1.8h-2.8.3Z"/>
          <path class="st3" d="M71.1,35.9v3.8h-2v-9.5h5c.8,0,1.5,0,1.8.8.5.5.8,1.3.8,2,0,1.3-.5,2-1.5,2.3.5,0,1,.5,1,1v2.5c0,.3,0,.5.5.8h0c0,.3-2,.3-2,.3,0-.3-.3-1-.3-1.5v-1.3c0-.8-.5-1.3-1.3-1.3h-2.3l.3.3ZM71.1,34.2h3.3s.3-.5.3-1,0-.8-.3-1c0,0-.5-.3-1-.3h-2.3v2.5-.3Z"/>
          <path class="st3" d="M81.4,30.2v9.5h-2v-9.5h2Z"/>
          <path class="st3" d="M85.9,36.2v3.5h-2v-9.5h4.3c1,0,1.8.3,2.5.8.5.5.8,1.3.8,2s-.3,1.8-1,2.5c-.5.5-1.3.8-2,.8h-2.5ZM85.9,34.7h1.8c1,0,1.5-.5,1.5-1.5s-.5-1.5-1.5-1.5h-1.8v3Z"/>
          <path class="st3" d="M95.4,36.2v3.5h-2v-9.5h4.3c1,0,1.8.3,2.5.8.5.5.8,1.3.8,2s-.3,1.8-1,2.5c-.5.5-1.3.8-2,.8h-2.5ZM95.4,34.7h1.8c1,0,1.5-.5,1.5-1.5s-.5-1.5-1.5-1.5h-1.8v3Z"/>
          <path class="st3" d="M104.7,35.9v3.8h-2v-9.5h5c.8,0,1.5,0,1.8.8.5.5.8,1.3.8,2,0,1.3-.5,2-1.5,2.3.5,0,1,.5,1,1v2.5c0,.3,0,.5.5.8h0c0,.3-2,.3-2,.3,0-.3-.3-1-.3-1.5v-1.3c0-.8-.5-1.3-1.3-1.3h-2.3l.3.3ZM104.7,34.2h3.3s.3-.5.3-1,0-.8-.3-1c0,0-.5-.3-1-.3h-2.3v2.5-.3Z"/>
          <path class="st3" d="M117,29.9c1.3,0,2.5.5,3.3,1.3,1,1,1.3,2.3,1.3,3.5s-.5,2.8-1.3,3.5c-.8.8-2,1.3-3.3,1.3s-2.5-.5-3.3-1.3c-1-1-1.3-2.3-1.3-3.5s.5-2.8,1.3-3.5c.8-.8,2-1.3,3.3-1.3ZM117,31.7c-.8,0-1.5.3-2,1-.5.5-.8,1.3-.8,2.3s.3,1.8.8,2.5c.5.5,1,.8,1.8.8s1.5-.3,2-1c.5-.5.8-1.3.8-2.3s-.3-1.8-.8-2.5c-.5-.5-1-.8-1.8-.8Z"/>
          <path class="st3" d="M132,34.4v5.3h-1.3v-1.3c-1,1-2,1.5-3,1.5s-2.5-.5-3.3-1.5c-.8-1-1-2-1-3.3s.5-2.8,1.5-3.8c.8-.8,2-1.3,3.3-1.3s2.3.3,3,1c.8.5,1,1.3,1.3,2.3h-1.8c-.3-1-1.3-1.5-2.3-1.5s-1.5.3-2,1c-.5.5-.8,1.3-.8,2.3s.3,1.8.8,2.5c.5.5,1,.8,1.8.8s1.5-.3,2-.8c.3-.3.5-.8.5-1.3h-2.3v-1.8h3.8l-.3-.3Z"/>
          <path class="st3" d="M136.5,35.9v3.8h-2v-9.5h5c.8,0,1.5,0,1.8.8.5.5.8,1.3.8,2,0,1.3-.5,2-1.5,2.3.5,0,1,.5,1,1v2.5c0,.3,0,.5.5.8h0c0,.3-2,.3-2,.3,0-.3-.3-1-.3-1.5v-1.3c0-.8-.5-1.3-1.3-1.3h-2.3l.3.3ZM136.5,34.2h3.3s.3-.5.3-1,0-.8-.3-1c0,0-.5-.3-1-.3h-2.3v2.5-.3Z"/>
          <path class="st3" d="M146.7,35.7v2.5h5.3v1.8h-7v-9.5h7v1.8h-5v2.3h4.5v1.8h-4.5l-.3-.5Z"/>
          <path class="st3" d="M161,32.9h-1.8c0-1-.8-1.5-2-1.5s-1,0-1.3.3c-.3,0-.5.5-.5.8s0,.5.3.8c0,0,.8.3,1.5.5h1.5c1,.5,1.5.8,2,1.3s.5,1,.5,1.8-.5,1.8-1.3,2.3-1.5.8-2.8.8-2.3-.3-3-1c-.5-.5-1-1.3-1-2.3h2c0,1,.8,1.5,2.3,1.5s1,0,1.5-.3c.3,0,.5-.5.5-1s0-.8-.5-.8-.8-.3-1.5-.5h-1.3c-1-.5-1.8-.8-2-1s-.5-1-.5-1.8.3-1.8,1-2.3c.5-.5,1.5-.8,2.5-.8s2.3.3,3,1c.5.5.8,1.3.8,2.3Z"/>
          <path class="st3" d="M170.3,32.9h-1.8c0-1-.8-1.5-2-1.5s-1,0-1.3.3c-.3,0-.5.5-.5.8s0,.5.3.8c0,0,.8.3,1.5.5h1.5c1,.5,1.5.8,2,1.3s.5,1,.5,1.8-.5,1.8-1.3,2.3-1.5.8-2.8.8-2.3-.3-3-1c-.5-.5-1-1.3-1-2.3h2c0,1,.8,1.5,2.3,1.5s1,0,1.5-.3c.3,0,.5-.5.5-1s0-.8-.5-.8-.8-.3-1.5-.5h-1.3c-1-.5-1.8-.8-2-1s-.5-1-.5-1.8.3-1.8,1-2.3c.5-.5,1.5-.8,2.5-.8s2.3.3,3,1c.5.5.8,1.3.8,2.3Z"/>
        </g>
        <g>
          <g>
            <polygon class="st2" points="27.3 32.4 27.3 61.2 13.3 61.2 13.3 27.9 27.3 32.4"/>
            <polygon class="st2" points="2 55.5 2 31.7 13.3 27.9 13.3 51.7 2 55.5"/>
            <polygon class="st1" points="2 55.5 2 31.7 13.3 27.9 13.3 51.7 2 55.5"/>
          </g>
          <g>
            <polygon class="st2" points="13.3 13.9 13.3 27.2 29.8 21.7 29.8 8.6 13.3 13.9"/>
            <polygon class="st1" points="13.3 13.9 13.3 27.2 29.8 21.7 29.8 8.6 13.3 13.9"/>
            <polygon class="st2" points="46.6 14.1 46.6 61.2 29.8 61.2 29.8 8.6 29.8 8.6 46.6 14.1"/>
          </g>
        </g>
      </g>
    </g>
  </g>
</svg>