<svg width="40" height="40" viewBox="0 0 40 40" fill="none" xmlns="http://www.w3.org/2000/svg">
<g clip-path="url(#clip0_413_4519)">
<path d="M4.7003 -0.0102506C4.75416 -0.010411 4.80801 -0.0105714 4.8635 -0.0107366C5.04343 -0.0111773 5.22334 -0.011066 5.40327 -0.0109549C5.5338 -0.0111568 5.66432 -0.0113923 5.79485 -0.0116582C6.15314 -0.0122875 6.51144 -0.0124285 6.86974 -0.0124862C7.25633 -0.012631 7.64292 -0.0132207 8.02951 -0.0137467C8.8747 -0.0148071 9.71988 -0.0152785 10.5651 -0.0156226C11.093 -0.0158385 11.621 -0.0161696 12.1489 -0.0165213C13.6112 -0.0174738 15.0735 -0.0182784 16.5358 -0.0185428C16.6761 -0.0185686 16.6761 -0.0185686 16.8193 -0.0185948C16.9131 -0.0186119 17.0069 -0.0186289 17.1035 -0.0186465C17.2935 -0.0186811 17.4836 -0.018716 17.6736 -0.0187511C17.7678 -0.0187684 17.8621 -0.0187857 17.9592 -0.0188036C19.4862 -0.0191119 21.0131 -0.0204753 22.5401 -0.0222949C24.1085 -0.0241487 25.6769 -0.0251212 27.2454 -0.0252122C28.1257 -0.0252837 29.006 -0.0257314 29.8863 -0.0271512C30.636 -0.0283561 31.3857 -0.0287535 32.1354 -0.0281092C32.5177 -0.0278046 32.8999 -0.0278737 33.2822 -0.028973C33.6327 -0.0299719 33.9832 -0.0298716 34.3337 -0.0289269C34.4599 -0.0287746 34.5862 -0.0290116 34.7124 -0.029696C36.2668 -0.0375838 37.5784 0.263266 38.7501 1.32814C39.6059 2.19233 40.0343 3.31745 40.0314 4.52335C40.0135 5.27138 39.8264 5.98399 39.6488 6.70717C39.6118 6.86259 39.575 7.01804 39.5383 7.17352C39.4416 7.58135 39.3432 7.98872 39.2443 8.39602C39.1466 8.79994 39.0504 9.20421 38.9541 9.60848C38.8273 10.1406 38.7003 10.6727 38.5713 11.2043C38.5356 11.3532 38.5007 11.5023 38.4663 11.6516C38.3706 12.0654 38.2674 12.4748 38.1477 12.8822C37.4841 15.1612 37.4822 17.4182 37.5002 19.774C37.5044 20.3424 37.5041 20.9107 37.5036 21.4791C37.5028 22.4933 37.5048 23.5074 37.5089 24.5215C37.513 25.5017 37.5163 26.4819 37.5184 27.4621C37.5185 27.5228 37.5187 27.5835 37.5188 27.646C37.5202 28.3097 37.5211 28.9734 37.5215 29.637C37.5215 29.6954 37.5216 29.7538 37.5216 29.814C37.5217 30.0475 37.5218 30.281 37.5219 30.5144C37.522 31.1941 37.5234 31.8738 37.527 32.5536C37.5295 33.0289 37.5304 33.5043 37.5309 33.9797C37.5313 34.1738 37.5323 34.3679 37.5339 34.562C37.5463 36.1215 37.4064 37.4656 36.2794 38.6566C35.12 39.7283 33.8628 40.012 32.3164 40.011C32.2097 40.0112 32.103 40.0114 31.9963 40.0117C31.7039 40.0123 31.4116 40.0125 31.1192 40.0125C30.8035 40.0127 30.4879 40.0133 30.1722 40.0138C29.4823 40.0148 28.7924 40.0153 28.1025 40.0157C27.6714 40.0159 27.2403 40.0162 26.8092 40.0166C25.6147 40.0175 24.4202 40.0183 23.2257 40.0186C23.1493 40.0186 23.0729 40.0186 22.9942 40.0186C22.9176 40.0186 22.841 40.0187 22.7621 40.0187C22.6069 40.0187 22.4518 40.0187 22.2966 40.0188C22.1811 40.0188 22.1811 40.0188 22.0633 40.0188C20.8168 40.0191 19.5702 40.0205 18.3237 40.0223C17.0427 40.0242 15.7617 40.0252 14.4807 40.0252C13.7619 40.0253 13.0432 40.0258 12.3244 40.0272C11.7122 40.0284 11.1001 40.0288 10.4879 40.0281C10.1759 40.0278 9.8639 40.0279 9.5519 40.029C9.26557 40.03 8.97926 40.0299 8.69293 40.029C8.54177 40.0287 8.39061 40.0297 8.23945 40.0306C6.78871 40.0225 5.53394 39.6191 4.50233 38.5855C3.59811 37.5899 3.24803 36.4185 3.27061 35.0958C3.27131 35.0146 3.27202 34.9334 3.27274 34.8497C3.27524 34.5793 3.27887 34.309 3.28245 34.0386C3.28441 33.8438 3.28628 33.6489 3.28806 33.4541C3.29093 33.1427 3.29383 32.8313 3.29711 32.5198C3.30524 31.7423 3.3104 30.9648 3.31386 30.1872C3.31412 30.1306 3.31437 30.0739 3.31464 30.0155C3.31674 29.5487 3.31873 29.0818 3.32067 28.6149C3.32241 28.1947 3.32427 27.7744 3.32628 27.3542C3.32671 27.2644 3.32671 27.2644 3.32714 27.1727C3.33129 26.333 3.33905 25.4934 3.34955 24.6538C3.56776 17.4446 3.56776 17.4446 1.76034 10.5432C1.49544 9.93457 1.30134 9.30792 1.1122 8.6725C1.03219 8.40536 0.947429 8.13977 0.862959 7.87401C0.83269 7.77775 0.802421 7.68149 0.771235 7.58232C0.707275 7.38012 0.642799 7.17816 0.577524 6.97639C0.0329097 5.29026 -0.318489 3.95156 0.527418 2.28517C1.1732 1.17949 2.11898 0.519967 3.31978 0.146502C3.78133 0.0313703 4.22532 -0.00976656 4.7003 -0.0102506ZM2.34382 2.73439C1.91705 3.32598 1.68683 3.87099 1.71882 4.60939C1.7797 4.88248 1.7797 4.88248 1.87235 5.16294C1.88875 5.21555 1.90516 5.26815 1.92206 5.32235C1.97657 5.49652 2.03218 5.67031 2.08778 5.84413C2.12708 5.96903 2.16631 6.09395 2.20547 6.21889C2.30954 6.55028 2.41451 6.88139 2.5197 7.21242C3.28424 9.62119 4.02593 12.0366 4.7657 14.4531C15.0782 14.4531 25.3907 14.4531 36.0157 14.4531C37.8001 10.1411 37.8001 10.1411 37.851 3.00844C37.4174 2.40938 36.8197 1.97101 36.0938 1.79689C35.6637 1.7616 35.2342 1.76454 34.803 1.76608C34.6704 1.7657 34.5377 1.76521 34.4051 1.76464C34.0413 1.76336 33.6776 1.76354 33.3138 1.76396C32.9212 1.76417 32.5286 1.76304 32.136 1.76208C31.3671 1.76044 30.5981 1.76008 29.8292 1.76022C29.2041 1.76032 28.579 1.76003 27.9539 1.75944C27.7738 1.75928 27.5937 1.75912 27.4136 1.75895C27.324 1.75887 27.2344 1.75879 27.142 1.75871C25.4468 1.75723 23.7515 1.75731 22.0563 1.75784C20.506 1.75828 18.9557 1.75665 17.4055 1.75407C15.8132 1.75143 14.2209 1.75025 12.6286 1.75061C11.7348 1.75078 10.8411 1.75037 9.94734 1.74843C9.18637 1.74678 8.42542 1.74651 7.66445 1.74798C7.27635 1.7487 6.88828 1.74879 6.50019 1.74717C6.14452 1.74571 5.7889 1.74607 5.43323 1.74784C5.30495 1.74817 5.17667 1.74784 5.0484 1.74678C4.00719 1.73874 3.06014 1.90775 2.34382 2.73439ZM5.00007 16.3281C4.99685 19.4541 4.99363 22.5801 4.99031 25.8008C4.98889 26.7875 4.98746 27.7741 4.986 28.7907C4.98548 29.6759 4.98548 29.6759 4.98516 30.5611C4.98502 30.9551 4.98443 31.3491 4.98358 31.743C4.9825 32.2461 4.98219 32.7491 4.98241 33.2522C4.98236 33.4365 4.98205 33.6208 4.98145 33.8051C4.92783 35.7197 4.92783 35.7197 5.79017 37.3691C6.35955 37.9011 6.92833 38.212 7.71271 38.2138C7.80446 38.2142 7.89622 38.2146 7.99076 38.215C8.09165 38.2151 8.19254 38.2151 8.29649 38.2152C8.40469 38.2155 8.51289 38.2158 8.62109 38.2162C8.91875 38.2171 9.21642 38.2176 9.51409 38.2179C9.83502 38.2184 10.1559 38.2193 10.4769 38.2201C11.2522 38.2221 12.0274 38.2232 12.8027 38.2242C13.0217 38.2245 13.2408 38.2248 13.4598 38.2251C14.8202 38.2271 16.1806 38.2288 17.5411 38.2298C17.8562 38.23 18.1713 38.2303 18.4864 38.2305C18.6038 38.2306 18.6038 38.2306 18.7237 38.2307C19.9918 38.2317 21.26 38.2343 22.5281 38.2375C23.8305 38.2408 25.1328 38.2427 26.4352 38.2431C27.1663 38.2433 27.8973 38.2443 28.6284 38.2468C29.2511 38.249 29.8738 38.2499 30.4966 38.249C30.8141 38.2486 31.1316 38.2488 31.4491 38.2508C31.7403 38.2525 32.0315 38.2525 32.3227 38.251C32.4769 38.2507 32.631 38.2522 32.7852 38.2539C33.6376 38.2464 34.3925 38.0231 35.0196 37.4234C35.6289 36.7202 35.8056 36.0332 35.8001 35.1273C35.8002 35.047 35.8004 34.9666 35.8005 34.8838C35.8008 34.6143 35.7999 34.3448 35.7991 34.0754C35.799 33.879 35.799 33.6825 35.7991 33.4861C35.7992 33.0136 35.7985 32.5411 35.7975 32.0685C35.7964 31.5217 35.7962 30.9749 35.7961 30.4281C35.7953 28.9849 35.7931 27.5418 35.7911 26.0987C35.7879 22.8744 35.7846 19.6501 35.7813 16.3281C25.6235 16.3281 15.4657 16.3281 5.00007 16.3281Z" fill="white"/>
<path d="M17.6238 20.5447C18.4676 21.2642 18.9811 22.1002 19.1402 23.2031C19.2506 25.3502 19.1803 27.4938 17.7559 29.2258C17.1544 29.8741 16.3469 30.2857 15.4637 30.3345C14.3088 30.3713 13.3566 30.0955 12.4922 29.2963C11.0609 27.8004 10.9664 25.6657 11.0083 23.712C11.0502 22.5246 11.4847 21.5192 12.3534 20.7031C13.8086 19.4952 16.1016 19.3853 17.6238 20.5447ZM13.2027 22.3438C12.4641 23.5037 12.7004 25.1488 12.9393 26.4368C13.1057 27.1176 13.4509 27.8827 14.041 28.2983C14.5021 28.5736 14.9374 28.6651 15.4683 28.5938C16.1333 28.3768 16.566 27.9824 16.9084 27.3816C17.3542 26.4346 17.4399 25.36 17.4459 24.3262C17.4463 24.2633 17.4467 24.2005 17.4472 24.1357C17.4378 23.3622 17.29 22.7039 16.7467 22.1307C16.2526 21.68 15.7798 21.5203 15.1216 21.5332C15.0335 21.5345 15.0335 21.5345 14.9436 21.5358C14.2082 21.557 13.7007 21.7861 13.2027 22.3438Z" fill="white"/>
<path d="M25.8177 23.1829C25.9148 23.1825 25.9148 23.1825 26.0139 23.1821C26.2268 23.1814 26.4397 23.1818 26.6527 23.1824C26.8014 23.1823 26.95 23.1821 27.0987 23.1819C27.4099 23.1817 27.7211 23.182 28.0323 23.1828C28.4304 23.1836 28.8284 23.1831 29.2265 23.1822C29.5334 23.1816 29.8403 23.1818 30.1472 23.1822C30.2939 23.1823 30.4407 23.1822 30.5874 23.1818C30.7929 23.1814 30.9983 23.182 31.2038 23.1829C31.2639 23.1826 31.324 23.1823 31.386 23.1819C31.836 23.1854 32.2567 23.2194 32.6125 23.5205C32.7812 23.8377 32.8075 24.1012 32.7346 24.4531C32.5827 24.7318 32.4159 24.8979 32.1096 25C31.8846 25.0084 31.6615 25.0123 31.4365 25.0126C31.3334 25.0132 31.3334 25.0132 31.2282 25.0138C31.0005 25.0149 30.7729 25.0154 30.5452 25.0159C30.3871 25.0163 30.229 25.0168 30.0709 25.0172C29.7392 25.018 29.4075 25.0185 29.0759 25.0188C28.6509 25.0192 28.2259 25.0211 27.801 25.0233C27.4743 25.0247 27.1476 25.0252 26.821 25.0253C26.6643 25.0255 26.5076 25.0261 26.3509 25.0272C26.1318 25.0285 25.9126 25.0284 25.6934 25.0278C25.6287 25.0286 25.564 25.0293 25.4973 25.03C25.0563 25.0268 24.8026 24.9387 24.468 24.6387C24.322 24.3468 24.3244 24.0693 24.3752 23.75C24.5195 23.4892 24.6188 23.3886 24.8923 23.2724C25.2043 23.1906 25.4977 23.1812 25.8177 23.1829Z" fill="white"/>
<path d="M12.3677 30.21C12.5928 30.4037 12.6736 30.493 12.7339 30.7813C12.7189 31.2012 12.6347 31.4188 12.3433 31.7188C12.0866 31.8375 12.0866 31.8375 11.7915 31.9385C10.6769 32.3505 9.98554 33.0321 9.47706 34.0918C9.41377 34.2305 9.41377 34.2305 9.34919 34.372C9.21909 34.6079 9.14027 34.717 8.90577 34.8438C8.61431 34.9074 8.33141 34.8991 8.05555 34.7806C7.81006 34.6092 7.69761 34.4208 7.64113 34.1358C7.60276 33.2073 8.31949 32.3097 8.88899 31.6306C9.61619 30.8621 11.2764 29.6541 12.3677 30.21Z" fill="white"/>
<path d="M19.5312 30.5469C20.7073 31.1654 21.5848 32.1605 22.1094 33.3789C22.2005 33.7206 22.2496 34.0243 22.1875 34.375C22.0473 34.5992 21.9545 34.7259 21.7187 34.8437C21.5634 34.8596 21.5634 34.8596 21.3818 34.8633C21.3225 34.8653 21.2632 34.8673 21.2021 34.8694C20.9497 34.8347 20.8248 34.7697 20.625 34.6094C20.5031 34.4183 20.4138 34.2157 20.3222 34.0088C20.0896 33.517 19.8595 33.1058 19.4531 32.7344C19.403 32.6866 19.3528 32.6389 19.3011 32.5897C18.8784 32.2231 18.4427 32.059 17.9089 31.9012C17.5793 31.7651 17.3486 31.5721 17.1875 31.25C17.1506 30.8812 17.1302 30.6516 17.3681 30.3564C17.977 29.7759 18.8843 30.2246 19.5312 30.5469Z" fill="white"/>
<path d="M25.371 27.4093C25.5122 27.4082 25.5122 27.4082 25.6563 27.407C25.7585 27.4067 25.8607 27.4064 25.966 27.406C26.0717 27.4056 26.1774 27.4051 26.2831 27.4047C26.5049 27.4039 26.7266 27.4034 26.9484 27.4031C27.2322 27.4027 27.5158 27.4008 27.7996 27.3986C28.018 27.3971 28.2364 27.3967 28.4548 27.3966C28.6102 27.3963 28.7655 27.3948 28.9208 27.3933C29.0631 27.3937 29.0631 27.3937 29.2083 27.3941C29.3333 27.3936 29.3333 27.3936 29.4608 27.3932C29.7681 27.4321 29.9891 27.5417 30.1808 27.7881C30.262 28.0611 30.2885 28.315 30.2345 28.5938C30.098 28.8298 29.9351 29.0169 29.6876 29.1406C29.5381 29.149 29.3883 29.1523 29.2386 29.1532C29.1445 29.154 29.0503 29.1547 28.9534 29.1555C28.8 29.156 28.8 29.156 28.6436 29.1565C28.5379 29.157 28.4323 29.1574 28.3266 29.1579C28.1048 29.1587 27.883 29.1591 27.6612 29.1594C27.3775 29.1598 27.0938 29.1617 26.8101 29.1639C26.5916 29.1654 26.3732 29.1658 26.1548 29.1659C25.9995 29.1663 25.8442 29.1677 25.6889 29.1692C25.594 29.169 25.4991 29.1687 25.4013 29.1685C25.2764 29.1689 25.2764 29.1689 25.1489 29.1694C24.8864 29.1361 24.7427 29.0633 24.5314 28.9063C24.3113 28.5761 24.3127 28.2784 24.3751 27.8906C24.6826 27.4942 24.8861 27.4124 25.371 27.4093Z" fill="white"/>
</g>
<defs>
<clipPath id="clip0_413_4519">
<rect width="40" height="40" fill="white"/>
</clipPath>
</defs>
</svg>
