<svg width="40" height="40" viewBox="0 0 40 40" fill="none" xmlns="http://www.w3.org/2000/svg">
<path d="M7.42847 1.21031C7.51784 1.20982 7.60722 1.20933 7.6993 1.20883C7.94742 1.2078 8.19549 1.20817 8.4436 1.20914C8.71116 1.20984 8.97871 1.20875 9.24627 1.20789C9.77042 1.2065 10.2946 1.2068 10.8187 1.20771C11.2446 1.20841 11.6706 1.20851 12.0965 1.20817C12.1874 1.2081 12.1874 1.2081 12.2801 1.20803C12.4031 1.20793 12.5262 1.20782 12.6492 1.20772C13.8036 1.20683 14.958 1.20786 16.1124 1.20953C17.1033 1.21093 18.0942 1.21069 19.0851 1.20925C20.2353 1.20758 21.3855 1.20692 22.5357 1.20788C22.6584 1.20798 22.781 1.20807 22.9036 1.20817C22.9639 1.20822 23.0242 1.20827 23.0864 1.20832C23.5119 1.20859 23.9374 1.20813 24.3629 1.2074C24.8813 1.20652 25.3997 1.20676 25.9181 1.20842C26.1827 1.20924 26.4473 1.20956 26.7119 1.20853C26.9985 1.20768 27.285 1.20874 27.5716 1.21031C27.6556 1.20961 27.7396 1.20891 27.8261 1.20819C28.3857 1.21414 28.3857 1.21414 28.6457 1.39395C28.7907 1.6282 28.7855 1.79727 28.7806 2.07152C28.779 2.21805 28.779 2.21805 28.7775 2.36754C28.7736 2.52011 28.7736 2.52011 28.7696 2.67577C28.7682 2.77869 28.7667 2.88162 28.7653 2.98766C28.7616 3.24183 28.7565 3.49588 28.75 3.74999C28.8147 3.74835 28.8793 3.74672 28.9459 3.74503C29.2387 3.73853 29.5314 3.73447 29.8243 3.73046C29.926 3.72784 30.0277 3.72522 30.1325 3.72252C30.2302 3.72152 30.3279 3.72051 30.4285 3.71947C30.5185 3.71783 30.6085 3.7162 30.7013 3.71451C30.9942 3.75849 31.067 3.83427 31.25 4.06249C31.2885 4.25223 31.2885 4.25223 31.2876 4.46784C31.2883 4.59076 31.2883 4.59076 31.2889 4.71615C31.2872 4.85034 31.2872 4.85034 31.2855 4.98725C31.2856 5.08178 31.2856 5.17631 31.2856 5.27371C31.2855 5.53263 31.2839 5.79146 31.2817 6.05036C31.2798 6.32104 31.2796 6.59171 31.2792 6.86239C31.2782 7.37482 31.2757 7.88722 31.2725 8.39964C31.269 8.98307 31.2673 9.56649 31.2658 10.1499C31.2625 11.35 31.257 12.55 31.25 13.75C31.3047 13.7493 31.3594 13.7486 31.4157 13.7479C31.9351 13.7416 32.4545 13.7368 32.9739 13.7338C33.2408 13.7322 33.5077 13.73 33.7746 13.7264C34.0826 13.7223 34.3905 13.7208 34.6985 13.7195C34.8399 13.7171 34.8399 13.7171 34.9842 13.7146C36.1205 13.7143 36.9664 14.1012 37.793 14.8682C38.5278 15.6445 38.7927 16.5172 38.772 17.5677C38.7462 18.1072 38.5896 18.6179 38.44 19.1333C38.4065 19.253 38.3731 19.3727 38.3399 19.4925C38.2683 19.7491 38.1959 20.0053 38.1227 20.2614C38.0053 20.6722 37.89 21.0835 37.7749 21.495C37.6325 22.0041 37.4895 22.513 37.3459 23.0218C37.0759 23.9792 36.8101 24.9377 36.5464 25.8969C36.5266 25.9689 36.5067 26.0409 36.4863 26.1151C36.4066 26.4049 36.327 26.6947 36.2473 26.9845C36.0323 27.767 35.8166 28.5494 35.6006 29.3317C35.5723 29.4342 35.5723 29.4342 35.5434 29.5388C35.297 30.4311 35.0491 31.3231 34.7994 32.2145C34.7517 32.3847 34.7041 32.5548 34.6564 32.725C34.5133 33.2363 34.3698 33.7475 34.2256 34.2585C33.8988 35.4165 33.8988 35.4165 33.6425 36.5917C33.4639 37.3443 32.909 37.9855 32.2657 38.3887C31.6 38.7806 30.9726 38.7727 30.2182 38.7709C30.1043 38.7712 29.9904 38.7715 29.8764 38.772C29.564 38.7729 29.2516 38.7729 28.9391 38.7727C28.6019 38.7727 28.2647 38.7735 27.9275 38.7743C27.267 38.7756 26.6066 38.776 25.9461 38.7761C25.4092 38.7762 24.8723 38.7765 24.3353 38.777C22.8125 38.7784 21.2896 38.7791 19.7668 38.779C19.6437 38.7789 19.6437 38.7789 19.5181 38.7789C19.3948 38.7789 19.3948 38.7789 19.2691 38.7789C17.9375 38.7789 16.6059 38.7804 15.2743 38.7826C13.9065 38.7848 12.5387 38.7859 11.171 38.7857C10.4033 38.7857 9.63558 38.7861 8.86788 38.7878C8.21421 38.7892 7.56056 38.7896 6.90689 38.7885C6.57356 38.788 6.24024 38.788 5.9069 38.7893C5.60136 38.7906 5.29584 38.7903 4.9903 38.789C4.88016 38.7887 4.77001 38.789 4.65987 38.7899C3.64654 38.7974 2.85504 38.6024 2.10941 37.8906C1.17424 36.911 1.20451 35.8434 1.2096 34.566C1.20917 34.3872 1.20862 34.2083 1.20794 34.0295C1.20652 33.5456 1.20706 33.0617 1.20806 32.5778C1.20885 32.0704 1.20811 31.563 1.20762 31.0556C1.20702 30.1492 1.20799 29.2428 1.20958 28.3364C1.21098 27.5159 1.21073 26.6955 1.20929 25.8751C1.20762 24.9204 1.207 23.9657 1.20792 23.011C1.20841 22.5064 1.20848 22.0017 1.20744 21.4971C1.20654 21.0225 1.20717 20.548 1.20897 20.0735C1.20938 19.8997 1.20927 19.726 1.20858 19.5523C1.20425 18.3557 1.24077 17.3943 2.10941 16.4844C2.96823 15.6645 3.88098 15.5795 5.01468 15.6055C5.13497 15.607 5.25526 15.6085 5.37555 15.6097C5.66709 15.6131 5.95855 15.6185 6.25003 15.625C6.24974 15.5528 6.24946 15.4806 6.24916 15.4062C6.24223 13.651 6.23709 11.8958 6.23384 10.1406C6.23223 9.29181 6.23003 8.44301 6.22646 7.59421C6.22335 6.85453 6.22133 6.11485 6.22063 5.37517C6.22022 4.98339 6.21926 4.59162 6.21699 4.19985C6.21487 3.83126 6.21422 3.4627 6.21469 3.0941C6.2146 2.95868 6.21398 2.82325 6.21278 2.68783C6.21123 2.50317 6.2116 2.3186 6.21245 2.13393C6.21154 2.08013 6.21063 2.02632 6.20969 1.97089C6.21261 1.73819 6.24176 1.57749 6.35451 1.373C6.69496 1.17168 7.04034 1.20708 7.42847 1.21031ZM7.50003 2.49999C7.50003 6.83124 7.50003 11.1625 7.50003 15.625C9.82035 15.6637 9.82034 15.6637 12.1875 15.7031C12.867 16.2976 12.867 16.2976 13.105 16.6891C13.647 17.5708 14.4313 18.4973 15.4604 18.7924C16.3619 18.9973 17.3029 18.9939 18.2227 18.9941C18.2832 18.9942 18.3438 18.9943 18.4062 18.9944C19.4594 18.9933 20.5099 18.9453 21.5625 18.9062C23.5219 18.8547 25.4813 18.8031 27.5 18.75C27.5 13.3875 27.5 8.02499 27.5 2.49999C20.9 2.49999 14.3 2.49999 7.50003 2.49999ZM28.75 4.99999C28.75 9.53749 28.75 14.075 28.75 18.75C29.1625 18.75 29.575 18.75 30 18.75C30 14.2125 30 9.67499 30 4.99999C29.5875 4.99999 29.175 4.99999 28.75 4.99999ZM31.25 15C31.25 16.2375 31.25 17.475 31.25 18.75C31.5594 18.8789 31.8688 19.0078 32.1875 19.1406C32.9501 19.6457 33.4549 20.2757 33.6719 21.1719C33.7049 21.4904 33.7061 21.8066 33.7057 22.1266C33.7065 22.2197 33.7073 22.3128 33.7081 22.4086C33.71 22.6617 33.711 22.9147 33.7114 23.1678C33.7122 23.4331 33.7142 23.6983 33.7161 23.9636C33.7195 24.4649 33.7218 24.9662 33.7236 25.4676C33.7257 26.0387 33.7291 26.6099 33.7327 27.181C33.7399 28.3551 33.7455 29.5291 33.75 30.7031C33.9079 30.402 33.9979 30.0934 34.0869 29.7665C34.1044 29.7034 34.1219 29.6403 34.1399 29.5753C34.1981 29.3647 34.2559 29.1539 34.3137 28.9432C34.355 28.7935 34.3963 28.6439 34.4376 28.4943C34.5488 28.0918 34.6595 27.6891 34.7701 27.2865C34.8847 26.8695 34.9995 26.4525 35.1143 26.0355C35.1605 25.8675 35.2068 25.6994 35.2531 25.5314C35.2875 25.4064 35.2875 25.4064 35.3226 25.2789C35.3924 25.0252 35.4622 24.7714 35.532 24.5176C35.8014 23.5381 36.0732 22.5594 36.3479 21.5814C36.4526 21.2086 36.5567 20.8356 36.6608 20.4626C36.7411 20.175 36.8218 19.8875 36.9034 19.6002C36.9929 19.2849 37.0808 18.9693 37.1686 18.6536C37.1946 18.563 37.2207 18.4724 37.2475 18.3791C37.4786 17.5394 37.5219 16.9303 37.0963 16.1539C36.7418 15.6179 36.242 15.2597 35.625 15.0781C35.1206 14.9992 34.6287 14.9897 34.1187 14.9924C34.0091 14.9925 34.0091 14.9925 33.8972 14.9926C33.6268 14.993 33.3564 14.9941 33.086 14.9951C32.4801 14.9967 31.8743 14.9983 31.25 15ZM2.92667 17.5616C2.53327 18.1391 2.47642 18.7872 2.48019 19.4705C2.47995 19.5395 2.4797 19.6085 2.47945 19.6796C2.47883 19.909 2.47932 20.1383 2.47982 20.3677C2.4796 20.5329 2.47932 20.6982 2.47899 20.8634C2.47827 21.3108 2.47855 21.7582 2.47904 22.2057C2.47944 22.6746 2.47907 23.1434 2.47883 23.6123C2.47854 24.3996 2.47892 25.1869 2.47966 25.9742C2.48051 26.8836 2.48024 27.7931 2.47938 28.7025C2.47867 29.4842 2.47857 30.2658 2.47898 31.0475C2.47922 31.514 2.47925 31.9805 2.47874 32.447C2.47828 32.8856 2.4786 33.3242 2.4795 33.7628C2.47971 33.9235 2.47965 34.0842 2.4793 34.2449C2.47888 34.4648 2.47942 34.6847 2.48019 34.9045C2.47984 34.9677 2.47949 35.0308 2.47914 35.0958C2.48379 35.7786 2.59086 36.423 3.04691 36.9531C3.73479 37.5449 4.59015 37.5228 5.45141 37.5198C5.55979 37.52 5.66817 37.5203 5.77655 37.5206C6.0729 37.5212 6.36924 37.5209 6.66559 37.5204C6.98576 37.5201 7.30593 37.5206 7.62611 37.521C8.25274 37.5217 8.87938 37.5216 9.50601 37.5211C10.0154 37.5208 10.5248 37.5207 11.0341 37.5209C11.1067 37.5209 11.1793 37.5209 11.254 37.521C11.4014 37.521 11.5488 37.5211 11.6962 37.5211C13.0777 37.5216 14.4593 37.5211 15.8408 37.5202C17.0257 37.5195 18.2105 37.5196 19.3954 37.5204C20.7721 37.5212 22.1487 37.5215 23.5254 37.521C23.6722 37.521 23.8191 37.5209 23.9659 37.5209C24.0743 37.5209 24.0743 37.5209 24.1849 37.5208C24.6935 37.5207 25.2021 37.5209 25.7108 37.5213C26.3308 37.5217 26.9509 37.5216 27.5709 37.5208C27.8871 37.5204 28.2034 37.5202 28.5196 37.5207C28.8093 37.5212 29.099 37.5209 29.3887 37.5201C29.5426 37.5198 29.6966 37.5203 29.8505 37.5209C30.634 37.5174 31.3408 37.4907 31.9242 36.9031C32.4306 36.3418 32.5095 35.7968 32.5105 35.0513C32.5107 34.9953 32.5108 34.9392 32.511 34.8815C32.5115 34.6946 32.5114 34.5076 32.5114 34.3207C32.5116 34.1863 32.5119 34.0519 32.5122 33.9175C32.5129 33.5531 32.5131 33.1886 32.5131 32.8241C32.5132 32.5962 32.5133 32.3683 32.5135 32.1404C32.5143 31.3448 32.5146 30.5492 32.5145 29.7536C32.5145 29.0129 32.5153 28.2721 32.5165 27.5314C32.5175 26.8947 32.518 26.258 32.5179 25.6213C32.5179 25.2413 32.5181 24.8614 32.5189 24.4814C32.5197 24.1239 32.5197 23.7665 32.5191 23.409C32.5191 23.2781 32.5192 23.1473 32.5197 23.0164C32.547 21.6907 32.547 21.6907 31.9532 20.5469C31.3249 20.057 30.732 19.9875 29.9584 19.9913C29.8933 19.9913 29.8282 19.9913 29.7611 19.9913C29.544 19.9914 29.3269 19.992 29.1099 19.9926C28.9538 19.9928 28.7977 19.9929 28.6416 19.9929C28.306 19.9931 27.9704 19.9935 27.6348 19.994C27.1039 19.9946 26.573 19.9942 26.0421 19.9935C25.9525 19.9934 25.8628 19.9933 25.7704 19.9932C25.5871 19.9929 25.4038 19.9927 25.2204 19.9924C23.9849 19.9908 22.7494 19.9897 21.5139 19.9922C20.6798 19.9939 19.8458 19.9936 19.0118 19.9912C18.5707 19.9899 18.1296 19.9897 17.6885 19.9918C17.2736 19.9937 16.8588 19.9931 16.444 19.9906C16.2919 19.9901 16.1399 19.9906 15.9878 19.992C14.6962 20.0036 14.6962 20.0036 14.3096 19.6813C14.1775 19.5312 14.1775 19.5312 14.0625 19.375C14.0224 19.3273 13.9823 19.2796 13.941 19.2305C13.8606 19.1338 13.782 19.0357 13.7052 18.9361C12.9179 17.9173 12.0363 16.846 10.6962 16.6683C9.83205 16.5849 8.9641 16.6355 8.1 16.6942C7.69021 16.719 7.28005 16.7282 6.86969 16.7392C6.27096 16.7576 5.67289 16.7811 5.07497 16.8176C5.01422 16.8209 4.95347 16.8243 4.89087 16.8278C4.16265 16.876 3.42653 16.9806 2.92667 17.5616Z" fill="white"/>
<path d="M15.2342 21.8346C15.2887 21.834 15.3431 21.8335 15.3991 21.8329C15.5786 21.8315 15.7579 21.8324 15.9374 21.8335C16.0623 21.8333 16.1872 21.833 16.3121 21.8326C16.5738 21.8321 16.8354 21.8328 17.097 21.8343C17.4323 21.836 17.7674 21.835 18.1027 21.8331C18.3606 21.832 18.6185 21.8324 18.8764 21.8332C19 21.8334 19.1236 21.8331 19.2472 21.8324C19.42 21.8316 19.5927 21.8328 19.7655 21.8346C19.9129 21.8349 19.9129 21.8349 20.0633 21.8353C20.3124 21.875 20.3124 21.875 20.5006 22.0118C20.6407 22.2099 20.6631 22.2989 20.6603 22.5385C20.6603 22.6073 20.6603 22.6761 20.6603 22.747C20.6587 22.8206 20.6571 22.8942 20.6554 22.97C20.6549 23.0458 20.6545 23.1217 20.6541 23.1998C20.6523 23.4419 20.6484 23.6838 20.6444 23.9258C20.6428 24.09 20.6414 24.2541 20.6401 24.4183C20.6367 24.8206 20.6313 25.2228 20.6249 25.625C20.7786 25.6225 20.7786 25.6225 20.9355 25.62C21.3158 25.6144 21.696 25.6108 22.0764 25.6078C22.241 25.6063 22.4056 25.6041 22.5701 25.6014C22.8067 25.5976 23.0433 25.5959 23.2799 25.5945C23.3535 25.5929 23.4271 25.5913 23.5029 25.5896C23.5717 25.5896 23.6405 25.5895 23.7113 25.5895C23.8019 25.5885 23.8019 25.5885 23.8943 25.5874C24.1401 25.6424 24.2275 25.7348 24.3749 25.9375C24.4146 26.1865 24.4146 26.1865 24.4153 26.4844C24.4159 26.5388 24.4164 26.5932 24.417 26.6492C24.4183 26.8287 24.4174 27.008 24.4164 27.1875C24.4166 27.3124 24.4169 27.4373 24.4173 27.5623C24.4177 27.8239 24.4171 28.0855 24.4156 28.3472C24.4138 28.6824 24.4149 29.0176 24.4167 29.3528C24.4179 29.6107 24.4175 29.8686 24.4167 30.1265C24.4165 30.2501 24.4167 30.3737 24.4175 30.4973C24.4183 30.6701 24.417 30.8428 24.4153 31.0156C24.4151 31.1139 24.4148 31.2122 24.4146 31.3135C24.3749 31.5625 24.3749 31.5625 24.238 31.7507C24.04 31.8908 23.9509 31.9132 23.7113 31.9105C23.6425 31.9104 23.5737 31.9104 23.5029 31.9104C23.3925 31.908 23.3925 31.908 23.2799 31.9055C23.204 31.9051 23.1282 31.9046 23.05 31.9042C22.808 31.9024 22.5661 31.8985 22.3241 31.8945C22.1599 31.893 21.9957 31.8915 21.8315 31.8903C21.4293 31.8868 21.0271 31.8814 20.6249 31.875C20.6265 31.9775 20.6281 32.08 20.6298 32.1856C20.6355 32.5659 20.6391 32.9462 20.642 33.3265C20.6436 33.4911 20.6457 33.6557 20.6484 33.8203C20.6522 34.0569 20.654 34.2934 20.6554 34.53C20.657 34.6036 20.6586 34.6772 20.6603 34.753C20.6603 34.8218 20.6603 34.8906 20.6603 34.9615C20.661 35.0218 20.6617 35.0822 20.6625 35.1444C20.6075 35.3903 20.5151 35.4776 20.3124 35.625C20.0633 35.6647 20.0633 35.6647 19.7655 35.6654C19.6839 35.6663 19.6839 35.6663 19.6006 35.6671C19.4212 35.6685 19.2418 35.6676 19.0624 35.6665C18.9375 35.6667 18.8125 35.667 18.6876 35.6674C18.426 35.6679 18.1644 35.6672 17.9027 35.6657C17.5675 35.664 17.2323 35.665 16.8971 35.6669C16.6392 35.668 16.3813 35.6676 16.1234 35.6668C15.9998 35.6666 15.8762 35.6669 15.7526 35.6676C15.5798 35.6684 15.4071 35.6672 15.2342 35.6654C15.136 35.6652 15.0377 35.6649 14.9364 35.6647C14.6874 35.625 14.6874 35.625 14.4992 35.4882C14.359 35.2901 14.3366 35.2011 14.3394 34.9615C14.3394 34.8927 14.3394 34.8239 14.3395 34.753C14.3411 34.6794 14.3427 34.6058 14.3444 34.53C14.3448 34.4542 14.3452 34.3783 14.3457 34.3002C14.3474 34.0581 14.3514 33.8162 14.3553 33.5742C14.3569 33.41 14.3583 33.2458 14.3596 33.0817C14.3631 32.6794 14.3685 32.2772 14.3749 31.875C14.2724 31.8766 14.1699 31.8783 14.0643 31.88C13.684 31.8856 13.3037 31.8892 12.9234 31.8922C12.7588 31.8937 12.5942 31.8959 12.4296 31.8986C12.193 31.9024 11.9565 31.9041 11.7198 31.9055C11.6095 31.9079 11.6095 31.9079 11.4969 31.9104C11.4281 31.9104 11.3593 31.9104 11.2884 31.9105C11.228 31.9112 11.1677 31.9119 11.1055 31.9126C10.8596 31.8576 10.7722 31.7652 10.6249 31.5625C10.5852 31.3135 10.5852 31.3135 10.5844 31.0156C10.5839 30.9612 10.5833 30.9068 10.5828 30.8507C10.5814 30.6713 10.5823 30.4919 10.5834 30.3125C10.5832 30.1876 10.5829 30.0627 10.5825 29.9377C10.582 29.6761 10.5827 29.4145 10.5841 29.1528C10.5859 28.8176 10.5849 28.4824 10.583 28.1472C10.5819 27.8893 10.5822 27.6314 10.5831 27.3735C10.5833 27.2499 10.583 27.1263 10.5823 27.0027C10.5815 26.8299 10.5827 26.6572 10.5844 26.4844C10.5847 26.3861 10.5849 26.2878 10.5852 26.1865C10.6249 25.9375 10.6249 25.9375 10.7617 25.7493C10.9598 25.6092 11.0488 25.5868 11.2884 25.5895C11.3916 25.5896 11.3916 25.5896 11.4969 25.5896C11.6072 25.592 11.6072 25.592 11.7198 25.5945C11.7957 25.5949 11.8716 25.5954 11.9497 25.5958C12.1917 25.5976 12.4337 25.6015 12.6757 25.6055C12.8398 25.607 13.004 25.6085 13.1682 25.6097C13.5705 25.6132 13.9727 25.6186 14.3749 25.625C14.3732 25.5225 14.3716 25.42 14.3699 25.3144C14.3643 24.9341 14.3607 24.5538 14.3577 24.1735C14.3561 24.0089 14.354 23.8443 14.3513 23.6797C14.3475 23.4431 14.3457 23.2066 14.3444 22.97C14.3427 22.8964 14.3411 22.8228 14.3395 22.747C14.3394 22.6782 14.3394 22.6094 14.3394 22.5385C14.3387 22.4782 14.338 22.4178 14.3373 22.3556C14.4456 21.8712 14.7969 21.8357 15.2342 21.8346ZM15.6249 23.125C15.6085 24.2457 15.6085 24.2457 15.5946 25.3665C15.592 25.5069 15.5894 25.6473 15.5867 25.7877C15.5862 25.8607 15.5858 25.9337 15.5852 26.0089C15.5837 26.0787 15.5821 26.1485 15.5805 26.2203C15.5797 26.2809 15.5788 26.3414 15.5779 26.4038C15.5379 26.6076 15.4804 26.6763 15.3124 26.7969C15.1537 26.828 15.1537 26.828 14.9702 26.8306C14.9005 26.8322 14.8307 26.8338 14.7588 26.8354C14.6858 26.8359 14.6128 26.8363 14.5375 26.8368C14.4702 26.8381 14.4029 26.8394 14.3335 26.8408C14.082 26.8453 13.8305 26.8478 13.579 26.8506C13.0166 26.8586 12.4543 26.8667 11.8749 26.875C11.8749 28.1125 11.8749 29.35 11.8749 30.625C12.9956 30.6414 12.9956 30.6414 14.1163 30.6553C14.2567 30.6578 14.3971 30.6604 14.5375 30.6631C14.6106 30.6636 14.6836 30.6641 14.7588 30.6646C14.8286 30.6662 14.8983 30.6677 14.9702 30.6693C15.061 30.6706 15.061 30.6706 15.1537 30.672C15.3575 30.712 15.4262 30.7695 15.5467 30.9375C15.5779 31.0962 15.5779 31.0962 15.5805 31.2797C15.5821 31.3494 15.5836 31.4192 15.5852 31.4911C15.5857 31.5641 15.5862 31.6371 15.5867 31.7123C15.588 31.7797 15.5893 31.847 15.5907 31.9164C15.5952 32.1679 15.5977 32.4194 15.6005 32.6709C15.6125 33.5144 15.6125 33.5144 15.6249 34.375C16.8624 34.375 18.0999 34.375 19.3749 34.375C19.3913 33.2543 19.3913 33.2543 19.4052 32.1335C19.4077 31.9931 19.4103 31.8527 19.413 31.7123C19.4138 31.6028 19.4138 31.6028 19.4145 31.4911C19.4161 31.4213 19.4176 31.3515 19.4192 31.2797C19.4201 31.2191 19.421 31.1586 19.4218 31.0962C19.4619 30.8924 19.5194 30.8237 19.6874 30.7031C19.8461 30.672 19.8461 30.672 20.0295 30.6693C20.1342 30.667 20.1342 30.667 20.2409 30.6646C20.314 30.6641 20.387 30.6636 20.4622 30.6631C20.5296 30.6618 20.5969 30.6605 20.6663 30.6592C20.9178 30.6547 21.1693 30.6522 21.4208 30.6494C21.9831 30.6414 22.5455 30.6333 23.1249 30.625C23.1249 29.3875 23.1249 28.15 23.1249 26.875C22.0042 26.8586 22.0042 26.8586 20.8834 26.8447C20.743 26.8422 20.6026 26.8396 20.4622 26.8368C20.3892 26.8364 20.3162 26.8359 20.2409 26.8354C20.1712 26.8338 20.1014 26.8323 20.0295 26.8306C19.969 26.8298 19.9084 26.8289 19.8461 26.828C19.6422 26.788 19.5736 26.7305 19.453 26.5625C19.4218 26.4038 19.4218 26.4038 19.4192 26.2203C19.4169 26.1157 19.4169 26.1157 19.4145 26.0089C19.414 25.9359 19.4135 25.8629 19.413 25.7877C19.4117 25.7203 19.4104 25.653 19.4091 25.5836C19.4046 25.3321 19.402 25.0806 19.3993 24.8291C19.3912 24.2667 19.3832 23.7044 19.3749 23.125C18.1374 23.125 16.8999 23.125 15.6249 23.125Z" fill="white"/>
<path d="M14.9919 3.96424C15.6494 4.35627 16.0391 4.89036 16.2505 5.62501C16.2801 5.97967 16.2795 6.33414 16.2794 6.68986C16.2798 6.85911 16.2826 7.0282 16.2856 7.19742C16.2911 7.87835 16.2468 8.45538 15.7964 8.99903C15.6806 9.14582 15.6806 9.14582 15.7134 9.37989C15.7826 9.61223 15.8235 9.70299 16.0161 9.84375C16.2902 9.93512 16.5232 9.93616 16.812 9.94629C17.4917 9.98448 17.8861 10.1183 18.3501 10.6201C18.6965 11.0254 18.7701 11.3659 18.7657 11.8961C18.7655 11.9493 18.7653 12.0025 18.7651 12.0573C18.7642 12.226 18.7622 12.3947 18.7602 12.5635C18.7595 12.6784 18.7587 12.7933 18.7581 12.9082C18.7565 13.1888 18.7535 13.4694 18.7505 13.75C18.338 13.75 17.9255 13.75 17.5005 13.75C17.4967 13.6192 17.4928 13.4884 17.4889 13.3536C17.483 13.1814 17.4771 13.0091 17.4712 12.8369C17.4688 12.7508 17.4663 12.6646 17.4639 12.5758C17.4608 12.4925 17.4578 12.4092 17.4547 12.3233C17.4522 12.2468 17.4498 12.1703 17.4473 12.0915C17.4209 11.8623 17.369 11.6905 17.2661 11.4844C16.9589 11.3017 16.6553 11.3082 16.3042 11.2988C15.6247 11.2647 15.2362 11.1295 14.7759 10.625C14.6092 10.4265 14.4838 10.2355 14.3755 10C13.9497 9.95904 13.55 9.93767 13.1255 10C12.9344 10.1597 12.856 10.2993 12.7468 10.5212C12.5881 10.8419 12.334 11.0214 12.0149 11.1795C11.6531 11.2967 11.2839 11.2862 10.9062 11.3013C10.6414 11.3266 10.4629 11.3489 10.2349 11.4844C10.0936 11.7674 10.0563 12.0092 10.0463 12.3233C10.0432 12.4066 10.0402 12.49 10.0371 12.5758C10.0335 12.7051 10.0335 12.7051 10.0298 12.8369C10.0268 12.9246 10.0237 13.0123 10.0206 13.1026C10.0133 13.3184 10.0068 13.5342 10.0005 13.75C9.58798 13.75 9.17548 13.75 8.75048 13.75C8.74326 13.4165 8.73705 13.0832 8.73331 12.7496C8.73175 12.6364 8.72963 12.5232 8.7269 12.41C8.70968 11.675 8.70528 11.1113 9.21648 10.528C9.26734 10.4859 9.3182 10.4438 9.37059 10.4004C9.42125 10.3571 9.47191 10.3138 9.5241 10.2692C9.97943 9.95544 10.4315 9.97026 10.9697 9.94874C11.2303 9.92381 11.4109 9.88711 11.6411 9.76563C11.7524 9.57345 11.8019 9.44599 11.7876 9.22364C11.7179 9.04514 11.7179 9.04514 11.5679 8.8379C11.1989 8.27889 11.2214 7.71029 11.2215 7.06444C11.2212 6.89605 11.2183 6.72782 11.2154 6.55945C11.2086 5.73804 11.3185 5.03765 11.8987 4.41651C12.7266 3.67217 13.9799 3.47862 14.9919 3.96424ZM12.8911 5.39063C12.3985 6.01643 12.4601 6.74083 12.5005 7.50001C12.564 7.89581 12.6682 8.17197 12.9741 8.4375C13.3674 8.70525 13.6707 8.72326 14.1411 8.67188C14.5221 8.48845 14.7195 8.25879 14.9224 7.89063C15.0992 7.22897 15.1035 6.32259 14.8488 5.68512C14.6786 5.40062 14.4364 5.22579 14.1411 5.07813C13.6392 5.02307 13.2803 5.03851 12.8911 5.39063Z" fill="white"/>
<path d="M20.8598 3.70956C20.9142 3.70901 20.9686 3.70846 21.0247 3.7079C21.2041 3.70653 21.3835 3.70743 21.563 3.70849C21.6879 3.70828 21.8128 3.70798 21.9377 3.70758C22.1994 3.70712 22.461 3.70779 22.7226 3.70925C23.0579 3.71103 23.393 3.71001 23.7283 3.70814C23.9862 3.70701 24.244 3.70737 24.5019 3.70818C24.6255 3.70839 24.7491 3.70813 24.8727 3.7074C25.0456 3.70661 25.2183 3.70782 25.3911 3.70956C25.5385 3.70993 25.5385 3.70993 25.6889 3.71031C25.938 3.74999 25.938 3.74999 26.1259 3.88894C26.2594 4.07499 26.2898 4.1547 26.2909 4.37988C26.2919 4.44141 26.2929 4.50294 26.2939 4.56634C26.2932 4.6321 26.2926 4.69786 26.292 4.76562C26.2924 4.86789 26.2924 4.86789 26.2929 4.97222C26.2931 5.11617 26.2925 5.26011 26.2912 5.40405C26.2895 5.62425 26.2912 5.84425 26.2932 6.06445C26.293 6.20442 26.2926 6.3444 26.292 6.48437C26.2926 6.55013 26.2932 6.61589 26.2939 6.68365C26.2929 6.74518 26.2919 6.80671 26.2909 6.87011C26.2906 6.92399 26.2904 6.97787 26.2901 7.03338C26.2298 7.26772 26.1314 7.35696 25.938 7.49999C25.6889 7.53968 25.6889 7.53968 25.3911 7.54043C25.3095 7.54125 25.3095 7.54125 25.2262 7.54209C25.0468 7.54346 24.8674 7.54256 24.688 7.5415C24.563 7.54171 24.4381 7.54201 24.3132 7.5424C24.0515 7.54286 23.7899 7.5422 23.5283 7.54074C23.193 7.53895 22.8579 7.53998 22.5227 7.54185C22.2647 7.54298 22.0069 7.54262 21.749 7.54181C21.6254 7.5416 21.5018 7.54186 21.3782 7.54259C21.2053 7.54338 21.0326 7.54217 20.8598 7.54043C20.7615 7.54018 20.6632 7.53993 20.562 7.53968C20.313 7.49999 20.313 7.49999 20.125 7.36105C19.9915 7.17499 19.9611 7.09529 19.96 6.87011C19.959 6.80858 19.958 6.74705 19.957 6.68365C19.9577 6.61789 19.9583 6.55212 19.9589 6.48437C19.9586 6.41619 19.9584 6.34801 19.958 6.27777C19.9578 6.13382 19.9584 5.98988 19.9597 5.84594C19.9614 5.62574 19.9597 5.40574 19.9577 5.18554C19.9579 5.04557 19.9583 4.90559 19.9589 4.76562C19.9583 4.69986 19.9577 4.63409 19.957 4.56634C19.958 4.50481 19.959 4.44327 19.96 4.37988C19.9603 4.326 19.9605 4.27212 19.9608 4.21661C20.0824 3.74439 20.4289 3.71065 20.8598 3.70956ZM21.2505 4.99999C21.2505 5.41249 21.2505 5.82499 21.2505 6.24999C22.488 6.24999 23.7255 6.24999 25.0005 6.24999C25.0005 5.83749 25.0005 5.42499 25.0005 4.99999C23.763 4.99999 22.5255 4.99999 21.2505 4.99999Z" fill="white"/>
<path d="M20 16.25C22.0625 16.25 24.125 16.25 26.25 16.25C26.25 16.6625 26.25 17.075 26.25 17.5C24.1875 17.5 22.125 17.5 20 17.5C20 17.0875 20 16.675 20 16.25Z" fill="white"/>
<path d="M20 13.75C22.0625 13.75 24.125 13.75 26.25 13.75C26.25 14.1625 26.25 14.575 26.25 15C24.1875 15 22.125 15 20 15C20 14.5875 20 14.175 20 13.75Z" fill="white"/>
<path d="M20 11.25C22.0625 11.25 24.125 11.25 26.25 11.25C26.25 11.6625 26.25 12.075 26.25 12.5C24.1875 12.5 22.125 12.5 20 12.5C20 12.0875 20 11.675 20 11.25Z" fill="white"/>
<path d="M20 8.75C22.0625 8.75 24.125 8.75 26.25 8.75C26.25 9.1625 26.25 9.575 26.25 10C24.1875 10 22.125 10 20 10C20 9.5875 20 9.175 20 8.75Z" fill="white"/>
</svg>
