<svg width="60" height="60" viewBox="0 0 60 60" fill="none" xmlns="http://www.w3.org/2000/svg">
<path d="M20.501 1.8144C20.6862 1.81376 20.8713 1.81292 21.0564 1.81191C21.5557 1.80978 22.0549 1.81059 22.5542 1.81208C23.0788 1.81328 23.6034 1.81217 24.128 1.81144C25.0086 1.81058 25.8892 1.8117 26.7699 1.81394C27.7854 1.81649 28.8008 1.81566 29.8163 1.81308C30.6911 1.81095 31.5658 1.81066 32.4405 1.81188C32.9617 1.81261 33.4829 1.81272 34.0041 1.81116C34.4943 1.8098 34.9844 1.81076 35.4746 1.81346C35.6536 1.81407 35.8326 1.81391 36.0116 1.81286C37.5727 1.80462 38.8038 2.05981 39.9606 3.16411C40.662 3.89891 41.2283 4.7951 41.2595 5.83793C41.2291 6.19075 41.181 6.53655 41.1258 6.88636C41.0894 7.16083 41.0537 7.43538 41.0185 7.71C40.9994 7.85471 40.9804 7.99942 40.9608 8.14852C40.7793 9.62064 40.6793 11.1024 40.5978 12.5831C40.593 12.669 40.5883 12.755 40.5834 12.8436C40.3482 17.2991 40.7278 20.9546 43.7905 24.3806C44.8821 25.5823 46.0421 26.7023 47.2482 27.7881C47.3182 27.8512 47.3882 27.9143 47.4603 27.9792C48.7187 29.1099 49.9955 30.2195 51.3217 31.2703C51.3829 31.319 51.4442 31.3678 51.5073 31.418C51.7913 31.644 52.0766 31.8677 52.3654 32.0876C53.4563 32.9439 54.0943 34.0277 54.3746 35.3907C54.4534 36.12 54.4389 36.8543 54.4353 37.5868C54.4359 37.8056 54.4368 38.0244 54.4378 38.2432C54.4399 38.8335 54.4391 39.4237 54.4376 40.0139C54.4364 40.6327 54.4375 41.2515 54.4382 41.8703C54.4391 42.9082 54.438 43.946 54.4357 44.9839C54.4332 46.184 54.434 47.3841 54.4366 48.5842C54.4387 49.6159 54.439 50.6475 54.4378 51.6792C54.4371 52.2949 54.437 52.9105 54.4385 53.5262C54.4399 54.1041 54.4389 54.682 54.4362 55.2599C54.4356 55.4721 54.4358 55.6843 54.4368 55.8965C54.4381 56.1858 54.4365 56.4749 54.4342 56.7641C54.4357 56.8906 54.4357 56.8906 54.4373 57.0196C54.431 57.4198 54.4007 57.6228 54.1512 57.9425C53.885 58.1406 53.7646 58.1888 53.4371 58.1836C53.3211 58.1855 53.3211 58.1855 53.2028 58.1873C52.8532 58.0945 52.7226 57.9396 52.4996 57.6563C52.4411 57.2713 52.4411 57.2713 52.4412 56.8041C52.4402 56.6751 52.4402 56.6751 52.4393 56.5435C52.4377 56.255 52.4395 55.9667 52.4412 55.6783C52.4408 55.4715 52.4401 55.2648 52.4393 55.058C52.4379 54.6125 52.4379 54.167 52.4391 53.7215C52.4409 53.0162 52.4393 52.3109 52.4372 51.6055C52.4336 50.2342 52.4334 48.8628 52.4337 47.4914C52.4338 45.7493 52.4326 44.0072 52.428 42.265C52.4262 41.5649 52.4263 40.8648 52.4277 40.1647C52.4282 39.7273 52.4274 39.29 52.4261 38.8527C52.4258 38.6511 52.4261 38.4495 52.4271 38.2479C52.4346 36.6013 52.3588 35.0667 51.1753 33.8169C50.9821 33.6239 50.7868 33.433 50.5889 33.2447C50.3441 33.0005 50.12 32.7562 49.8954 32.4943C49.4868 32.0253 49.0584 31.582 48.6174 31.1435C48.5384 31.0645 48.4594 30.9855 48.378 30.9041C48.1202 30.6464 47.862 30.3892 47.6039 30.1319C47.4237 29.952 47.2436 29.772 47.0635 29.592C46.592 29.1209 46.1201 28.6502 45.6481 28.1795C45.1655 27.6982 44.6833 27.2165 44.2011 26.7348C43.2566 25.7917 42.3119 24.8489 41.3668 23.9063C41.3652 24.073 41.3652 24.073 41.3635 24.2431C41.3583 24.6564 41.3511 25.0695 41.3425 25.4827C41.3392 25.6614 41.3367 25.8401 41.3351 26.0188C41.3325 26.276 41.3271 26.533 41.321 26.7902C41.3186 26.9449 41.3161 27.0995 41.3136 27.2588C41.2407 27.712 41.1426 27.8527 40.7809 28.125C40.5465 28.1873 40.5465 28.1873 40.3121 28.1836C40.1961 28.1855 40.1961 28.1855 40.0778 28.1873C39.7283 28.0945 39.5977 27.9394 39.3746 27.6563C39.3158 27.2721 39.3158 27.2721 39.3154 26.8062C39.3147 26.7204 39.314 26.6346 39.3132 26.5462C39.3114 26.2586 39.3129 25.9711 39.3144 25.6835C39.3137 25.4773 39.3129 25.2711 39.3118 25.065C39.3101 24.6208 39.3097 24.1767 39.3105 23.7325C39.3118 23.0297 39.3098 22.3269 39.3073 21.6242C39.3037 20.5119 39.3024 19.3997 39.3019 18.2874C39.3012 16.2975 39.2977 14.3075 39.292 12.3176C39.29 11.6196 39.2894 10.9215 39.2898 10.2234C39.2899 9.78816 39.289 9.35292 39.2878 8.91767C39.2875 8.71648 39.2876 8.51529 39.2881 8.3141C39.3379 6.44672 39.3379 6.44672 38.5543 4.80474C37.7623 4.01931 36.9323 3.85331 35.844 3.85157C35.7026 3.85107 35.5612 3.85057 35.4155 3.85005C35.2618 3.85011 35.1082 3.85016 34.95 3.85021C34.7853 3.84986 34.6207 3.84946 34.456 3.84902C34.01 3.84799 33.564 3.84771 33.118 3.84764C32.839 3.84755 32.56 3.8473 32.2809 3.84699C31.3064 3.84591 30.3318 3.84543 29.3572 3.84552C28.4506 3.84559 27.544 3.84436 26.6373 3.84251C25.8575 3.84097 25.0776 3.84034 24.2977 3.84042C23.8326 3.84045 23.3675 3.84012 22.9023 3.83888C22.4646 3.83774 22.0268 3.83773 21.5891 3.83858C21.3532 3.83876 21.1173 3.83779 20.8815 3.83677C19.7986 3.84051 18.8039 3.85479 17.9293 4.57036C17.1839 5.32199 16.9986 6.09322 16.9712 7.12743C16.9684 7.22879 16.9656 7.33016 16.9628 7.43459C16.9577 7.64513 16.954 7.85571 16.9518 8.0663C16.9272 8.83047 16.9272 8.83047 16.6645 9.20934C16.3927 9.38351 16.2566 9.43864 15.9371 9.43364C15.8598 9.43485 15.7824 9.43606 15.7028 9.43731C15.3573 9.34555 15.2228 9.18273 14.9996 8.9063C14.939 8.56158 14.939 8.56158 14.9374 8.16243C14.9368 8.01643 14.9362 7.87043 14.9355 7.72001C14.9374 7.56766 14.9392 7.41531 14.941 7.25835C14.9392 7.10918 14.9374 6.96 14.9355 6.80631C14.9415 5.35438 15.2752 4.22578 16.2887 3.16411C17.5266 1.98237 18.8509 1.80479 20.501 1.8144Z" fill="#BE0B32"/>
<path d="M21.848 13.1176C22.0286 13.2737 22.2069 13.4324 22.3827 13.5937C22.4712 13.6715 22.5598 13.7493 22.651 13.8294C24.2214 15.2892 25.268 17.3837 25.3518 19.5368C25.3739 21.0572 25.2853 22.449 24.8437 23.9062C24.821 23.9839 24.7984 24.0615 24.7751 24.1415C23.446 28.6015 20.5713 32.6828 17.6 36.2109C17.522 36.3037 17.522 36.3037 17.4423 36.3984C16.541 37.4565 16.541 37.4565 16.1645 37.5778C15.7383 37.5692 15.5293 37.5466 15.183 37.2802C15.0818 37.1591 14.9818 37.0369 14.8827 36.914C14.814 36.8423 14.7452 36.7705 14.6744 36.6966C10.4852 32.2889 6.45424 25.8329 6.53036 19.605C6.59063 17.5941 7.4484 15.7785 8.78896 14.2968C8.86691 14.208 8.94486 14.1192 9.02517 14.0277C10.0778 12.897 11.4327 12.0952 12.8905 11.6015C12.9958 11.5642 13.1011 11.5269 13.2096 11.4884C16.1104 10.6412 19.4699 11.2761 21.848 13.1176ZM10.4671 15.4202C9.04357 16.9012 8.49997 18.6423 8.50401 20.6519C8.61175 25.9357 12.6505 30.9942 15.8202 34.9218C16.2178 34.7555 16.4151 34.5668 16.6698 34.2219C16.7404 34.1272 16.811 34.0325 16.8837 33.9349C16.9581 33.8328 17.0326 33.7306 17.1093 33.6254C17.1871 33.5198 17.265 33.4143 17.3452 33.3055C17.5801 32.9857 17.8136 32.6648 18.0468 32.3437C18.1116 32.2553 18.1765 32.167 18.2433 32.076C19.2014 30.7698 20.0524 29.412 20.8593 28.0078C20.9046 27.9295 20.9499 27.8513 20.9966 27.7708C22.571 25.0313 23.8124 21.8431 23.2383 18.6451C23.1336 18.2726 23.0087 17.9313 22.8515 17.5781C22.8031 17.4683 22.7548 17.3584 22.705 17.2453C21.7768 15.3652 20.1448 14.1555 18.1969 13.4838C15.3981 12.6474 12.5758 13.4437 10.4671 15.4202Z" fill="#BE0B32"/>
<path d="M36.4453 26.0156C36.8028 26.2426 37.0861 26.5356 37.3828 26.8359C37.4958 26.9489 37.6089 27.0618 37.722 27.1746C37.9004 27.3527 38.0782 27.5311 38.2543 27.7115C38.5616 28.0247 38.8762 28.32 39.2102 28.6047C39.9761 29.2672 40.6742 30.0036 41.3853 30.7236C42.2316 31.5879 42.2316 31.5879 43.125 32.4023C43.8781 33.0442 44.5576 33.7701 45.2525 34.4736C45.4427 34.666 45.6332 34.8581 45.824 35.05C45.8849 35.1113 45.9458 35.1726 46.0086 35.2358C46.414 35.6407 46.831 36.0243 47.273 36.3887C47.5503 36.645 47.7822 36.8915 47.8633 37.2656C47.8641 37.6704 47.8488 37.9083 47.6367 38.2617C47.306 38.4601 47.0417 38.5254 46.6549 38.5046C46.3507 38.4225 46.2042 38.3005 45.9723 38.0882C45.891 38.0138 45.8097 37.9395 45.7259 37.8629C45.1883 37.3491 44.6671 36.8198 44.1458 36.2896C43.7467 35.8864 43.3481 35.4913 42.9163 35.1232C42.1563 34.4702 41.4668 33.7387 40.7631 33.0263C40.122 32.3779 39.4828 31.7367 38.7883 31.1449C38.2819 30.6952 37.8141 30.2038 37.3389 29.7216C37.1307 29.5105 36.9223 29.2996 36.7136 29.089C36.6226 28.9966 36.5316 28.9043 36.4378 28.8091C36.2259 28.587 36.2259 28.587 35.9766 28.4765C35.9453 28.5584 35.914 28.6403 35.8818 28.7246C35.7322 29.0866 35.5612 29.4314 35.3833 29.7802C34.8759 30.7753 34.7087 31.8169 35.0157 32.9132C35.7513 34.5007 37.3917 35.7617 38.6133 36.9726C38.9762 37.3324 39.3387 37.6925 39.7009 38.0529C39.7842 38.1352 39.8674 38.2175 39.9532 38.3022C40.0295 38.3782 40.1059 38.4542 40.1846 38.5324C40.2519 38.5992 40.3192 38.6659 40.3886 38.7346C40.6957 39.0676 40.7024 39.3744 40.6984 39.819C40.6495 40.1882 40.491 40.4607 40.3152 40.7849C39.7456 41.8806 39.792 43.4161 40.1514 44.5751C40.4375 45.3227 40.8249 46.0236 41.3274 46.6479C41.5703 46.9993 41.5288 47.2802 41.4844 47.6953C41.3672 47.9736 41.3672 47.9736 41.1328 48.164C40.7494 48.2875 40.5778 48.3402 40.1953 48.2812C39.0045 47.6518 38.4335 46.1768 38.0539 44.9638C37.6393 43.4281 37.7358 41.8106 38.2292 40.3088C38.3242 39.9459 38.3297 39.8334 38.2031 39.4921C38.0336 39.2751 38.0336 39.2751 37.8137 39.0703C37.7315 38.9896 37.6493 38.909 37.5647 38.8259C37.4752 38.7397 37.3857 38.6535 37.2935 38.5647C37.1049 38.3793 36.9162 38.1939 36.7275 38.0085C36.4299 37.7181 36.1318 37.4281 35.8334 37.1385C35.5452 36.8581 35.2584 36.5762 34.9718 36.2942C34.8835 36.2094 34.7952 36.1247 34.7042 36.0374C33.4839 34.834 32.7727 33.4346 32.7539 31.7138C32.779 29.5945 33.7324 27.9015 35.1562 26.3671C35.5982 25.9887 35.8568 25.9175 36.4453 26.0156Z" fill="#BE0B32"/>
<path d="M15.9371 39.3164C16.0145 39.3152 16.0918 39.314 16.1715 39.3127C16.5372 39.4099 16.6575 39.5313 16.8746 39.8438C16.9436 40.2215 16.9456 40.5958 16.9479 40.979C16.9653 42.1415 16.9864 43.2426 17.8611 44.1101C18.6157 44.7774 19.4097 44.897 20.3914 44.8982C20.5297 44.8987 20.668 44.8991 20.8106 44.8996C20.9607 44.8996 21.1109 44.8995 21.2656 44.8994C21.4265 44.8998 21.5875 44.9002 21.7485 44.9007C22.0942 44.9016 22.4398 44.9022 22.7855 44.9026C23.3321 44.9033 23.8787 44.9052 24.4253 44.9074C24.6126 44.9082 24.8 44.9089 24.9873 44.9096C25.0811 44.91 25.1749 44.9104 25.2715 44.9108C26.5434 44.9157 27.8153 44.9196 29.0871 44.921C29.9461 44.922 30.8051 44.9246 31.6641 44.9291C32.1184 44.9315 32.5726 44.9329 33.0269 44.9323C33.4538 44.9318 33.8807 44.9334 34.3076 44.9367C34.539 44.9379 34.7703 44.9367 35.0017 44.9355C35.1394 44.937 35.2771 44.9385 35.4189 44.94C35.5385 44.9403 35.6582 44.9405 35.7814 44.9408C36.1757 45.0156 36.3148 45.1594 36.5621 45.4688C36.6244 45.7031 36.6244 45.7031 36.6207 45.9375C36.6225 46.0535 36.6225 46.0535 36.6244 46.1719C36.5329 46.5162 36.3679 46.6518 36.0934 46.875C35.7666 46.934 35.7666 46.934 35.3828 46.9345C35.1643 46.9365 35.1643 46.9365 34.9413 46.9385C34.7801 46.9376 34.6189 46.9367 34.4578 46.9357C34.2878 46.9363 34.1178 46.9371 33.9478 46.9381C33.486 46.9403 33.0242 46.9395 32.5624 46.938C32.0784 46.9368 31.5943 46.9379 31.1102 46.9386C30.2964 46.9395 29.4825 46.9383 28.6687 46.9361C27.7303 46.9336 26.7918 46.9344 25.8534 46.937C25.0463 46.9391 24.2393 46.9394 23.4322 46.9382C22.9509 46.9374 22.4695 46.9373 21.9881 46.9389C21.5346 46.9403 21.0811 46.9393 20.6275 46.9366C20.462 46.936 20.2964 46.9361 20.1308 46.9372C18.6044 46.9459 17.4124 46.6586 16.2887 45.5859C15.1406 44.3833 14.9213 43.1132 14.941 41.4917C14.9392 41.3394 14.9374 41.187 14.9355 41.03C14.9362 40.884 14.9368 40.738 14.9374 40.5876C14.9379 40.4559 14.9384 40.3242 14.939 40.1885C15.0375 39.6286 15.3605 39.3074 15.9371 39.3164Z" fill="#BE0B32"/>
<path d="M18.5648 16.5829C19.5964 17.326 20.3717 18.3087 20.6252 19.5703C20.782 21.0254 20.6575 22.3112 19.7829 23.5254C18.9846 24.4729 18.0113 25.2027 16.7497 25.3386C15.2367 25.4436 13.9748 25.2601 12.7814 24.2546C11.7832 23.3017 11.2499 22.2881 11.195 20.9021C11.1769 19.4356 11.507 18.3079 12.5393 17.2266C14.1541 15.685 16.6531 15.3908 18.5648 16.5829ZM13.6205 19.1199C13.1597 19.8125 13.1605 20.522 13.2424 21.3281C13.4502 22.1068 13.9979 22.6375 14.6486 23.0859C15.3516 23.4305 16.1583 23.4491 16.9118 23.248C17.63 22.931 18.1923 22.3349 18.536 21.6339C18.7593 20.93 18.7577 20.0973 18.4572 19.4165C18.0494 18.7213 17.4101 18.1721 16.6408 17.9297C15.2669 17.7626 14.4954 18.0836 13.6205 19.1199Z" fill="#BE0B32"/>
<path d="M33.8594 47.7466C34.4003 47.8459 34.7341 48.1302 35.1507 48.4662C35.77 48.9616 36.4056 49.365 37.1003 49.7484C37.3823 49.9219 37.3823 49.9219 37.4995 50.1562C37.5126 50.3919 37.5182 50.6279 37.5203 50.8639C37.5225 51.0868 37.5225 51.0868 37.5248 51.3143C37.5258 51.4773 37.5266 51.6403 37.5274 51.8033C37.5279 51.8852 37.5284 51.9672 37.5289 52.0516C37.5313 52.4852 37.533 52.9189 37.5341 53.3525C37.5354 53.8005 37.5394 54.2483 37.5441 54.6963C37.5471 55.0407 37.5481 55.3851 37.5485 55.7295C37.5491 55.8947 37.5505 56.0598 37.5527 56.2249C37.5555 56.456 37.5551 56.6871 37.5546 56.9183C37.5553 57.0498 37.556 57.1813 37.5567 57.3167C37.4867 57.7323 37.3584 57.8687 37.0308 58.125C36.7964 58.1873 36.7964 58.1873 36.562 58.1836C36.4847 58.1848 36.4073 58.186 36.3276 58.1873C35.9855 58.0964 35.8477 57.9272 35.6245 57.6562C35.5681 57.3552 35.5681 57.3552 35.5713 57.0114C35.5713 56.8179 35.5713 56.8179 35.5714 56.6205C35.5738 56.4819 35.5762 56.3433 35.5787 56.2006C35.5794 56.0582 35.5801 55.9158 35.5807 55.7691C35.5834 55.3141 35.5893 54.8592 35.5952 54.4043C35.5976 54.0959 35.5997 53.7875 35.6016 53.4792C35.6068 52.723 35.6146 51.967 35.6245 51.2109C35.5164 51.1776 35.4084 51.1443 35.297 51.1099C34.8485 50.9507 34.5134 50.7048 34.145 50.4126C34.0795 50.3627 34.0139 50.3127 33.9464 50.2613C33.4134 49.8458 32.9732 49.4926 32.8633 48.8086C32.9292 48.3984 32.9292 48.3984 33.1782 48.0542C33.5151 47.8125 33.5151 47.8125 33.8594 47.7466Z" fill="#BE0B32"/>
<path d="M25.4917 5.56429C25.6215 5.56281 25.7514 5.56134 25.8851 5.55981C26.0248 5.56076 26.1645 5.56171 26.3083 5.56269C26.4522 5.56224 26.5961 5.56179 26.7444 5.56133C27.0486 5.56101 27.3527 5.56188 27.6569 5.56383C28.123 5.56634 28.5889 5.56386 29.0549 5.56086C29.3503 5.56117 29.6458 5.56177 29.9412 5.56269C30.0808 5.56174 30.2205 5.56079 30.3644 5.55981C30.5591 5.56203 30.5591 5.56203 30.7578 5.56429C30.8719 5.56466 30.9861 5.56504 31.1037 5.56542C31.4906 5.64159 31.6305 5.79081 31.8748 6.0937C31.937 6.32807 31.937 6.32807 31.9333 6.56245C31.9352 6.67846 31.9352 6.67846 31.937 6.79682C31.8461 7.13892 31.6769 7.27654 31.406 7.49995C31.1037 7.55947 31.1037 7.55947 30.7578 7.5606C30.628 7.56208 30.4981 7.56355 30.3644 7.56508C30.2247 7.56413 30.0851 7.56318 29.9412 7.5622C29.7253 7.56287 29.7253 7.56287 29.5051 7.56356C29.201 7.56388 28.8968 7.56301 28.5926 7.56106C28.1265 7.55855 27.6606 7.56103 27.1946 7.56403C26.8992 7.56372 26.6038 7.56312 26.3083 7.5622C26.1687 7.56315 26.029 7.5641 25.8851 7.56508C25.6904 7.56286 25.6904 7.56286 25.4917 7.5606C25.3776 7.56023 25.2634 7.55985 25.1459 7.55947C24.759 7.4833 24.619 7.33408 24.3748 7.0312C24.3125 6.79682 24.3125 6.79682 24.3162 6.56245C24.3143 6.44643 24.3143 6.44643 24.3125 6.32807C24.4749 5.71666 24.9108 5.56619 25.4917 5.56429Z" fill="#BE0B32"/>
<path d="M27.363 41.1877C27.4863 41.1871 27.6096 41.1865 27.7366 41.1859C27.8647 41.1877 27.9928 41.1895 28.1248 41.1914C28.3169 41.1887 28.3169 41.1887 28.5129 41.1859C28.6362 41.1865 28.7595 41.1871 28.8865 41.1877C29.0551 41.1885 29.0551 41.1885 29.2271 41.1893C29.6146 41.2667 29.7547 41.4154 29.9998 41.7188C30.062 41.9531 30.062 41.9531 30.0583 42.1875C30.0596 42.2648 30.0608 42.3422 30.062 42.4219C29.9712 42.7638 29.8016 42.9015 29.531 43.125C29.2271 43.1857 29.2271 43.1857 28.8865 43.1873C28.7632 43.1879 28.6399 43.1885 28.5129 43.1891C28.3848 43.1873 28.2567 43.1855 28.1248 43.1836C27.9326 43.1863 27.9326 43.1863 27.7366 43.1891C27.6133 43.1885 27.49 43.1879 27.363 43.1873C27.2506 43.1867 27.1383 43.1862 27.0225 43.1857C26.635 43.1083 26.4948 42.9596 26.2498 42.6562C26.1875 42.4219 26.1875 42.4219 26.1912 42.1875C26.1893 42.0715 26.1893 42.0715 26.1875 41.9531C26.3491 41.3448 26.784 41.1905 27.363 41.1877Z" fill="#BE0B32"/>
</svg>
