<svg width="40" height="40" viewBox="0 0 40 40" fill="none" xmlns="http://www.w3.org/2000/svg">
<g clip-path="url(#clip0_413_4520)">
<path d="M20.6465 9.52342C20.771 9.62862 20.8937 9.7355 21.0155 9.84376C21.0859 9.9063 21.1563 9.96884 21.2288 10.0333C22.9371 11.6515 23.8541 13.929 23.9281 16.2599C23.9653 18.7848 22.9784 21.0116 21.2447 22.822C19.7334 24.3404 17.5952 25.2111 15.4686 25.3125C15.4035 25.3157 15.3383 25.319 15.2712 25.3223C12.7764 25.3823 10.5601 24.4131 8.74988 22.7344C7.09988 21.1314 6.21685 18.89 6.14395 16.6076C6.12099 14.1026 7.1003 11.8652 8.80848 10.0635C12.0211 6.98701 17.1739 6.68791 20.6465 9.52342ZM13.3443 9.69118C12.9363 10.1288 12.3436 10.7857 12.3436 11.4063C12.4897 11.4563 12.6363 11.5048 12.7831 11.5527C12.9054 11.5935 12.9054 11.5935 13.0303 11.6351C13.4964 11.7536 13.9769 11.807 14.453 11.875C14.453 10.9211 14.453 9.9672 14.453 8.98439C14.0504 8.98439 13.6245 9.42942 13.3443 9.69118ZM15.6249 8.98439C15.6249 9.9383 15.6249 10.8922 15.6249 11.875C16.4868 11.7638 16.4868 11.7638 17.2948 11.5527C17.3792 11.5252 17.4636 11.4976 17.5505 11.4691C17.6112 11.4484 17.6718 11.4276 17.7343 11.4063C17.6149 10.5752 16.8793 9.73472 16.2279 9.23952C15.9476 9.04676 15.9476 9.04676 15.6249 8.98439ZM18.0468 9.37501C18.1517 9.65558 18.2771 9.90526 18.4325 10.1611C18.4916 10.2592 18.4916 10.2592 18.5518 10.3592C18.6627 10.5327 18.7802 10.6966 18.9061 10.8594C19.0237 10.7852 19.1408 10.7102 19.2577 10.6348C19.3556 10.5722 19.3556 10.5722 19.4555 10.5084C19.5062 10.4696 19.557 10.4307 19.6093 10.3906C19.6093 10.3391 19.6093 10.2875 19.6093 10.2344C19.4534 10.124 19.2993 10.0245 19.1356 9.92677C19.0477 9.87289 18.9598 9.81901 18.8692 9.7635C18.6039 9.6091 18.331 9.49052 18.0468 9.37501ZM11.953 9.37501C11.764 9.47397 11.5753 9.5733 11.3866 9.67287C11.3333 9.70071 11.2801 9.72856 11.2252 9.75725C10.8265 9.96491 10.8265 9.96491 10.4686 10.2344C10.4686 10.286 10.4686 10.3375 10.4686 10.3906C10.6443 10.5152 10.6443 10.5152 10.8593 10.6348C10.9318 10.6769 11.0043 10.719 11.079 10.7623C11.1354 10.7944 11.1918 10.8264 11.2499 10.8594C11.2866 10.7897 11.3234 10.72 11.3613 10.6482C11.4104 10.5558 11.4595 10.4635 11.5087 10.3711C11.5567 10.2805 11.6047 10.1898 11.6542 10.0964C11.769 9.89296 11.8852 9.71273 12.0311 9.53126C12.0054 9.4797 11.9796 9.42814 11.953 9.37501ZM9.45301 11.1719C8.43936 12.2152 7.852 13.4456 7.49988 14.8438C7.48417 14.906 7.46846 14.9682 7.45228 15.0324C7.41107 15.3051 7.42176 15.5835 7.42176 15.8594C8.3241 15.8594 9.22645 15.8594 10.1561 15.8594C10.1739 15.6129 10.1916 15.3663 10.2098 15.1123C10.2823 14.2312 10.4546 13.3843 10.6608 12.5258C10.7049 12.3356 10.7437 12.1448 10.7811 11.9531C10.6333 11.8518 10.4851 11.751 10.3368 11.6504C10.2131 11.5661 10.2131 11.5661 10.0869 11.4801C9.87724 11.3491 9.68516 11.2537 9.45301 11.1719ZM20.4686 11.1719C20.0819 11.4297 19.6952 11.6875 19.2968 11.9531C19.3435 12.1417 19.3902 12.3302 19.4384 12.5244C19.5584 13.0261 19.6593 13.5288 19.7411 14.0381C19.7504 14.0945 19.7597 14.1509 19.7693 14.2089C19.8542 14.7607 19.8816 15.2967 19.9218 15.8594C20.8241 15.8594 21.7264 15.8594 22.6561 15.8594C22.6561 15.4037 22.6372 15.056 22.5243 14.6289C22.5102 14.5748 22.4962 14.5206 22.4817 14.4648C22.1722 13.3177 21.6128 12.1889 20.7811 11.3281C20.678 11.2766 20.5749 11.225 20.4686 11.1719ZM11.8749 12.5C11.4181 13.5658 11.328 14.7141 11.328 15.8594C12.3593 15.8594 13.3905 15.8594 14.453 15.8594C14.453 14.9313 14.453 14.0031 14.453 13.0469C14.2412 12.941 14.0438 12.9335 13.8085 12.9053C13.2966 12.8361 12.827 12.7162 12.333 12.5629C12.1104 12.4894 12.1104 12.4894 11.8749 12.5ZM17.6381 12.5751C17.5753 12.5926 17.5125 12.6101 17.4479 12.6282C17.3828 12.6471 17.3178 12.6661 17.2509 12.6856C16.8072 12.8136 16.3846 12.9146 15.9233 12.9513C15.7736 12.9617 15.7736 12.9617 15.6249 13.0469C15.6249 13.975 15.6249 14.9031 15.6249 15.8594C16.6561 15.8594 17.6874 15.8594 18.7499 15.8594C18.7499 15.2659 18.7461 14.7478 18.6473 14.1748C18.6369 14.1115 18.6265 14.0483 18.6158 13.9831C18.5345 13.5059 18.4274 13.0399 18.2811 12.5781C18.0353 12.4988 17.8851 12.5034 17.6381 12.5751ZM7.42176 17.0313C7.42176 17.5403 7.45143 17.8861 7.57801 18.3594C7.59514 18.4236 7.61227 18.4879 7.62993 18.5541C7.97147 19.7597 8.62359 20.7882 9.45301 21.7188C9.75382 21.6113 9.99064 21.4714 10.2489 21.2842C10.6132 21.0215 10.6132 21.0215 10.7811 20.9375C10.7613 20.8598 10.7415 20.782 10.721 20.7019C10.5649 20.0746 10.4331 19.448 10.3368 18.8086C10.3275 18.7479 10.3182 18.6871 10.3086 18.6245C10.2319 18.0925 10.1976 17.5707 10.1561 17.0313C9.25379 17.0313 8.35145 17.0313 7.42176 17.0313ZM11.328 17.0313C11.328 17.6869 11.3527 18.2533 11.4696 18.8867C11.489 19.0011 11.489 19.0011 11.5088 19.1178C11.5888 19.566 11.7009 19.9698 11.8749 20.3906C11.9497 20.3708 12.0245 20.351 12.1016 20.3305C12.2067 20.3033 12.3118 20.2762 12.4169 20.249C12.4654 20.2361 12.5139 20.2232 12.5638 20.2098C13.1901 20.0495 13.81 19.9572 14.453 19.8438C14.453 18.9156 14.453 17.9875 14.453 17.0313C13.4218 17.0313 12.3905 17.0313 11.328 17.0313ZM15.6249 17.0313C15.6249 17.9594 15.6249 18.8875 15.6249 19.8438C15.8908 19.8905 16.1566 19.9372 16.4305 19.9854C17.0309 20.0927 17.6207 20.2068 18.203 20.3906C18.4077 19.8956 18.5188 19.414 18.6083 18.8867C18.6221 18.8117 18.636 18.7367 18.6502 18.6594C18.748 18.0956 18.7499 17.6192 18.7499 17.0313C17.7186 17.0313 16.6874 17.0313 15.6249 17.0313ZM19.9218 17.0313C19.9024 17.2697 19.8831 17.5082 19.8632 17.7539C19.7881 18.5952 19.6365 19.4108 19.453 20.2344C19.4383 20.3008 19.4236 20.3672 19.4085 20.4357C19.3714 20.603 19.3341 20.7703 19.2968 20.9375C19.3552 20.9743 19.4136 21.011 19.4738 21.0489C19.5507 21.0975 19.6276 21.1462 19.7069 21.1963C19.783 21.2443 19.8592 21.2924 19.9376 21.3419C20.1208 21.4613 20.2958 21.585 20.4686 21.7188C21.2851 21.3763 21.8479 20.1591 22.1756 19.3718C22.3016 19.0393 22.4046 18.702 22.4999 18.3594C22.519 18.2909 22.5382 18.2224 22.5579 18.1519C22.6577 17.7526 22.6561 17.4688 22.6561 17.0313C21.7538 17.0313 20.8514 17.0313 19.9218 17.0313ZM15.6249 21.0156C15.6249 21.9695 15.6249 22.9235 15.6249 23.9063C16.7369 23.3503 17.2964 22.6019 17.8124 21.4844C16.7404 21.1329 16.7404 21.1329 15.6249 21.0156ZM13.8161 21.0785C13.7554 21.0919 13.6948 21.1053 13.6322 21.1191C13.5695 21.1333 13.5069 21.1475 13.4423 21.1621C13.3487 21.1825 13.3487 21.1825 13.2532 21.2033C12.9372 21.274 12.6405 21.3513 12.3436 21.4844C12.4494 22.2287 13.0523 22.9405 13.5936 23.4375C13.9923 23.7501 13.9923 23.7501 14.453 23.9063C14.453 22.9524 14.453 21.9985 14.453 21.0156C14.2135 21.0156 14.0438 21.0282 13.8161 21.0785ZM18.828 22.0313C18.7124 22.2363 18.5969 22.4414 18.4813 22.6465C18.4484 22.7048 18.4156 22.7631 18.3817 22.8232C18.3502 22.8791 18.3187 22.935 18.2863 22.9926C18.2573 23.0441 18.2282 23.0957 18.1983 23.1488C18.1456 23.2439 18.0954 23.3403 18.0468 23.4375C18.4009 23.3937 18.6634 23.244 18.9598 23.0567C19.0052 23.0292 19.0506 23.0017 19.0973 22.9733C19.3271 22.8304 19.4568 22.7287 19.6093 22.5C19.4938 22.4217 19.3783 22.3436 19.2626 22.2656C19.1982 22.2221 19.1339 22.1786 19.0676 22.1338C18.927 22.0243 18.927 22.0243 18.828 22.0313ZM11.1718 22.0313C10.8237 22.2633 10.8237 22.2633 10.4686 22.5C10.8256 22.9208 11.2976 23.2085 11.7968 23.4375C11.8741 23.4117 11.9514 23.386 12.0311 23.3594C11.9175 23.1672 11.8035 22.9751 11.6893 22.7832C11.641 22.7013 11.641 22.7013 11.5917 22.6178C11.5605 22.5654 11.5292 22.5131 11.4971 22.4591C11.4684 22.4108 11.4398 22.3626 11.4103 22.3128C11.3255 22.1744 11.3255 22.1744 11.1718 22.0313Z" fill="white"/>
<path d="M32.517 15.311C33.5404 16.0551 34.1223 17.0669 34.3222 18.3088C34.5623 20.0525 34.0551 21.7097 33.0075 23.1103C32.7839 23.3916 32.547 23.6068 32.2653 23.8281C32.2395 23.8797 32.2137 23.9312 32.1871 23.9844C32.2775 23.9943 32.3679 24.0043 32.461 24.0145C32.7899 24.0558 33.1093 24.1245 33.4307 24.2047C33.4879 24.2187 33.545 24.2327 33.6039 24.2472C33.7877 24.2925 33.9713 24.3385 34.1549 24.3847C34.249 24.4083 34.249 24.4083 34.3449 24.4324C38.2551 25.4172 38.2551 25.4172 39.111 26.6702C39.7136 27.7877 39.694 29.071 39.7264 30.3066C39.731 30.4818 39.7361 30.6569 39.7413 30.832C39.7765 32.072 39.7686 33.3093 39.7362 34.5493C39.7311 34.747 39.7264 34.9448 39.7218 35.1425C39.6511 38.01 39.6511 38.01 38.6715 38.9844C37.8013 39.7141 36.8891 39.7223 35.809 39.7203C35.6611 39.7209 35.5132 39.7215 35.3653 39.7223C34.965 39.724 34.5647 39.7243 34.1644 39.7241C33.8295 39.7241 33.4946 39.7248 33.1597 39.7254C32.3692 39.7269 31.5788 39.7271 30.7883 39.7266C29.9744 39.7261 29.1606 39.7279 28.3467 39.7308C27.6466 39.7332 26.9464 39.7341 26.2462 39.7338C25.8286 39.7336 25.4111 39.734 24.9935 39.7359C24.6006 39.7377 24.2078 39.7375 23.8148 39.736C23.6712 39.7357 23.5276 39.7361 23.384 39.7372C22.315 39.745 21.3481 39.6171 20.5465 38.8281C20.0135 38.1946 19.7581 37.4886 19.7188 36.6666C19.7157 36.609 19.7127 36.5513 19.7096 36.492C19.6763 35.8039 19.6743 35.1158 19.674 34.4272C19.6738 34.2857 19.6735 34.1442 19.6732 34.0027C19.6728 33.7082 19.6726 33.4138 19.6727 33.1193C19.6727 32.7467 19.6716 32.3741 19.6703 32.0014C19.6694 31.7098 19.6692 31.4181 19.6693 31.1265C19.6692 30.9893 19.6688 30.8521 19.6682 30.7149C19.6653 29.9826 19.6867 29.2593 19.7582 28.53C19.7644 28.4658 19.7707 28.4016 19.7771 28.3355C19.8775 27.4023 20.152 26.6575 20.8679 26.0263C21.9765 25.186 23.3663 24.8726 24.6871 24.5312C24.834 24.493 24.834 24.493 24.9838 24.4541C25.2834 24.3763 25.5834 24.2998 25.8834 24.2236C26.0246 24.1877 26.0246 24.1877 26.1685 24.151C26.2562 24.1291 26.3439 24.1073 26.4343 24.0848C26.5119 24.0653 26.5894 24.0459 26.6694 24.0259C26.8746 23.9844 26.8746 23.9844 27.1871 23.9844C27.154 23.9465 27.1209 23.9086 27.0867 23.8696C26.9897 23.7587 26.8929 23.6476 26.7962 23.5364C26.6996 23.4267 26.6015 23.3182 26.5014 23.2117C25.4391 22.065 24.9597 20.5306 25.0015 18.9817C25.0663 17.6863 25.4952 16.5185 26.4547 15.6222C28.0801 14.2776 30.7542 14.187 32.517 15.311ZM27.0309 16.7187C26.3579 17.5433 26.0845 18.5517 26.1868 19.6116C26.3568 20.8848 26.8538 22.1125 27.8829 22.9355C28.5698 23.4032 29.2793 23.6708 30.1138 23.5571C31.0356 23.3642 31.8064 22.7996 32.3434 22.0312C33.0838 20.7455 33.4164 19.4407 33.0447 17.9748C32.785 17.1564 32.2862 16.5307 31.5362 16.1163C30.1104 15.4274 28.1885 15.6148 27.0309 16.7187ZM29.3746 24.7656C29.1868 25.9116 29.0059 27.0586 28.8331 28.207C28.7527 28.7404 28.6701 29.2732 28.5821 29.8054C28.497 30.3198 28.4184 30.8348 28.3435 31.3509C28.314 31.5467 28.2825 31.7423 28.2488 31.9374C28.0176 33.2072 28.0176 33.2072 28.46 34.3739C28.6344 34.6012 28.8176 34.815 29.0149 35.0226C29.1846 35.2035 29.3295 35.3966 29.4772 35.5957C29.5469 35.6838 29.6167 35.7718 29.6871 35.8594C29.9556 35.5283 30.2127 35.1895 30.4684 34.8486C30.5091 34.7947 30.5498 34.7408 30.5917 34.6852C30.6316 34.6321 30.6714 34.5789 30.7125 34.5242C30.766 34.4531 30.766 34.4531 30.8206 34.3805C30.859 34.3271 30.8975 34.2737 30.9371 34.2187C30.9947 34.1508 31.0522 34.0829 31.1115 34.0129C31.3049 33.6449 31.2494 33.3893 31.1853 32.9886C31.1692 32.8742 31.1692 32.8742 31.1529 32.7576C31.1169 32.5038 31.0783 32.2505 31.0397 31.9971C31.014 31.8193 30.9884 31.6415 30.9631 31.4637C30.908 31.0796 30.8517 30.6956 30.7948 30.3118C30.6967 29.6494 30.6025 28.9866 30.5087 28.3237C30.4765 28.0966 30.4443 27.8695 30.4121 27.6425C30.4043 27.5869 30.3964 27.5313 30.3883 27.4741C30.2602 26.5711 30.1299 25.6683 29.9996 24.7656C29.7934 24.7656 29.5871 24.7656 29.3746 24.7656ZM27.6782 25.0076C27.6014 25.0265 27.5246 25.0453 27.4455 25.0647C27.3618 25.0854 27.2782 25.1062 27.192 25.1275C27.1054 25.149 27.0188 25.1704 26.9296 25.1925C26.7451 25.2382 26.5607 25.2841 26.3763 25.33C26.099 25.399 25.8216 25.4671 25.5441 25.5353C23.1195 26.0005 23.1195 26.0005 21.2496 27.4219C21.0561 27.8225 20.9657 28.1701 20.9236 28.6115C20.9143 28.703 20.9143 28.703 20.9047 28.7962C20.8393 29.4927 20.8379 30.1879 20.841 30.8868C20.8411 31.0272 20.8411 31.1676 20.8411 31.308C20.8412 31.5996 20.8419 31.8912 20.8429 32.1828C20.8443 32.5529 20.8446 32.9231 20.8445 33.2932C20.8445 33.5822 20.845 33.8712 20.8455 34.1603C20.8458 34.2966 20.8459 34.433 20.846 34.5693C20.8466 35.23 20.8533 35.8899 20.8882 36.5498C20.8959 36.6959 20.8959 36.6959 20.9038 36.8449C20.9675 37.3506 21.1746 37.7758 21.5524 38.1201C22.0441 38.4446 22.319 38.5279 22.9098 38.5214C23.0578 38.5201 23.0578 38.5201 23.2089 38.5189C23.2842 38.5178 23.3595 38.5167 23.4371 38.5156C23.4381 38.3811 23.4381 38.3811 23.4391 38.2438C23.4451 37.4 23.452 36.5561 23.4596 35.7123C23.4635 35.2784 23.4671 34.8446 23.4701 34.4107C23.473 33.9923 23.4766 33.5739 23.4807 33.1555C23.4822 32.9956 23.4834 32.8356 23.4843 32.6757C23.4856 32.4523 23.4879 32.229 23.4904 32.0056C23.4905 31.939 23.4907 31.8723 23.4909 31.8037C23.4974 31.3459 23.4974 31.3459 23.6715 31.1719C24.1155 31.1296 24.1155 31.1296 24.2965 31.1719C24.5114 31.3717 24.5318 31.4928 24.562 31.7889C24.5641 31.9143 24.5649 32.0398 24.5647 32.1653C24.5659 32.2699 24.5659 32.2699 24.5671 32.3766C24.5694 32.6021 24.5702 32.8275 24.5709 33.053C24.5721 33.1923 24.5734 33.3316 24.5748 33.4709C24.5793 33.9871 24.5818 34.5033 24.5846 35.0195C24.5927 36.1732 24.6007 37.3269 24.609 38.5156C27.9606 38.5156 31.3121 38.5156 34.7653 38.5156C34.7817 36.2449 34.7817 36.2449 34.7956 33.9742C34.7995 33.5346 34.7995 33.5346 34.8016 33.3287C34.8029 33.1852 34.8037 33.0416 34.8041 32.8981C34.8049 32.6804 34.8071 32.4628 34.8096 32.2451C34.8095 32.1814 34.8094 32.1176 34.8093 32.052C34.8152 31.6951 34.8515 31.4538 35.0778 31.1719C35.3019 31.1084 35.4657 31.1455 35.7028 31.1719C35.9409 31.41 35.8831 31.686 35.8839 32.0056C35.8851 32.1108 35.8851 32.1108 35.8863 32.2181C35.8887 32.4506 35.89 32.6831 35.8914 32.9156C35.8928 33.0766 35.8944 33.2375 35.896 33.3984C35.9 33.8225 35.9031 34.2466 35.906 34.6707C35.9091 35.1032 35.9131 35.5358 35.917 35.9683C35.9246 36.8174 35.9312 37.6665 35.9371 38.5156C36.1113 38.5189 36.2854 38.5213 36.4596 38.5232C36.5566 38.5247 36.6536 38.5261 36.7535 38.5275C37.275 38.5051 37.6453 38.3259 37.9977 37.9443C38.6599 37.0748 38.5303 35.912 38.5545 34.868C38.5592 34.6694 38.5643 34.4708 38.5694 34.2721C38.5996 33.0732 38.6007 31.8758 38.5686 30.6768C38.5656 30.5607 38.5629 30.4447 38.5604 30.3286C38.5834 28.5123 38.5834 28.5123 37.778 26.9775C36.452 25.9307 34.4674 25.6808 32.8659 25.2783C32.7953 25.2605 32.7248 25.2428 32.6522 25.2245C32.4504 25.1738 32.2484 25.1236 32.0465 25.0735C31.9853 25.0582 31.9241 25.0428 31.861 25.027C31.6254 24.9691 31.4151 24.9219 31.1715 24.9219C31.2374 25.4145 31.3035 25.907 31.3696 26.3996C31.3938 26.5797 31.4179 26.7598 31.4421 26.9399C31.5827 27.9884 31.725 29.0366 31.8719 30.0842C31.8937 30.2402 31.9156 30.3962 31.9374 30.5522C32.022 31.1578 32.022 31.1578 32.1074 31.7633C32.1473 32.0442 32.1866 32.3252 32.2259 32.6062C32.2378 32.6892 32.2498 32.7722 32.2621 32.8577C32.4333 34.0936 32.4333 34.0936 32.1542 34.4824C32.1131 34.541 32.0721 34.5996 32.0298 34.66C31.9627 34.7509 31.9627 34.7509 31.8942 34.8437C31.8487 34.9078 31.8031 34.9718 31.7563 35.0377C31.6152 35.2349 31.472 35.4302 31.3278 35.625C31.2832 35.6853 31.2386 35.7456 31.1927 35.8077C30.9597 36.1215 30.7241 36.433 30.4865 36.7433C30.393 36.8712 30.3086 37.0056 30.2246 37.1399C30.0778 37.3437 30.0778 37.3437 29.8043 37.417C29.386 37.4244 29.386 37.4244 29.2184 37.3437C29.1644 37.2405 29.1127 37.1362 29.0621 37.0312C28.9154 36.7992 28.7586 36.5739 28.6032 36.3476C28.5585 36.2824 28.5139 36.2172 28.4679 36.1501C28.1234 35.6505 27.7659 35.1621 27.3978 34.6798C26.8647 33.9813 27.0772 33.2605 27.1875 32.4282C27.2423 32.026 27.299 31.6241 27.3559 31.2222C27.3804 31.0474 27.4048 30.8726 27.4291 30.6979C27.4929 30.2411 27.5571 29.7843 27.6214 29.3276C27.7247 28.5937 27.8274 27.8597 27.93 27.1258C27.9658 26.8697 28.0019 26.6138 28.038 26.3578C28.0599 26.2018 28.0817 26.0458 28.1036 25.8898C28.1137 25.8186 28.1238 25.7474 28.1342 25.674C28.1433 25.6089 28.1524 25.5437 28.1618 25.4766C28.1697 25.4201 28.1777 25.3635 28.1859 25.3052C28.2072 25.1424 28.2072 25.1424 28.2028 24.9219C28.0157 24.9219 27.8601 24.9629 27.6782 25.0076Z" fill="white"/>
<path d="M24.1965 0.572518C24.7752 0.99586 25.1047 1.50741 25.3126 2.18751C25.3264 2.23186 25.3403 2.27622 25.3545 2.32192C25.4027 2.55909 25.3994 2.78416 25.3983 3.02613C25.3981 3.12734 25.3978 3.22855 25.3976 3.33283C25.3969 3.43934 25.3962 3.54585 25.3956 3.65235C25.3952 3.76008 25.3948 3.86781 25.3945 3.97553C25.3936 4.2389 25.3923 4.50227 25.3907 4.76563C25.4596 4.764 25.5284 4.76236 25.5994 4.76067C25.859 4.75529 26.1186 4.7514 26.3782 4.74847C26.4898 4.74691 26.6014 4.74479 26.713 4.74206C27.8005 4.71612 28.66 4.93994 29.5313 5.62501C30.1082 6.23245 30.3215 6.85974 30.3239 7.68664C30.3243 7.7717 30.3243 7.7717 30.3247 7.85847C30.3254 8.04508 30.3256 8.23168 30.3257 8.41828C30.3259 8.54834 30.3262 8.6784 30.3265 8.80847C30.3269 9.08067 30.3271 9.35287 30.327 9.62508C30.327 9.97387 30.3281 10.3226 30.3294 10.6714C30.3303 10.9398 30.3305 11.2083 30.3304 11.4767C30.3305 11.6053 30.3309 11.7339 30.3315 11.8625C30.3322 12.0422 30.332 12.2219 30.3315 12.4016C30.3317 12.5038 30.3318 12.606 30.3319 12.7114C30.3138 12.9522 30.2893 13.0833 30.1563 13.2813C29.9561 13.4314 29.8569 13.4383 29.6046 13.4229C29.3579 13.3546 29.2858 13.3301 29.1407 13.125C29.1116 12.8786 29.1116 12.8786 29.1119 12.5704C29.1114 12.4862 29.1114 12.4862 29.111 12.4002C29.1105 12.2782 29.1105 12.1562 29.111 12.0342C29.1117 11.8407 29.1109 11.6472 29.1097 11.4537C29.1066 10.9036 29.1065 10.3535 29.1066 9.8033C29.1066 9.46667 29.1051 9.13006 29.1028 8.79343C29.1019 8.60353 29.1029 8.41369 29.1039 8.22379C29.1025 7.63056 29.0976 7.14612 28.7501 6.64063C28.5904 6.47924 28.5904 6.47924 28.4083 6.37696C28.3228 6.32288 28.3228 6.32288 28.2355 6.26771C27.8695 6.08175 27.5402 5.99612 27.1302 5.99575C26.9982 5.99507 26.9982 5.99507 26.8635 5.99437C26.7197 5.99481 26.7197 5.99481 26.5729 5.99527C26.4704 5.99497 26.368 5.99467 26.2624 5.99436C25.9784 5.99356 25.6944 5.99373 25.4105 5.99406C25.104 5.99425 24.7976 5.99355 24.4912 5.99297C23.8911 5.99197 23.2909 5.99183 22.6908 5.99201C22.2031 5.99215 21.7154 5.99201 21.2277 5.99168C21.1583 5.99164 21.0889 5.99159 21.0174 5.99154C20.8764 5.99145 20.7354 5.99135 20.5944 5.99126C19.2723 5.99041 17.9501 5.99058 16.6279 5.99105C15.4181 5.99146 14.2082 5.99058 12.9984 5.98909C11.7562 5.98758 10.5141 5.98693 9.27194 5.98723C8.57451 5.98738 7.87709 5.98718 7.17966 5.98608C6.58603 5.98515 5.9924 5.98503 5.39877 5.98598C5.09586 5.98644 4.79297 5.98653 4.49006 5.98559C4.16181 5.98459 3.83359 5.9854 3.50534 5.9864C3.40945 5.98582 3.31355 5.98524 3.21475 5.98465C2.6227 5.98844 2.25034 6.03098 1.81647 6.46485C1.52544 6.88523 1.46493 7.29434 1.46455 7.79826C1.46418 7.87467 1.46418 7.87467 1.4638 7.95262C1.46315 8.12263 1.46361 8.29261 1.46407 8.46262C1.46383 8.58601 1.46353 8.7094 1.46316 8.83279C1.46236 9.17136 1.46253 9.50992 1.46286 9.84848C1.46306 10.2138 1.46235 10.5792 1.46177 10.9445C1.46077 11.66 1.46063 12.3756 1.46082 13.0911C1.46096 13.6727 1.46082 14.2543 1.46048 14.8359C1.46044 14.9187 1.46039 15.0014 1.46034 15.0867C1.46025 15.2548 1.46016 15.423 1.46006 15.5911C1.45921 17.1681 1.45938 18.745 1.45985 20.3219C1.46026 21.7645 1.45938 23.2071 1.4579 24.6497C1.45638 26.131 1.45573 27.6123 1.45603 29.0936C1.45618 29.9252 1.45598 30.7569 1.45488 31.5885C1.45395 32.2964 1.45384 33.0044 1.45479 33.7124C1.45525 34.0735 1.45533 34.4347 1.4544 34.7958C1.45355 35.1266 1.45379 35.4574 1.45488 35.7882C1.45509 35.9077 1.4549 36.0272 1.45428 36.1467C1.43309 37.1613 1.43309 37.1613 1.85309 38.0591C1.89901 38.0937 1.94493 38.1284 1.99225 38.1641C2.03817 38.2003 2.08409 38.2366 2.13141 38.2739C2.44505 38.4735 2.76489 38.449 3.12229 38.4488C3.1864 38.4491 3.2505 38.4494 3.31655 38.4497C3.5321 38.4505 3.74765 38.4508 3.96321 38.4511C4.11744 38.4516 4.27168 38.4521 4.42592 38.4527C4.75842 38.4538 5.09093 38.4547 5.42344 38.4555C5.94896 38.4567 6.47446 38.4585 6.99997 38.4605C8.49444 38.4661 9.98891 38.4708 11.4834 38.4748C12.3085 38.477 13.1336 38.4797 13.9587 38.4831C14.4813 38.4852 15.004 38.4866 15.5266 38.4875C15.8515 38.4882 16.1764 38.4895 16.5013 38.4911C16.6522 38.4917 16.8031 38.492 16.9541 38.492C17.1597 38.4921 17.3654 38.4931 17.571 38.4944C17.6611 38.4941 17.6611 38.4941 17.7529 38.4938C18.0426 38.4966 18.2747 38.5004 18.5157 38.6719C18.6374 38.9153 18.6379 39.1879 18.5938 39.4531C18.5146 39.5781 18.5146 39.5781 18.3594 39.6875C18.1423 39.7107 17.9427 39.7195 17.7255 39.7178C17.6602 39.7182 17.5948 39.7186 17.5274 39.7191C17.3076 39.7202 17.0877 39.7196 16.8679 39.7191C16.7105 39.7195 16.5532 39.7201 16.3959 39.7207C15.9678 39.7221 15.5397 39.722 15.1116 39.7216C14.7542 39.7213 14.3968 39.7218 14.0394 39.7223C13.1958 39.7234 12.3523 39.7232 11.5087 39.7224C10.639 39.7215 9.76936 39.7226 8.89969 39.7247C8.15293 39.7264 7.40617 39.7269 6.65941 39.7264C6.21348 39.7262 5.76755 39.7264 5.32162 39.7277C4.90179 39.7289 4.48199 39.7286 4.06216 39.7271C3.90842 39.7269 3.75467 39.7271 3.60092 39.7279C2.54295 39.7331 1.73675 39.6886 0.93573 38.9215C0.178192 38.0801 0.211166 37.0267 0.214595 35.954C0.214414 35.8304 0.214166 35.7069 0.213856 35.5833C0.213206 35.2458 0.213525 34.9082 0.214011 34.5707C0.214365 34.2059 0.213818 33.8411 0.213388 33.4763C0.212695 32.7624 0.212844 32.0485 0.213298 31.3346C0.213651 30.7543 0.213697 30.174 0.213527 29.5937C0.213503 29.511 0.21348 29.4283 0.213455 29.3431C0.213405 29.1752 0.213354 29.0072 0.213303 28.8392C0.212857 27.2651 0.213368 25.691 0.214209 24.1169C0.214907 22.767 0.214786 21.4171 0.214065 20.0673C0.213229 18.4987 0.212899 16.9301 0.213379 15.3615C0.213429 15.1942 0.213478 15.0268 0.213527 14.8595C0.213551 14.7771 0.213576 14.6948 0.213601 14.61C0.213735 14.0305 0.213508 13.4511 0.21314 12.8716C0.212702 12.1652 0.212822 11.4588 0.213653 10.7524C0.214063 10.3922 0.214226 10.032 0.213708 9.67173C0.21324 9.34162 0.2135 9.01153 0.214328 8.68143C0.214501 8.56236 0.214415 8.44329 0.214034 8.32422C0.210822 7.23503 0.255045 6.31536 0.998901 5.46571C1.58372 4.9013 2.36413 4.74177 3.14124 4.60236C4.09408 4.4207 5.04058 4.21452 5.9873 4.00361C6.06599 3.9861 6.14467 3.96859 6.22574 3.95055C6.64681 3.85682 7.06784 3.76292 7.48884 3.66891C8.03318 3.54737 8.57763 3.42635 9.12209 3.30537C10.8874 2.91293 12.6523 2.51901 14.4164 2.12131C15.3203 1.91754 16.2244 1.71445 17.1286 1.51177C17.7318 1.37652 18.3348 1.24057 18.9376 1.10374C19.4021 0.998378 19.8669 0.894149 20.3317 0.790315C20.5228 0.747441 20.7138 0.704194 20.9047 0.660541C23.374 0.0963664 23.374 0.0963664 24.1965 0.572518ZM22.1135 1.60599C22.0543 1.61907 21.9951 1.63215 21.934 1.64562C21.7372 1.68926 21.5406 1.73384 21.3439 1.77842C21.2022 1.81003 21.0605 1.84159 20.9188 1.87309C20.5351 1.95853 20.1517 2.04478 19.7683 2.13119C19.3672 2.22144 18.9659 2.31093 18.5647 2.40051C17.8053 2.57014 17.0462 2.74045 16.2871 2.911C15.4226 3.10518 14.558 3.2986 13.6933 3.49197C11.9152 3.88964 10.1372 4.28826 8.35944 4.68751C8.35944 4.71329 8.35944 4.73907 8.35944 4.76563C13.593 4.76563 18.8266 4.76563 24.2188 4.76563C24.3662 3.02127 24.3662 3.02127 23.6524 1.67481C23.4189 1.46157 23.214 1.47001 22.9059 1.47425C22.6358 1.49021 22.3763 1.54547 22.1135 1.60599Z" fill="white"/>
<path d="M6.95238 31.2197C7.0502 31.2189 7.14801 31.2182 7.24879 31.2174C7.35739 31.2177 7.466 31.2181 7.5746 31.2184C7.68881 31.218 7.80302 31.2174 7.91723 31.2168C8.22764 31.2154 8.53802 31.2155 8.84843 31.2159C9.10743 31.2162 9.36643 31.2157 9.62543 31.2152C10.2364 31.2141 10.8473 31.2143 11.4583 31.2151C12.0889 31.216 12.7194 31.2149 13.35 31.2129C13.8911 31.2111 14.4323 31.2106 14.9734 31.2111C15.2967 31.2113 15.62 31.2111 15.9433 31.2098C16.2474 31.2086 16.5513 31.2089 16.8554 31.2104C16.967 31.2107 17.0786 31.2104 17.1902 31.2096C17.3425 31.2086 17.4948 31.2096 17.6471 31.2108C17.7323 31.2109 17.8176 31.2109 17.9054 31.2109C18.1784 31.2595 18.2704 31.345 18.4375 31.5625C18.494 31.8574 18.4672 31.9838 18.3077 32.2384C17.9531 32.5704 17.4081 32.476 16.9545 32.4724C16.8419 32.4729 16.7294 32.4736 16.6168 32.4745C16.3115 32.4763 16.0064 32.4756 15.7011 32.4743C15.3815 32.4734 15.0619 32.4743 14.7423 32.4749C14.2056 32.4756 13.6689 32.4747 13.1322 32.4728C12.5119 32.4707 11.8917 32.4714 11.2714 32.4735C10.7386 32.4753 10.2058 32.4755 9.67304 32.4745C9.35493 32.4739 9.03683 32.4738 8.71872 32.4751C8.41962 32.4762 8.12058 32.4755 7.82149 32.4732C7.7118 32.4727 7.6021 32.4728 7.49242 32.4737C6.56034 32.4803 6.56034 32.4803 6.29891 32.2411C6.17188 32.0312 6.17188 32.0312 6.17188 31.748C6.31013 31.2814 6.47736 31.2208 6.95238 31.2197Z" fill="white"/>
<path d="M7.03344 28.3285C7.17819 28.3272 7.17819 28.3272 7.32586 28.3258C7.43257 28.3261 7.53929 28.3263 7.64601 28.3265C7.75857 28.326 7.87112 28.3253 7.98368 28.3245C8.28924 28.3228 8.59479 28.3226 8.90035 28.3227C9.15547 28.3227 9.41058 28.3221 9.66569 28.3214C10.2676 28.3199 10.8694 28.3197 11.4713 28.3202C12.0921 28.3207 12.713 28.3189 13.3338 28.316C13.8669 28.3136 14.4 28.3128 14.9332 28.3131C15.2515 28.3132 15.5699 28.3128 15.8883 28.3109C16.1877 28.3091 16.487 28.3093 16.7865 28.3109C16.8963 28.3111 17.0061 28.3107 17.1159 28.3096C18.0492 28.3008 18.0492 28.3008 18.3105 28.54C18.4375 28.75 18.4375 28.75 18.4375 29.0332C18.3351 29.3786 18.3351 29.3786 18.125 29.5312C17.9167 29.5611 17.9167 29.5611 17.6605 29.562C17.5634 29.5629 17.4664 29.5638 17.3664 29.5647C17.2587 29.5645 17.1509 29.5643 17.0432 29.564C16.9299 29.5646 16.8166 29.5653 16.7032 29.566C16.3953 29.5678 16.0873 29.568 15.7793 29.5678C15.5222 29.5678 15.2652 29.5685 15.0081 29.5692C14.4017 29.5707 13.7952 29.5709 13.1887 29.5704C12.563 29.5698 11.9374 29.5716 11.3117 29.5745C10.7746 29.5769 10.2375 29.5778 9.70041 29.5775C9.37959 29.5773 9.05879 29.5778 8.73796 29.5797C8.43618 29.5814 8.13445 29.5813 7.83266 29.5797C7.72196 29.5794 7.61126 29.5798 7.50056 29.5809C6.55968 29.5898 6.55968 29.5898 6.29862 29.3506C6.17188 29.1406 6.17188 29.1406 6.16699 28.8574C6.31427 28.3896 6.56847 28.3301 7.03344 28.3285Z" fill="white"/>
</g>
<defs>
<clipPath id="clip0_413_4520">
<rect width="40" height="40" fill="white"/>
</clipPath>
</defs>
</svg>
