<svg width="24" height="24" viewBox="0 0 24 24" fill="none" xmlns="http://www.w3.org/2000/svg">
<g clip-path="url(#clip0_460_519)">
<path d="M1.99661 3.55043C2.04934 3.55018 2.04934 3.55018 2.10313 3.54993C2.22102 3.54949 2.3389 3.54972 2.45679 3.54995C2.54213 3.54978 2.62746 3.54956 2.7128 3.54931C2.94739 3.54873 3.18199 3.54875 3.41658 3.54886C3.66956 3.54888 3.92254 3.54836 4.17552 3.54791C4.67121 3.54714 5.1669 3.54688 5.6626 3.54683C6.06552 3.54678 6.46845 3.54659 6.87138 3.54629C8.01363 3.54547 9.15588 3.54503 10.2981 3.5451C10.3597 3.54511 10.4213 3.54511 10.4848 3.54511C10.5773 3.54512 10.5773 3.54512 10.6716 3.54513C11.671 3.54516 12.6703 3.54427 13.6696 3.54295C14.6956 3.5416 15.7215 3.54095 16.7475 3.54103C17.3236 3.54106 17.8996 3.54081 18.4757 3.5398C18.9662 3.53894 19.4567 3.53874 19.9472 3.53938C20.1974 3.53968 20.4476 3.53969 20.6978 3.53887C20.927 3.53814 21.1562 3.53827 21.3854 3.53909C21.4682 3.53923 21.551 3.53906 21.6338 3.53854C22.3333 3.53441 22.8511 3.65154 23.3899 4.12499C23.6112 4.3603 23.7834 4.62262 23.9055 4.92186C23.9215 4.95895 23.9375 4.99604 23.954 5.03425C24.0181 5.27358 24.0125 5.50279 24.0118 5.74954C24.012 5.80492 24.0122 5.86031 24.0124 5.91738C24.0129 6.07074 24.013 6.22409 24.0129 6.37745C24.0129 6.54301 24.0134 6.70856 24.0138 6.87412C24.0146 7.19836 24.0149 7.52259 24.0149 7.84684C24.015 8.1105 24.0151 8.37416 24.0154 8.63782C24.0163 9.38579 24.0167 10.1338 24.0166 10.8817C24.0166 10.9422 24.0166 10.9422 24.0166 11.0039C24.0166 11.0442 24.0166 11.0846 24.0166 11.1262C24.0166 11.7799 24.0175 12.4337 24.0188 13.0875C24.0201 13.7592 24.0208 14.4309 24.0207 15.1026C24.0207 15.4796 24.0209 15.8565 24.0219 16.2334C24.0228 16.5544 24.023 16.8754 24.0224 17.1964C24.0221 17.3601 24.022 17.5237 24.0229 17.6874C24.0236 17.8651 24.0231 18.0429 24.0224 18.2207C24.0229 18.2719 24.0234 18.3231 24.0239 18.3758C24.0187 18.9506 23.8141 19.3986 23.4367 19.8281C23.0351 20.2059 22.5591 20.4529 22.0019 20.4495C21.9667 20.4497 21.9316 20.4499 21.8954 20.45C21.7775 20.4505 21.6596 20.4503 21.5417 20.45C21.4564 20.4502 21.371 20.4504 21.2857 20.4507C21.0511 20.4512 20.8165 20.4512 20.5819 20.4511C20.3289 20.4511 20.076 20.4516 19.823 20.4521C19.3273 20.4528 18.8316 20.4531 18.3359 20.4531C17.933 20.4532 17.53 20.4534 17.1271 20.4537C15.9849 20.4545 14.8426 20.4549 13.7004 20.4549C13.6388 20.4549 13.5772 20.4549 13.5137 20.4549C13.4521 20.4549 13.3904 20.4549 13.3269 20.4548C12.3275 20.4548 11.3282 20.4557 10.3289 20.457C9.30293 20.4584 8.27695 20.459 7.25098 20.4589C6.67492 20.4589 6.09888 20.4592 5.52282 20.4602C5.03232 20.461 4.54183 20.4612 4.05133 20.4606C3.80111 20.4603 3.5509 20.4603 3.30068 20.4611C3.07146 20.4618 2.84227 20.4617 2.61305 20.4609C2.53028 20.4607 2.44751 20.4609 2.36473 20.4614C1.66519 20.4656 1.14744 20.3484 0.608624 19.875C0.387272 19.6397 0.215127 19.3774 0.0929992 19.0781C0.0769922 19.041 0.0609852 19.0039 0.0444931 18.9657C-0.0196312 18.7264 -0.013979 18.4972 -0.0132864 18.2504C-0.0134987 18.1951 -0.0137111 18.1397 -0.0139299 18.0826C-0.0144202 17.9292 -0.0144912 17.7759 -0.0143805 17.6225C-0.0143614 17.457 -0.014879 17.2914 -0.0153234 17.1259C-0.0161016 16.8016 -0.0163597 16.4774 -0.016412 16.1531C-0.0164566 15.8895 -0.0166494 15.6258 -0.0169465 15.3622C-0.017772 14.6142 -0.0182045 13.8662 -0.0181342 13.1182C-0.0181304 13.0779 -0.0181268 13.0376 -0.0181229 12.9961C-0.0181191 12.9557 -0.0181152 12.9154 -0.0181113 12.8738C-0.0180732 12.22 -0.0189699 11.5663 -0.0202921 10.9125C-0.0216399 10.2408 -0.0222862 9.56907 -0.0222052 8.89735C-0.0221741 8.52041 -0.02243 8.14348 -0.0234407 7.76654C-0.0242958 7.44553 -0.0244969 7.12453 -0.0238616 6.80353C-0.0235562 6.63988 -0.0235474 6.47626 -0.0243635 6.31261C-0.0250883 6.13483 -0.0246511 5.95708 -0.0239294 5.7793C-0.0244116 5.7281 -0.0248938 5.6769 -0.0253906 5.62415C-0.0202499 5.04936 0.184359 4.60135 0.561749 4.17186C0.963417 3.79403 1.43942 3.54711 1.99661 3.55043ZM2.48362 4.96874C2.66651 5.1821 2.84706 5.38585 3.04531 5.58325C3.08547 5.62352 3.08547 5.62352 3.12644 5.66461C3.21528 5.75362 3.30427 5.84247 3.39327 5.93132C3.45737 5.99548 3.52145 6.05965 3.58553 6.12383C3.75898 6.29749 3.93257 6.47101 4.1062 6.64449C4.28827 6.82644 4.47023 7.0085 4.6522 7.19055C4.95781 7.49625 5.26353 7.80185 5.56929 8.10739C5.92224 8.46008 6.27501 8.81294 6.6277 9.16589C6.93105 9.46945 7.23449 9.77291 7.538 10.0763C7.71904 10.2573 7.90005 10.4383 8.08097 10.6193C8.25116 10.7897 8.42146 10.9599 8.59184 11.13C8.65416 11.1922 8.71644 11.2545 8.77868 11.3169C9.19316 11.7334 9.19316 11.7334 9.63048 12.1256C9.74164 12.2213 9.84112 12.3269 9.94151 12.4336C10.5613 13.0813 11.0892 13.614 12.0461 13.6406C12.8681 13.6154 13.4059 13.1245 13.9387 12.5625C14.0239 12.4743 14.1093 12.3863 14.1948 12.2984C14.2473 12.2442 14.2996 12.1898 14.3516 12.1351C14.4741 12.0072 14.5986 11.8867 14.7341 11.7726C15.036 11.5096 15.3147 11.2223 15.5974 10.9392C15.6621 10.8746 15.7268 10.8099 15.7915 10.7453C15.9663 10.5707 16.1409 10.396 16.3156 10.2212C16.4984 10.0383 16.6814 9.85539 16.8643 9.67251C17.1711 9.3658 17.4778 9.059 17.7845 8.75213C18.1394 8.39691 18.4946 8.04187 18.8498 7.68691C19.1548 7.38209 19.4597 7.07719 19.7646 6.77221C19.9467 6.59005 20.1288 6.40793 20.311 6.22589C20.4819 6.05509 20.6527 5.88417 20.8235 5.71317C20.8863 5.65026 20.9492 5.58739 21.0121 5.52456C21.0976 5.43921 21.183 5.35371 21.2683 5.26818C21.2935 5.24301 21.3188 5.21783 21.3449 5.19189C21.4625 5.09651 21.4625 5.09651 21.5149 4.96874C15.2346 4.96874 8.95425 4.96874 2.48362 4.96874ZM1.4055 6.04686C1.4055 9.99139 1.4055 13.9359 1.4055 18C1.60933 17.8253 1.80014 17.6581 1.98841 17.4696C2.01185 17.4462 2.03529 17.4228 2.05944 17.3987C2.13692 17.3213 2.21423 17.2437 2.29154 17.1661C2.34745 17.1102 2.40338 17.0543 2.45932 16.9984C2.61039 16.8473 2.76131 16.6961 2.91221 16.5449C3.07022 16.3866 3.22835 16.2284 3.38648 16.0703C3.68555 15.771 3.9845 15.4717 4.28341 15.1723C4.62386 14.8314 4.96444 14.4905 5.30503 14.1497C6.00533 13.4489 6.70547 12.7479 7.4055 12.0469C7.33256 11.8726 7.22584 11.7617 7.09301 11.6287C7.07061 11.6062 7.04821 11.5836 7.02512 11.5604C6.95007 11.485 6.87469 11.4099 6.79931 11.3348C6.74539 11.2807 6.69149 11.2267 6.63761 11.1726C6.49118 11.0257 6.34446 10.8792 6.19767 10.7327C6.04393 10.5792 5.89042 10.4255 5.73688 10.2718C5.47878 10.0135 5.22048 9.75542 4.96207 9.49746C4.66384 9.19974 4.36595 8.90168 4.06823 8.60345C3.81234 8.34714 3.55628 8.09101 3.30006 7.83504C3.14716 7.68228 2.99432 7.52947 2.84165 7.37648C2.69789 7.23245 2.5539 7.08865 2.40973 6.94503C2.35705 6.89247 2.30444 6.83982 2.25192 6.7871C2.17981 6.71473 2.10742 6.64266 2.03495 6.57066C1.97447 6.51023 1.97447 6.51023 1.91276 6.44858C1.7533 6.30334 1.57805 6.17628 1.4055 6.04686ZM22.2439 6.323C22.211 6.35395 22.178 6.38491 22.1441 6.41681C21.6427 6.89171 21.1571 7.38305 20.6694 7.87194C20.5257 8.01598 20.3818 8.15987 20.2379 8.30379C19.9668 8.5751 19.6957 8.84653 19.4247 9.11801C19.1157 9.42759 18.8065 9.73703 18.4973 10.0465C17.8624 10.6819 17.2276 11.3174 16.593 11.9531C16.6674 12.1339 16.7828 12.2483 16.9202 12.3856C16.9561 12.4217 16.9561 12.4217 16.9928 12.4586C17.0732 12.5392 17.1538 12.6195 17.2345 12.6998C17.2922 12.7575 17.3499 12.8153 17.4075 12.873C17.5641 13.0298 17.721 13.1863 17.8779 13.3428C18.0419 13.5064 18.2056 13.6702 18.3694 13.834C18.6443 14.1089 18.9194 14.3836 19.1946 14.6582C19.5133 14.9761 19.8317 15.2943 20.15 15.6126C20.4558 15.9184 20.7617 16.2241 21.0677 16.5297C21.1981 16.6599 21.3285 16.7902 21.4589 16.9206C21.6122 17.0738 21.7656 17.2269 21.9191 17.38C21.9756 17.4363 22.032 17.4927 22.0884 17.5491C22.1651 17.6258 22.2418 17.7023 22.3187 17.7788C22.3617 17.8218 22.4048 17.8647 22.4491 17.909C22.5297 18.0053 22.5297 18.0053 22.593 18C22.593 14.0555 22.593 10.1109 22.593 6.04686C22.4765 6.04686 22.3294 6.24259 22.2439 6.323ZM8.35875 13.1486C8.32841 13.1805 8.29808 13.2123 8.26683 13.2451C8.14945 13.368 8.02882 13.4821 7.89955 13.5922C7.64398 13.8151 7.40597 14.0555 7.16655 14.2954C7.11524 14.3466 7.06392 14.3979 7.0126 14.4491C6.87431 14.5871 6.73617 14.7254 6.59806 14.8636C6.45331 15.0085 6.30844 15.1533 6.16359 15.298C5.92079 15.5408 5.67809 15.7836 5.43544 16.0264C5.15461 16.3075 4.87361 16.5884 4.59253 16.8693C4.35099 17.1106 4.10955 17.352 3.86818 17.5935C3.72409 17.7376 3.57997 17.8818 3.43576 18.0258C3.30053 18.1609 3.16541 18.2961 3.03038 18.4314C2.98069 18.4812 2.93095 18.5309 2.88117 18.5806C2.81355 18.6481 2.74609 18.7157 2.67863 18.7834C2.62181 18.8403 2.62181 18.8403 2.56384 18.8983C2.4783 18.9705 2.4783 18.9705 2.48362 19.0312C8.76394 19.0312 15.0442 19.0312 21.5149 19.0312C21.3464 18.8347 21.1862 18.6499 21.0048 18.4683C20.9612 18.4246 20.9175 18.3808 20.8726 18.3357C20.8251 18.2883 20.7775 18.2409 20.73 18.1934C20.6793 18.1427 20.6286 18.0919 20.5779 18.0411C20.441 17.904 20.3039 17.767 20.1668 17.63C20.0228 17.4861 19.879 17.3422 19.7351 17.1982C19.4935 16.9565 19.2518 16.7149 19.01 16.4734C18.7312 16.1948 18.4525 15.9161 18.174 15.6373C17.9341 15.3972 17.6942 15.1572 17.4542 14.9173C17.3111 14.7743 17.1681 14.6313 17.0251 14.4882C16.8907 14.3536 16.7561 14.2191 16.6214 14.0847C16.5722 14.0356 16.5231 13.9865 16.474 13.9373C16.0175 13.4461 16.0175 13.4461 15.468 13.0781C15.4414 13.1055 15.4147 13.1328 15.3873 13.161C14.3887 14.1836 13.4659 15.028 11.954 15.0481C10.6469 15.0306 9.76463 14.3235 8.89378 13.4414C8.85911 13.4056 8.82444 13.3698 8.78872 13.3329C8.75644 13.2998 8.72416 13.2667 8.6909 13.2327C8.66218 13.2028 8.63347 13.173 8.60388 13.1423C8.49833 13.05 8.46213 13.0552 8.35875 13.1486Z" fill="#BE0B32"/>
</g>
<defs>
<clipPath id="clip0_460_519">
<rect width="24" height="24" fill="white"/>
</clipPath>
</defs>
</svg>
