<svg width="40" height="40" viewBox="0 0 40 40" fill="none" xmlns="http://www.w3.org/2000/svg">
<path d="M21.0667 2.31415C21.1318 2.34314 21.1968 2.37213 21.2638 2.402C21.4777 2.49752 21.6912 2.59398 21.9047 2.69043C22.0557 2.758 22.2067 2.82549 22.3578 2.89291C22.6695 3.03208 22.9811 3.17152 23.2926 3.31112C23.9124 3.58844 24.5343 3.86092 25.1564 4.13312C25.4856 4.27721 25.8146 4.42161 26.1436 4.56604C26.2422 4.6093 26.2422 4.6093 26.3428 4.65345C27.2713 5.06121 28.1993 5.4704 29.1263 5.88169C29.9745 6.25802 29.9745 6.25802 30.8261 6.62649C30.9793 6.6919 31.1322 6.75776 31.2851 6.82377C31.4639 6.90073 31.6431 6.97677 31.8228 7.05166C31.8998 7.085 31.9768 7.11835 32.0561 7.15271C32.1219 7.18049 32.1876 7.20827 32.2554 7.2369C32.4684 7.37326 32.5501 7.50673 32.6567 7.73437C32.6516 8.02751 32.6377 8.20833 32.4507 8.43879C32.2264 8.62706 32.0075 8.72649 31.7381 8.84155C31.6864 8.8639 31.6347 8.88626 31.5814 8.90928C31.416 8.98059 31.2503 9.05087 31.0844 9.12109C30.9773 9.167 30.8702 9.21298 30.7631 9.25903C30.601 9.32871 30.4389 9.39834 30.2767 9.46768C29.6347 9.74246 28.9973 10.0275 28.3598 10.3125C28.3543 10.9714 28.3502 11.6303 28.3477 12.2893C28.3465 12.5955 28.3449 12.9017 28.3421 13.2079C28.3173 16.1021 28.3222 20.0003 30.4335 22.2656C30.753 22.5257 31.1116 22.6847 31.4867 22.8509C31.7192 22.9687 31.7192 22.9687 31.8755 23.2031C31.9212 23.6952 31.8333 24.0079 31.602 24.4385C31.5736 24.4928 31.5452 24.5472 31.5159 24.6032C30.85 25.8471 29.9384 26.7591 28.7547 27.503C28.5185 27.6427 28.5185 27.6427 28.3598 27.8125C28.4069 27.8258 28.454 27.8391 28.5025 27.8528C31.3148 28.6556 31.3148 28.6556 32.4223 29.6094C32.4895 29.667 32.5567 29.7246 32.6259 29.7839C34.3698 31.3986 34.7441 34.1894 34.8537 36.4447C34.8611 36.6386 34.8657 36.8323 34.8686 37.0264C34.87 37.0851 34.8714 37.1439 34.8728 37.2044C34.8725 37.4493 34.8586 37.6286 34.7447 37.8476C34.518 38.0512 34.2806 38.0522 33.9848 38.0469C33.7798 37.9875 33.7066 37.9429 33.5906 37.7658C33.4878 37.5069 33.4695 37.248 33.4462 36.973C33.4346 36.8506 33.4229 36.7283 33.4111 36.606C33.4052 36.5422 33.3992 36.4784 33.3931 36.4127C33.2224 34.6092 32.9886 32.8659 31.9536 31.3281C31.9221 31.2802 31.8905 31.2322 31.8581 31.1829C31.0022 30.0418 29.3374 29.5973 28.0346 29.2026C27.8446 29.1447 27.6551 29.0853 27.4655 29.0257C27.3436 28.9883 27.2217 28.9511 27.0998 28.9139C27.0437 28.8961 26.9876 28.8784 26.9298 28.8601C26.625 28.7694 26.3977 28.7179 26.0942 28.8281C25.9311 28.9792 25.7895 29.125 25.645 29.292C25.6038 29.3381 25.5627 29.3841 25.5203 29.4316C25.3984 29.5684 25.2775 29.706 25.1567 29.8437C25.0397 29.9741 24.9225 30.1043 24.8051 30.2344C24.7495 30.2964 24.694 30.3584 24.6367 30.4224C24.3811 30.7052 24.122 30.9846 23.8631 31.2643C23.6283 31.5183 23.3953 31.7737 23.1645 32.0312C22.8938 32.3333 22.6197 32.632 22.3442 32.9297C22.064 33.2324 21.7851 33.5361 21.5092 33.8428C21.4539 33.9043 21.3985 33.9658 21.3414 34.0292C21.2213 34.1638 21.1022 34.2992 20.9837 34.4351C20.9219 34.5055 20.8601 34.5759 20.7964 34.6484C20.7134 34.7439 20.7134 34.7439 20.6288 34.8413C20.3905 35.0783 20.2389 35.1531 19.9028 35.166C19.4803 35.0393 19.2705 34.7788 18.9848 34.4531C18.9425 34.4054 18.9002 34.3577 18.8567 34.3085C18.7695 34.2091 18.6829 34.1093 18.5966 34.0091C18.3978 33.7824 18.1936 33.561 17.9887 33.3398C17.9485 33.2964 17.9084 33.253 17.8669 33.2083C17.7851 33.1199 17.7032 33.0315 17.6213 32.9431C17.116 32.3969 16.615 31.847 16.118 31.2933C15.9191 31.0728 15.7188 30.8536 15.518 30.6348C15.4823 30.5958 15.4466 30.5569 15.4098 30.5168C15.2224 30.3125 15.0346 30.1085 14.8466 29.9048C14.8086 29.8635 14.7706 29.8222 14.7314 29.7796C14.6261 29.6652 14.5206 29.5509 14.4151 29.4366C14.2192 29.2187 14.2192 29.2187 14.1267 29.0844C14.0246 28.9319 14.0246 28.9319 13.8286 28.75C13.425 28.7754 13.0453 28.8856 12.6598 29.0018C12.6013 29.0192 12.5427 29.0367 12.4825 29.0547C12.3588 29.0919 12.2353 29.1293 12.1118 29.1668C11.9278 29.2226 11.7434 29.2768 11.559 29.3309C9.8297 29.849 8.41886 30.5111 7.52487 32.1631C6.82793 33.6645 6.63165 35.3667 6.55191 37.0041C6.52569 37.4188 6.49167 37.6712 6.17233 37.9687C5.94942 38.0802 5.79463 38.0711 5.54733 38.0469C5.30286 37.9056 5.18047 37.8196 5.1036 37.5439C5.06821 37.1503 5.09912 36.7701 5.13229 36.3769C5.1394 36.2913 5.14651 36.2057 5.15384 36.1174C5.33707 34.075 5.64931 31.8894 6.95358 30.2344C7.00997 30.1554 7.06637 30.0765 7.12448 29.9951C8.19684 28.7666 9.89064 28.3499 11.379 27.8772C11.5573 27.8294 11.5573 27.8294 11.6411 27.7344C11.5599 27.6861 11.4787 27.6379 11.3951 27.5882C9.90697 26.6908 8.68761 25.5146 8.12545 23.8281C8.09102 23.2858 8.09102 23.2858 8.19869 23.0273C8.40582 22.8516 8.62624 22.7697 8.87527 22.6648C9.9386 22.1738 10.3891 21.1144 10.7817 20.0781C11.4469 18.262 11.6559 16.2394 11.6487 14.3179C11.6486 14.2018 11.6484 14.0857 11.6484 13.9695C11.6481 13.6668 11.6473 13.3641 11.6464 13.0614C11.6456 12.7513 11.6453 12.4413 11.6449 12.1312C11.6441 11.525 11.6427 10.9187 11.6411 10.3125C11.3313 10.1736 11.0215 10.0346 10.7117 9.89574C10.6066 9.84862 10.5016 9.8015 10.3965 9.75437C9.82216 9.49679 9.24772 9.23954 8.67233 8.98437C8.67302 9.04925 8.67371 9.11414 8.67443 9.18099C8.68069 9.79252 8.68545 10.4041 8.68852 11.0156C8.69015 11.33 8.69236 11.6444 8.6959 11.9588C8.6993 12.2622 8.70117 12.5656 8.70198 12.8691C8.70255 12.9848 8.70368 13.1006 8.70537 13.2163C8.70764 13.3785 8.70795 13.5406 8.7078 13.7028C8.7085 13.7951 8.70919 13.8874 8.70991 13.9825C8.66422 14.2697 8.59249 14.361 8.35983 14.5312C7.93652 14.5917 7.93652 14.5917 7.73483 14.5312C7.45901 14.3148 7.3544 14.2003 7.2946 13.8501C7.29229 13.7358 7.29212 13.6215 7.29366 13.5072C7.29263 13.4132 7.29263 13.4132 7.29158 13.3173C7.28987 13.1107 7.291 12.9043 7.29232 12.6978C7.29206 12.5539 7.29168 12.41 7.29119 12.2661C7.29061 11.9648 7.29145 11.6635 7.29328 11.3622C7.2955 10.9762 7.29422 10.5904 7.29188 10.2045C7.29047 9.90741 7.29092 9.61039 7.29193 9.31334C7.29219 9.17106 7.29187 9.02877 7.29096 8.88649C7.28997 8.68748 7.29148 8.48864 7.29366 8.28964C7.29287 8.23102 7.29208 8.17241 7.29126 8.11202C7.29742 7.80722 7.33263 7.67063 7.52605 7.43034C7.77134 7.23681 8.02464 7.10838 8.30978 6.98639C8.36635 6.96131 8.42292 6.93623 8.48121 6.91039C8.66825 6.82774 8.85582 6.74639 9.04342 6.66504C9.17653 6.60652 9.30961 6.54792 9.44265 6.48924C9.72183 6.36629 10.0012 6.24391 10.2809 6.12198C10.6876 5.94463 11.0937 5.76605 11.4998 5.58716C12.0985 5.32352 12.6977 5.06072 13.297 4.79833C13.9813 4.49867 14.6653 4.19819 15.3493 3.89772C15.8729 3.66776 16.3965 3.43801 16.9202 3.20824C17.1098 3.12501 17.2994 3.04175 17.489 2.95849C17.7861 2.82807 18.0831 2.69777 18.3802 2.56755C18.4892 2.51974 18.5982 2.4719 18.7072 2.42402C18.8557 2.35881 19.0042 2.29374 19.1527 2.2287C19.2358 2.19223 19.3189 2.15577 19.4046 2.1182C20.0249 1.85543 20.4862 2.04926 21.0667 2.31415ZM19.5512 3.55144C19.4942 3.57668 19.4371 3.60191 19.3784 3.62791C19.2858 3.66991 19.2858 3.66991 19.1914 3.71277C19.126 3.7419 19.0606 3.77103 18.9932 3.80104C18.7769 3.89744 18.5611 3.99463 18.3452 4.09179C18.1942 4.15925 18.0431 4.22664 17.892 4.29397C17.658 4.39831 17.4239 4.50269 17.1899 4.60728C16.4606 4.93329 15.7295 5.2549 14.9977 5.57542C14.6673 5.72018 14.3369 5.86517 14.0065 6.01013C13.9444 6.03738 13.8823 6.06462 13.8182 6.0927C12.988 6.45687 12.1583 6.82211 11.3286 7.1875C11.3286 7.21328 11.3286 7.23906 11.3286 7.26562C11.3747 7.26581 11.4208 7.266 11.4682 7.26619C12.5891 7.27081 13.7099 7.27671 14.8307 7.28404C15.3727 7.28755 15.9147 7.29063 16.4567 7.29269C16.9795 7.29467 17.5023 7.29787 18.025 7.30181C18.2248 7.30311 18.4245 7.30401 18.6243 7.3045C18.9034 7.30525 19.1825 7.30743 19.4616 7.30997C19.5448 7.30986 19.6279 7.30974 19.7136 7.30963C19.8275 7.3111 19.8275 7.3111 19.9437 7.3126C20.0427 7.31314 20.0427 7.31314 20.1438 7.31369C20.3527 7.35082 20.4201 7.41092 20.5473 7.57812C20.6343 7.86377 20.6504 7.99339 20.5229 8.2666C20.3911 8.4375 20.3911 8.4375 20.2348 8.51562C20.1171 8.52374 19.9989 8.52707 19.8809 8.52798C19.7691 8.52913 19.7691 8.52913 19.6551 8.5303C19.5732 8.53075 19.4912 8.5312 19.4067 8.53166C19.3206 8.53244 19.2344 8.53321 19.1457 8.53401C18.8599 8.53648 18.5742 8.53841 18.2884 8.54034C18.0907 8.54195 17.893 8.54359 17.6953 8.54526C17.2274 8.54914 16.7596 8.55267 16.2917 8.55604C15.7591 8.5599 15.2265 8.56419 14.6939 8.56852C13.5982 8.57741 12.5024 8.58576 11.4067 8.59375C11.6038 8.74433 11.7848 8.86904 12.0122 8.96867C12.0692 8.99389 12.1263 9.0191 12.185 9.04508C12.2467 9.07188 12.3084 9.09867 12.372 9.12628C12.4374 9.15509 12.5029 9.18389 12.5703 9.21357C12.7861 9.30845 13.0022 9.40276 13.2182 9.49707C13.3691 9.56324 13.5199 9.62945 13.6707 9.6957C13.9835 9.83304 14.2964 9.97015 14.6094 10.1071C15.1292 10.3345 15.6486 10.5631 16.1678 10.7919C16.509 10.9421 16.8504 11.092 17.1921 11.2409C17.3216 11.2973 17.451 11.3538 17.5804 11.4102C17.642 11.4371 17.7035 11.4639 17.767 11.4916C18.1211 11.6466 18.4722 11.8063 18.8219 11.9711C18.8978 12.0062 18.9738 12.0412 19.052 12.0773C19.1824 12.1377 19.312 12.1998 19.4404 12.2641C19.746 12.4037 19.9297 12.4443 20.2504 12.3284C20.3429 12.295 20.3429 12.295 20.4373 12.2609C20.7342 12.1451 21.0257 12.0198 21.3164 11.8893C21.3812 11.8606 21.446 11.8318 21.5128 11.8021C21.6522 11.7402 21.7916 11.6781 21.9309 11.6159C22.23 11.4823 22.5294 11.3495 22.8289 11.2166C22.9842 11.1476 23.1395 11.0786 23.2948 11.0095C24.0641 10.6675 24.8349 10.3285 25.6059 9.99023C25.6707 9.96181 25.7354 9.9334 25.8021 9.90412C27.2785 9.25619 28.7565 8.61212 30.2348 7.96875C29.9445 7.72096 29.6161 7.5867 29.2696 7.43622C29.2042 7.40744 29.1388 7.37867 29.0715 7.34902C28.8556 7.25411 28.6394 7.15977 28.4233 7.06543C28.2713 6.99874 28.1194 6.93201 27.9674 6.86525C27.6535 6.72739 27.3394 6.58976 27.0253 6.45233C26.5968 6.26489 26.1686 6.07689 25.7405 5.88867C25.3471 5.71572 24.9537 5.54285 24.5601 5.3705C23.9347 5.09659 23.3096 4.82185 22.6858 4.54434C22.3883 4.41202 22.0905 4.28012 21.7928 4.14825C21.6504 4.08503 21.508 4.0216 21.3658 3.95795C21.1692 3.87001 20.9723 3.78277 20.7753 3.69568C20.717 3.66938 20.6587 3.64309 20.5987 3.616C20.2138 3.44693 19.9419 3.37615 19.5512 3.55144ZM13.0473 10.9375C13.0215 11.4711 13.0038 12.0046 12.9915 12.5387C12.9864 12.7202 12.9795 12.9016 12.9707 13.0829C12.8803 14.0284 12.8803 14.0284 13.14 14.906C13.4051 15.1581 13.7228 15.2736 14.063 15.3906C14.1773 15.4492 14.291 15.5093 14.4032 15.5719C14.5026 15.6198 14.6024 15.6668 14.7026 15.7129C14.758 15.7384 14.8133 15.764 14.8704 15.7903C16.25 16.4114 17.7792 16.827 19.2973 16.875C19.3716 16.8774 19.3716 16.8774 19.4474 16.8798C21.9602 16.9493 24.307 16.3311 26.4848 15.0781C26.5548 15.0539 26.6249 15.0298 26.697 15.0049C26.8894 14.8635 26.8894 14.8635 26.9092 14.6718C26.9209 14.4357 26.9193 14.2027 26.9136 13.9664C26.913 13.88 26.9125 13.7936 26.9119 13.7046C26.9097 13.4284 26.9048 13.1522 26.8999 12.876C26.8979 12.6889 26.8961 12.5017 26.8945 12.3146C26.8902 11.8555 26.8837 11.3965 26.8755 10.9375C26.4176 11.0822 25.9788 11.2475 25.5421 11.4468C25.484 11.473 25.4258 11.4993 25.3658 11.5263C25.2415 11.5823 25.1172 11.6385 24.993 11.6948C24.6638 11.8441 24.334 11.9922 24.0044 12.1405C23.9042 12.1856 23.9042 12.1856 23.802 12.2316C23.134 12.532 22.4636 12.8269 21.7924 13.1201C21.7395 13.1433 21.6866 13.1664 21.6321 13.1903C20.0652 13.8758 20.0652 13.8758 19.4723 13.6781C19.2074 13.5698 18.9473 13.4538 18.687 13.335C18.5869 13.2903 18.4868 13.2458 18.3866 13.2013C18.1642 13.1024 17.9421 13.0029 17.7202 12.903C17.3036 12.7157 16.8857 12.5315 16.4677 12.3474C15.8803 12.0886 15.2929 11.8294 14.706 11.5695C14.6435 11.5419 14.5811 11.5142 14.5168 11.4858C14.4571 11.4593 14.3974 11.4329 14.3358 11.4056C14.2782 11.3802 14.2205 11.3548 14.1611 11.3286C14.0376 11.2735 13.9146 11.2175 13.792 11.1607C13.7296 11.132 13.6671 11.1033 13.6028 11.0738C13.5468 11.0477 13.4908 11.0215 13.433 10.9946C13.2721 10.9237 13.2721 10.9237 13.0473 10.9375ZM13.9067 16.875C13.3863 18.38 13.797 20.1981 14.4664 21.593C15.2748 23.2064 16.5288 24.3225 18.2255 24.9365C19.7711 25.4203 21.3937 25.2212 22.823 24.4903C24.4452 23.5987 25.4951 22.0563 26.0112 20.3076C26.1988 19.659 26.2646 19.041 26.2651 18.3691C26.2661 18.303 26.267 18.2368 26.268 18.1686C26.269 17.7147 26.2066 17.315 26.0942 16.875C25.7643 16.9271 25.4832 17.0379 25.1762 17.168C21.9214 18.5034 18.0683 18.5229 14.8064 17.1938C14.6397 17.1235 14.4739 17.0512 14.3083 16.9781C14.0833 16.8649 14.0833 16.8649 13.9067 16.875ZM12.3442 19.5312C12.3313 19.574 12.3184 19.6167 12.3052 19.6608C11.807 21.2897 11.2029 22.8855 9.68795 23.8281C9.91156 24.7971 10.9284 25.6754 11.7339 26.1914C12.3697 26.5612 13.1032 26.9636 13.8286 27.1094C14.2889 26.6556 14.6674 26.2039 14.976 25.6348C15.0034 25.5856 15.0308 25.5364 15.059 25.4857C15.1696 25.2721 15.2354 25.1094 15.2312 24.8672C15.1392 24.6453 15.0286 24.5392 14.8491 24.3799C13.4956 23.078 12.8337 21.327 12.4223 19.5312C12.3965 19.5312 12.3708 19.5312 12.3442 19.5312ZM27.5005 19.6094C27.4915 19.6525 27.4825 19.6957 27.4733 19.7401C27.0311 21.826 26.204 23.3427 24.688 24.8437C24.9756 25.735 25.4957 26.5474 26.2505 27.1094C27.9193 26.4743 29.4424 25.6219 30.313 23.9844C30.313 23.9328 30.313 23.8812 30.313 23.8281C30.1871 23.7364 30.0578 23.6493 29.9272 23.5644C28.6388 22.6428 28.1016 21.0655 27.6567 19.6094C27.6051 19.6094 27.5536 19.6094 27.5005 19.6094ZM16.4067 25.625C16.3763 25.6922 16.3459 25.7593 16.3145 25.8285C16.04 26.4086 15.7439 26.9099 15.3287 27.4012C15.1252 27.6471 15.0786 27.7129 15.0786 28.0469C15.2004 28.2214 15.2004 28.2214 15.3715 28.3936C15.4356 28.4619 15.4996 28.5303 15.5656 28.6008C15.6005 28.6374 15.6354 28.6741 15.6714 28.7118C15.8262 28.875 15.9784 29.0405 16.1307 29.2059C16.251 29.3365 16.3716 29.4669 16.4922 29.5972C16.7439 29.8698 16.9916 30.146 17.2392 30.4224C17.4547 30.6608 17.6727 30.8969 17.8911 31.1328C18.2245 31.493 18.5547 31.8558 18.8823 32.2214C19.2263 32.6031 19.5745 32.981 19.9223 33.3594C20.1574 33.2548 20.3117 33.1425 20.4854 32.9535C20.5309 32.9043 20.5764 32.8552 20.6233 32.8046C20.6707 32.7524 20.7182 32.7002 20.7671 32.6465C20.8164 32.5929 20.8657 32.5393 20.9166 32.4841C21.1897 32.1867 21.4584 31.8858 21.7216 31.5796C21.9979 31.2682 22.285 30.9668 22.5697 30.6631C22.8398 30.3747 23.1042 30.0831 23.3617 29.7833C23.6392 29.4706 23.9274 29.1675 24.2145 28.8635C24.4875 28.5732 24.7486 28.2776 25.0005 27.9687C24.8936 27.7213 24.7463 27.5271 24.5764 27.3191C24.1434 26.7879 23.8513 26.2636 23.5942 25.625C23.2837 25.7242 22.9884 25.8388 22.6909 25.9717C20.8695 26.7387 18.8644 26.6246 17.0595 25.8908C16.973 25.8547 16.8865 25.8185 16.7973 25.7812C16.6672 25.729 16.537 25.6769 16.4067 25.625Z" fill="white"/>
</svg>
