<svg width="60" height="60" viewBox="0 0 60 60" fill="none" xmlns="http://www.w3.org/2000/svg">
<g clip-path="url(#clip0_460_492)">
<path d="M37.6963 0.878743C37.9598 0.878857 38.2229 0.873981 38.4863 0.868786C38.6541 0.868176 38.8218 0.867861 38.9896 0.867871C39.142 0.86704 39.2944 0.866209 39.4515 0.865353C39.8433 0.937451 39.8433 0.937451 40.1282 1.20556C40.3045 1.51028 40.369 1.64753 40.3578 1.99077C40.3567 2.06544 40.3555 2.14011 40.3543 2.21704C40.35 2.3096 40.3458 2.40215 40.3414 2.49751C40.3317 2.7948 40.322 3.09209 40.3121 3.39839C41.1629 3.39839 42.0136 3.39839 42.8902 3.39839C42.881 2.80241 42.881 2.80241 42.8691 2.20649C42.8629 1.41693 42.8629 1.41693 43.1246 1.05464C43.6527 0.790598 44.3721 0.905979 44.9595 0.902861C45.2252 0.900841 45.4908 0.895697 45.7565 0.89053C45.9252 0.889344 46.0939 0.888346 46.2625 0.887555C46.4163 0.885846 46.5701 0.884137 46.7285 0.882376C47.1089 0.937451 47.1089 0.937451 47.3355 1.14485C47.4676 1.42099 47.5017 1.58412 47.4948 1.88777C47.494 1.96749 47.4931 2.04721 47.4922 2.12935C47.489 2.22909 47.4858 2.32883 47.4825 2.43159C47.4752 2.75063 47.468 3.06968 47.4605 3.39839C48.35 3.39839 49.2394 3.39839 50.1558 3.39839C50.1419 2.71998 50.1419 2.71998 50.1242 2.04166C50.1228 1.9145 50.1228 1.9145 50.1215 1.78477C50.1196 1.69824 50.1178 1.61171 50.1159 1.52256C50.1558 1.28901 50.1558 1.28901 50.2814 1.08568C50.7872 0.753953 51.5188 0.876934 52.1103 0.878743C52.3738 0.878857 52.6369 0.873981 52.9003 0.868786C53.0681 0.868176 53.2359 0.867861 53.4037 0.867871C53.5561 0.86704 53.7085 0.866209 53.8655 0.865353C54.2574 0.937451 54.2574 0.937451 54.5423 1.20556C54.7186 1.51028 54.7831 1.64753 54.7719 1.99077C54.7696 2.11482 54.7696 2.11482 54.7673 2.24139C54.7614 2.36817 54.7614 2.36817 54.7554 2.49751C54.7533 2.58429 54.7512 2.67108 54.749 2.76049C54.7435 2.97319 54.7351 3.18581 54.7261 3.39839C54.8577 3.39295 54.9893 3.38751 55.1248 3.38191C56.9605 3.32841 56.9605 3.32841 57.773 3.86714C57.8987 3.94932 58.0244 4.03149 58.1539 4.11616C59.141 5.1482 59.1469 6.27449 59.1379 7.62194C59.1387 7.82226 59.1397 8.02258 59.141 8.22289C59.1437 8.76405 59.1426 9.30515 59.1408 9.8463C59.1393 10.4143 59.1407 10.9822 59.1416 11.5502C59.1427 12.5038 59.1413 13.4573 59.1385 14.4109C59.1353 15.5112 59.1363 16.6115 59.1395 17.7119C59.1422 18.6589 59.1426 19.6059 59.141 20.5529C59.1401 21.1175 59.14 21.6821 59.1419 22.2467C59.1436 22.7777 59.1424 23.3086 59.1391 23.8396C59.1383 24.0337 59.1385 24.2279 59.1398 24.422C59.1469 25.5916 59.103 26.6159 58.2739 27.5269C57.6014 28.1801 56.8024 28.4015 55.8861 28.3902C55.7934 28.3873 55.7006 28.3843 55.605 28.3813C55.5087 28.3797 55.4123 28.3781 55.313 28.3765C55.0783 28.3724 54.8436 28.3661 54.6089 28.3593C54.6094 28.4256 54.6098 28.4918 54.6103 28.56C54.6206 30.1781 54.6284 31.7962 54.6332 33.4143C54.6356 34.1968 54.639 34.9793 54.6443 35.7618C54.6494 36.5178 54.6522 37.2738 54.6534 38.0299C54.6543 38.3175 54.656 38.605 54.6585 38.8926C54.6903 42.6393 54.6903 42.6393 53.4371 44.0625C52.5335 44.92 51.4678 45.484 50.2109 45.4828C50.0132 45.483 50.0132 45.483 49.8115 45.4833C49.5954 45.4826 49.5954 45.4826 49.375 45.482C49.2229 45.482 49.0708 45.482 48.9141 45.4821C48.4975 45.4821 48.0808 45.4814 47.6642 45.4806C47.2286 45.4798 46.793 45.4798 46.3574 45.4796C45.5328 45.4793 44.7081 45.4783 43.8835 45.4771C42.9446 45.4758 42.0057 45.4752 41.0668 45.4746C39.1355 45.4734 37.2043 45.4713 35.273 45.4687C35.3246 45.9698 35.3779 46.4707 35.4314 46.9715C35.4458 47.1118 35.4603 47.2521 35.4751 47.3967C35.6596 49.1057 36.0759 50.7146 36.6889 52.3178C36.7964 52.6171 36.7964 52.6171 36.7964 52.8515C36.9075 52.8484 37.0185 52.8454 37.1328 52.8422C37.55 52.8321 37.9671 52.8248 38.3843 52.8193C38.5639 52.8164 38.7435 52.8124 38.923 52.8073C40.1287 52.7739 41.1538 52.8039 42.0847 53.669C42.732 54.3477 43.023 54.9942 43.066 55.935C43.0434 56.8697 42.7341 57.5218 42.1358 58.2275C41.3337 58.8927 40.7858 59.0799 39.7588 59.0805C39.6531 59.081 39.5474 59.0815 39.4384 59.082C39.0827 59.0836 38.7271 59.0843 38.3714 59.0851C38.1169 59.086 37.8624 59.0869 37.608 59.088C36.7709 59.091 35.9338 59.0928 35.0968 59.0945C34.8087 59.0951 34.5205 59.0958 34.2324 59.0964C33.0338 59.0989 31.8352 59.1011 30.6366 59.1024C28.9189 59.1043 27.2011 59.1082 25.4834 59.1149C24.2757 59.1194 23.0679 59.1217 21.8602 59.1223C21.1389 59.1228 20.4176 59.1242 19.6963 59.128C19.0174 59.1315 18.3384 59.1322 17.6594 59.1309C17.4107 59.1308 17.1619 59.1318 16.9131 59.1339C14.3401 59.154 14.3401 59.154 13.3461 58.2523C12.7005 57.6037 12.417 56.8644 12.3775 55.957C12.417 55.0488 12.7017 54.3133 13.3442 53.6616C14.3514 52.7556 15.4911 52.7608 16.772 52.7563C16.953 52.7536 17.134 52.7506 17.3149 52.7474C17.7541 52.7401 18.1932 52.7362 18.6324 52.7343C19.3274 50.7952 19.7573 48.9077 19.9933 46.8608C20.0091 46.7263 20.0249 46.5918 20.0412 46.4532C20.0798 46.1251 20.1179 45.7969 20.1558 45.4687C20.0767 45.4691 19.9975 45.4696 19.916 45.47C17.9861 45.4804 16.0561 45.4881 14.1262 45.493C13.1928 45.4954 12.2595 45.4987 11.3262 45.5041C10.5122 45.5088 9.69827 45.5118 8.8843 45.5128C8.45373 45.5134 8.02319 45.5148 7.59263 45.5183C7.11073 45.5221 6.62889 45.5221 6.14697 45.5219C5.93531 45.5244 5.93531 45.5244 5.71937 45.527C4.25614 45.5199 3.18696 45.0823 2.12405 44.0927C1.17114 43.1049 0.847815 41.9253 0.863459 40.5825C0.862627 40.4521 0.861794 40.3216 0.860937 40.1872C0.85889 39.7541 0.860993 39.321 0.863115 38.8879C0.862513 38.5757 0.861683 38.2636 0.860576 37.9514C0.858431 37.194 0.859414 36.4366 0.861524 35.6792C0.863172 35.0633 0.863623 34.4474 0.86323 33.8315C0.863174 33.7436 0.863116 33.6557 0.863058 33.5652C0.862938 33.3866 0.862813 33.208 0.862686 33.0293C0.861684 31.4527 0.863632 29.876 0.867121 28.2993C0.8705 26.7717 0.87133 25.2442 0.869524 23.7165C0.867557 22.0502 0.867089 20.3839 0.869138 18.7176C0.869354 18.5397 0.869571 18.3618 0.869785 18.1839C0.869892 18.0964 0.869997 18.0089 0.870107 17.9187C0.870762 17.304 0.870379 16.6893 0.869603 16.0745C0.868694 15.3248 0.869496 14.575 0.872435 13.8253C0.873893 13.4432 0.874371 13.0612 0.873308 12.6792C0.872285 12.264 0.874168 11.8489 0.876762 11.4337C0.875797 11.3144 0.874828 11.1951 0.873833 11.0722C0.888891 9.76107 1.31743 8.68384 2.22614 7.73433C3.34362 6.71263 4.52905 6.42615 6.007 6.43117C6.11527 6.43107 6.22355 6.43097 6.3351 6.43087C6.6973 6.43067 7.0595 6.43132 7.4217 6.43196C7.68157 6.43199 7.94145 6.43197 8.20132 6.43191C8.90656 6.43187 9.6118 6.43256 10.317 6.43338C11.0542 6.43411 11.7913 6.43418 12.5284 6.43432C13.7655 6.43464 15.0026 6.43538 16.2398 6.43642C17.5138 6.4375 18.7879 6.43833 20.062 6.43883C20.1798 6.43887 20.1798 6.43887 20.3001 6.43892C20.6943 6.43907 21.0885 6.43922 21.4827 6.43937C24.7513 6.44059 28.02 6.44265 31.2886 6.44526C31.2978 6.33871 31.2978 6.33871 31.3071 6.23C31.3161 6.13608 31.3251 6.04215 31.3344 5.94539C31.3472 5.8062 31.3472 5.8062 31.3602 5.6642C31.4773 4.96197 31.9321 4.43898 32.4605 3.98433C33.035 3.60004 33.5389 3.3817 34.2311 3.38694C34.3195 3.38732 34.4079 3.3877 34.4989 3.38809C34.6356 3.38956 34.6356 3.38956 34.775 3.39106C34.8679 3.39159 34.9608 3.39212 35.0565 3.39267C35.2849 3.39404 35.5133 3.39614 35.7418 3.39839C35.7377 3.2502 35.7336 3.102 35.7294 2.94932C35.7261 2.75477 35.7229 2.56022 35.7198 2.36567C35.7154 2.21918 35.7154 2.21918 35.7109 2.06973C35.7097 1.97569 35.7086 1.88166 35.7074 1.78477C35.7056 1.69824 35.7037 1.61171 35.7019 1.52256C35.7418 1.28901 35.7418 1.28901 35.8673 1.08568C36.3731 0.753953 37.1047 0.876934 37.6963 0.878743ZM37.4996 2.69526C37.4996 3.7394 37.4996 4.78354 37.4996 5.85933C37.8476 5.85933 38.1957 5.85933 38.5543 5.85933C38.5543 4.81519 38.5543 3.77104 38.5543 2.69526C38.2062 2.69526 37.8582 2.69526 37.4996 2.69526ZM44.648 2.69526C44.648 3.7394 44.648 4.78354 44.648 5.85933C44.9961 5.85933 45.3441 5.85933 45.7027 5.85933C45.7027 4.81519 45.7027 3.77104 45.7027 2.69526C45.3547 2.69526 45.0066 2.69526 44.648 2.69526ZM51.9136 2.69526C51.9136 3.7394 51.9136 4.78354 51.9136 5.85933C52.2617 5.85933 52.6097 5.85933 52.9683 5.85933C52.9683 4.81519 52.9683 3.77104 52.9683 2.69526C52.6203 2.69526 52.2722 2.69526 51.9136 2.69526ZM33.2808 5.62495C32.8892 6.3208 32.8892 6.3208 33.0464 8.20308C41.0515 8.20308 49.0566 8.20308 57.3043 8.20308C57.5361 6.14123 57.5361 6.14123 56.8355 5.39058C56.4222 5.09049 56.0151 5.13233 55.5172 5.14155C55.3691 5.14367 55.2211 5.14578 55.0685 5.14796C54.9555 5.15068 54.8426 5.1534 54.7261 5.1562C54.7231 5.28611 54.7201 5.41603 54.717 5.54988C54.7104 5.72139 54.7037 5.8929 54.6968 6.0644C54.6952 6.14991 54.6935 6.23541 54.6918 6.3235C54.6743 6.70884 54.6502 6.97459 54.4203 7.29044C54.0449 7.57127 53.8036 7.5588 53.3377 7.55809C53.2612 7.55826 53.1847 7.55843 53.1058 7.5586C52.9446 7.55841 52.7833 7.55706 52.6221 7.55463C52.3754 7.55123 52.129 7.55221 51.8823 7.55374C51.7253 7.55301 51.5684 7.55202 51.4115 7.55076C51.269 7.54962 51.1265 7.54848 50.9798 7.5473C50.6246 7.49995 50.6246 7.49995 50.4034 7.35038C50.2484 7.11018 50.2237 6.96283 50.213 6.67827C50.2092 6.59825 50.2053 6.51823 50.2013 6.43579C50.1969 6.28458 50.1969 6.28458 50.1924 6.13032C50.1804 5.80886 50.1683 5.4874 50.1558 5.1562C49.2664 5.1562 48.3769 5.1562 47.4605 5.1562C47.4218 5.89097 47.3832 6.62573 47.3433 7.38276C46.7308 7.58693 46.0738 7.531 45.4324 7.53454C45.1762 7.53656 44.9202 7.54171 44.664 7.54687C44.5012 7.54806 44.3384 7.54906 44.1756 7.54985C44.0275 7.55156 43.8794 7.55326 43.7268 7.55503C43.3589 7.49995 43.3589 7.49995 43.1359 7.29095C42.9407 6.89646 42.9403 6.4959 42.9268 6.0644C42.9147 5.7647 42.9026 5.46499 42.8902 5.1562C42.0394 5.1562 41.1886 5.1562 40.3121 5.1562C40.2829 5.71353 40.2829 5.71353 40.2561 6.27097C40.2311 6.69108 40.2022 7.03152 39.9605 7.38276C39.4565 7.63475 38.7854 7.52655 38.2257 7.5281C37.977 7.52924 37.7284 7.53288 37.4797 7.53657C37.3217 7.53734 37.1637 7.53795 37.0056 7.5384C36.8617 7.5395 36.7177 7.54059 36.5694 7.54172C36.2105 7.49995 36.2105 7.49995 35.9888 7.35115C35.8347 7.11056 35.8097 6.96268 35.799 6.67827C35.7928 6.54514 35.7928 6.54514 35.7864 6.40933C35.7837 6.31726 35.7811 6.22518 35.7784 6.13032C35.7724 5.99017 35.7724 5.99017 35.7663 5.8472C35.7566 5.61692 35.749 5.38656 35.7418 5.1562C35.4633 5.14345 35.1854 5.13421 34.9068 5.1269C34.8289 5.12298 34.7509 5.11905 34.6706 5.115C34.0687 5.1032 33.737 5.2378 33.2808 5.62495ZM3.33942 9.19185C3.2657 9.27871 3.19198 9.36557 3.11603 9.45506C2.68191 10.086 2.66161 10.6283 2.6667 11.3706C2.6664 11.5307 2.6664 11.5307 2.66609 11.694C2.66571 12.0517 2.667 12.4094 2.66828 12.7671C2.66834 13.0235 2.66831 13.2799 2.66817 13.5363C2.66811 14.2326 2.66949 14.9289 2.67112 15.6252C2.67258 16.3528 2.67272 17.0803 2.673 17.8079C2.67369 19.1074 2.67538 20.407 2.6776 21.7065C2.67961 22.8861 2.68108 24.0656 2.68201 25.2452C2.68207 25.3227 2.68213 25.4003 2.6822 25.4802C2.6825 25.8693 2.6828 26.2584 2.68309 26.6474C2.68554 29.8743 2.68984 33.1012 2.69489 36.3281C5.05387 36.3281 7.41285 36.3281 9.84332 36.3281C9.92067 35.864 9.99801 35.3999 10.0777 34.9218C10.7219 33.8994 11.0171 33.9545 12.3043 33.6328C12.3043 31.6605 12.3043 29.6882 12.3043 27.6562C11.0913 27.6316 11.0913 27.6316 9.87823 27.6107C9.65158 27.6049 9.65158 27.6049 9.42035 27.599C9.2657 27.5959 9.11105 27.5928 8.95171 27.5897C8.52155 27.5348 8.38092 27.4965 8.08551 27.1875C8.02599 26.8272 8.02599 26.8272 8.02486 26.3786C8.02403 26.2968 8.02321 26.215 8.02237 26.1308C8.0203 25.8604 8.02167 25.5902 8.02325 25.3198C8.02294 25.1319 8.02248 24.9441 8.0219 24.7563C8.0212 24.3626 8.02221 23.969 8.0244 23.5754C8.02707 23.0705 8.02553 22.5658 8.02272 22.061C8.02103 21.6731 8.02157 21.2853 8.02278 20.8974C8.0231 20.7113 8.02271 20.5251 8.02162 20.339C8.02043 20.0788 8.02224 19.8189 8.02486 19.5588C8.02542 19.3367 8.02542 19.3367 8.02599 19.1102C8.08551 18.75 8.08551 18.75 8.28858 18.5543C8.59405 18.375 8.76297 18.3547 9.11465 18.3553C9.22702 18.3547 9.3394 18.354 9.45518 18.3533C9.57768 18.3544 9.70017 18.3555 9.82639 18.3566C10.0208 18.3563 10.0208 18.3563 10.2192 18.3559C10.6481 18.3555 11.077 18.3577 11.5059 18.3599C11.8036 18.3603 12.1014 18.3605 12.3991 18.3606C13.0233 18.3611 13.6474 18.3628 14.2716 18.3654C15.0724 18.3688 15.8731 18.37 16.6739 18.3705C17.2887 18.371 17.9036 18.3722 18.5184 18.3736C18.8137 18.3742 19.109 18.3748 19.4043 18.3753C19.8167 18.3761 20.2291 18.3777 20.6415 18.3795C20.764 18.3796 20.8865 18.3798 21.0127 18.3799C21.1813 18.3809 21.1813 18.3809 21.3532 18.3819C21.4507 18.3823 21.5482 18.3826 21.6486 18.383C21.9076 18.398 22.1337 18.4438 22.3824 18.5156C22.4901 18.9735 22.5144 19.3988 22.5147 19.8687C22.5151 20.0216 22.5155 20.1746 22.5159 20.3321C22.5156 20.4981 22.5154 20.6641 22.5151 20.83C22.5152 21.0012 22.5153 21.1724 22.5155 21.3435C22.5156 21.7017 22.5154 22.0598 22.5149 22.418C22.5142 22.8763 22.5146 23.3345 22.5153 23.7928C22.5157 24.1461 22.5156 24.4994 22.5153 24.8526C22.5152 25.0216 22.5153 25.1905 22.5155 25.3595C22.5158 25.5959 22.5153 25.8323 22.5147 26.0687C22.5146 26.203 22.5145 26.3373 22.5145 26.4757C22.5008 26.805 22.4577 27.1017 22.3824 27.4218C22.0443 27.5176 21.7381 27.556 21.3871 27.5631C21.2839 27.5654 21.1807 27.5677 21.0744 27.5702C20.9088 27.5731 20.9088 27.5731 20.7399 27.5761C20.6261 27.5785 20.5124 27.581 20.3951 27.5835C20.0322 27.5911 19.6692 27.598 19.3062 27.6049C19.0599 27.61 18.8137 27.6151 18.5674 27.6203C17.9641 27.6328 17.3607 27.6447 16.7574 27.6562C16.7574 28.1976 16.7574 28.739 16.7574 29.2968C16.9773 29.3331 17.1973 29.3693 17.4239 29.4067C18.137 29.5242 18.137 29.5242 18.4735 29.6122C18.81 29.6563 18.9244 29.5709 19.2183 29.414C19.8079 29.3526 20.3968 29.3547 20.9615 29.5458C21.4037 29.6697 21.5009 29.5817 21.9136 29.414C22.6365 29.333 23.297 29.3307 23.9058 29.7656C24.4761 30.3229 24.5176 30.572 24.7261 31.4062C24.7261 33.0304 24.7261 34.6546 24.7261 36.3281C34.0074 36.3281 43.2886 36.3281 52.8511 36.3281C52.8511 33.6984 52.8511 31.0687 52.8511 28.3593C52.2745 28.3582 51.6978 28.3571 51.1037 28.356C49.1985 28.3521 47.2934 28.3456 45.3883 28.3378C44.2333 28.3331 43.0782 28.3293 41.9231 28.3276C40.9161 28.326 39.9091 28.3229 38.9021 28.3178C38.3691 28.3151 37.8361 28.3133 37.3031 28.3134C36.8009 28.3135 36.2988 28.3114 35.7966 28.3076C35.6128 28.3066 35.429 28.3064 35.2452 28.3071C34.0876 28.3107 33.1444 28.2662 32.2408 27.4804C32.1586 27.3837 32.0764 27.2871 31.9918 27.1875C31.9265 27.1125 31.8612 27.0376 31.794 26.9604C31.4501 26.42 31.3763 25.8851 31.3732 25.2548C31.3719 25.1039 31.3706 24.9531 31.3692 24.7977C31.3689 24.632 31.3687 24.4663 31.3685 24.3006C31.3674 24.125 31.3662 23.9494 31.3649 23.7738C31.3617 23.2984 31.3599 22.8229 31.3584 22.3474C31.3566 21.8501 31.3534 21.3527 31.3504 20.8554C31.3449 19.9141 31.3406 18.9728 31.3368 18.0316C31.3323 16.9597 31.3265 15.8879 31.3206 14.8161C31.3085 12.6117 31.298 10.4074 31.2886 8.20308C27.8863 8.19212 24.484 8.18386 21.0816 8.17879C20.767 8.17831 20.4524 8.17782 20.1378 8.17733C20.0596 8.1772 19.9814 8.17708 19.9008 8.17695C18.6361 8.17492 17.3714 8.17122 16.1067 8.16691C14.8081 8.16252 13.5096 8.15996 12.211 8.15897C11.482 8.15836 10.753 8.15693 10.0239 8.15351C9.33735 8.15033 8.65081 8.14935 7.96422 8.15006C7.71262 8.14993 7.46102 8.149 7.20943 8.1472C6.86495 8.14485 6.52059 8.14543 6.17611 8.14671C6.02802 8.14466 6.02802 8.14466 5.87695 8.14257C4.9141 8.15215 3.96673 8.42498 3.33942 9.19185ZM33.0464 9.96089C33.0368 12.5374 33.0271 15.1139 33.0172 17.7685C33.0129 18.5819 33.0086 19.3953 33.0042 20.2334C33.0027 20.9628 33.0027 20.9628 33.0017 21.6922C33.001 22.017 32.9995 22.3417 32.997 22.6665C32.9937 23.0811 32.9928 23.4956 32.9934 23.9102C32.9932 24.1338 32.9907 24.3573 32.9881 24.5808C32.9906 25.5703 32.9906 25.5703 33.5152 26.3671C33.9439 26.6589 34.3861 26.6347 34.8861 26.6321C34.9775 26.6325 35.0689 26.633 35.163 26.6334C35.4696 26.6346 35.776 26.6342 36.0825 26.6337C36.3022 26.6342 36.5218 26.6348 36.7414 26.6355C37.3383 26.6371 37.9351 26.6372 38.5319 26.6369C39.0299 26.6367 39.5279 26.6373 40.0259 26.6379C41.2007 26.6392 42.3754 26.6392 43.5501 26.6385C44.7625 26.6378 45.975 26.6392 47.1874 26.6417C48.228 26.6438 49.2685 26.6445 50.309 26.6441C50.9306 26.6439 51.5523 26.6442 52.1739 26.6458C52.7585 26.6473 53.343 26.6471 53.9275 26.6456C54.1421 26.6453 54.3567 26.6456 54.5713 26.6466C54.8642 26.6478 55.1569 26.6469 55.4497 26.6454C55.5348 26.6462 55.6198 26.6471 55.7075 26.648C56.2224 26.6425 56.5459 26.5694 56.9527 26.25C57.3081 25.8852 57.3479 25.6264 57.3465 25.1242C57.347 24.9907 57.3475 24.8573 57.348 24.7197C57.3467 24.5732 57.3455 24.4267 57.3442 24.2757C57.3441 24.1173 57.3441 23.9588 57.3443 23.8004C57.3444 23.3762 57.3423 22.9521 57.3399 22.528C57.3379 22.1299 57.3378 21.7318 57.3375 21.3337C57.3357 20.1697 57.3308 19.0057 57.3262 17.8417C57.319 15.2411 57.3117 12.6404 57.3043 9.96089C49.2992 9.96089 41.2941 9.96089 33.0464 9.96089ZM9.72614 20.039C9.72614 21.9726 9.72614 23.9062 9.72614 25.8984C10.5769 25.8984 11.4277 25.8984 12.3043 25.8984C12.3288 25.1973 12.3288 25.1973 12.3497 24.4962C12.3834 23.7276 12.5362 23.2228 13.0733 22.6464C13.5445 22.2872 14.0621 22.1687 14.648 22.1484C15.3464 22.2556 15.857 22.5146 16.2886 23.0859C16.7865 24.0282 16.6851 24.7417 16.7574 25.8984C18.0722 25.8984 19.3871 25.8984 20.7418 25.8984C20.7418 23.9648 20.7418 22.0312 20.7418 20.039C17.1066 20.039 13.4714 20.039 9.72614 20.039ZM14.0621 24.0234C14.0499 24.3633 14.0452 24.7005 14.0455 25.0405C14.045 25.1472 14.0446 25.2539 14.0442 25.3638C14.0434 25.5964 14.0427 25.8289 14.0423 26.0615C14.0415 26.4294 14.0396 26.7972 14.0375 27.1651C14.0313 28.2113 14.0257 29.2575 14.0239 30.3037C14.0227 30.9429 14.0193 31.582 14.0143 32.2212C14.0129 32.4651 14.0123 32.709 14.0126 32.953C14.0128 33.2942 14.0103 33.6353 14.007 33.9765C14.0078 34.0776 14.0085 34.1787 14.0093 34.2829C14.0023 34.7335 13.9975 34.9656 13.7295 35.3393C13.3665 35.5806 13.1318 35.5188 12.7071 35.4565C12.197 35.3661 12.197 35.3661 11.7224 35.511C11.5179 35.9007 11.5956 36.149 11.7183 36.5625C11.9649 36.809 12.1767 36.9889 12.4581 37.185C12.6089 37.2958 12.7595 37.4069 12.9099 37.5183C12.9856 37.5735 13.0614 37.6288 13.1394 37.6858C13.4666 37.9327 13.7689 38.2034 14.0767 38.4741C15.5198 39.6843 17.1277 40.125 18.9839 40.0781C20.3556 39.9167 21.3042 39.2787 22.1805 38.2369C23.0778 37.0447 23.1219 35.7338 23.1096 34.2962C23.1075 34.0358 23.1072 33.7753 23.1073 33.5149C23.2077 32.212 23.2077 32.212 22.8511 31.0546C22.6559 31.0499 22.4604 31.0496 22.2652 31.0546C22.2165 31.1668 22.2165 31.1668 22.1668 31.2812C22.1243 31.3781 22.0819 31.4749 22.0381 31.5747C21.996 31.6712 21.9539 31.7677 21.9104 31.8672C21.7964 32.1093 21.7964 32.1093 21.6793 32.2265C20.922 32.2686 20.922 32.2686 20.5074 31.9921C20.3961 31.7642 20.3961 31.7642 20.3096 31.5087C20.2802 31.4238 20.2507 31.3389 20.2204 31.2515C20.1991 31.1865 20.1778 31.1216 20.1558 31.0546C19.8763 31.0396 19.8763 31.0396 19.5699 31.1718C19.4169 31.4054 19.306 31.6411 19.1945 31.8969C19.1011 32.1093 19.1011 32.1093 18.9839 32.2265C18.2267 32.2686 18.2267 32.2686 17.8121 31.9921C17.6729 31.5673 17.6729 31.5673 17.5777 31.1718C17.2968 31.0922 17.2968 31.0922 16.9918 31.0546C16.7342 31.3122 16.7036 31.4268 16.6255 31.7724C16.5917 31.9223 16.5579 32.0721 16.523 32.2265C15.7995 32.3826 15.7995 32.3826 15.3864 32.2167C15.1168 31.9921 15.1168 31.9921 15.0434 31.6586C15.0434 31.523 15.0433 31.3875 15.0432 31.2478C15.0417 31.0941 15.0401 30.9404 15.0385 30.7821C15.0397 30.6142 15.0409 30.4462 15.0421 30.2783C15.0412 30.1062 15.04 29.9341 15.0385 29.7621C15.0351 29.3091 15.035 28.8561 15.0359 28.4031C15.0367 27.678 15.0331 26.953 15.0285 26.2279C15.0275 25.9745 15.0281 25.7212 15.029 25.4678C15.0285 25.3141 15.0281 25.1604 15.0276 25.0021C15.0278 24.8665 15.0281 24.731 15.0283 24.5913C15.0245 24.234 15.0245 24.234 14.7652 23.9062C14.3798 23.8486 14.3798 23.8486 14.0621 24.0234ZM2.69489 38.0859C2.68023 38.5651 2.66969 39.0442 2.6627 39.5236C2.65978 39.6861 2.6558 39.8486 2.65068 40.0111C2.61925 41.0355 2.64647 41.9209 3.28082 42.7734C3.97754 43.4299 4.62241 43.7398 5.58868 43.7414C5.66636 43.7418 5.74405 43.7423 5.82409 43.7427C6.08486 43.7439 6.34559 43.7435 6.60635 43.743C6.79502 43.7435 6.98369 43.7442 7.17236 43.7449C7.6912 43.7465 8.21003 43.7467 8.72888 43.7467C9.28831 43.7469 9.84774 43.7484 10.4072 43.7498C11.6306 43.7524 12.8541 43.7534 14.0775 43.7539C14.8414 43.7543 15.6054 43.7551 16.3693 43.7559C18.4843 43.7582 20.5993 43.7602 22.7143 43.7605C22.9174 43.7605 22.9174 43.7605 23.1246 43.7606C23.399 43.7606 23.6734 43.7606 23.9478 43.7607C24.0841 43.7607 24.2203 43.7607 24.3606 43.7608C24.497 43.7608 24.6334 43.7608 24.7739 43.7608C26.984 43.7612 29.194 43.7644 31.4041 43.7688C33.673 43.7732 35.942 43.7755 38.211 43.7756C39.4849 43.7756 40.7589 43.7766 42.0328 43.78C43.1177 43.7829 44.2024 43.7837 45.2873 43.782C45.8407 43.7811 46.394 43.7812 46.9474 43.7839C47.4544 43.7863 47.9613 43.786 48.4683 43.7836C48.6513 43.7831 48.8343 43.7837 49.0174 43.7854C50.1616 43.7952 51.1274 43.7169 52.0185 42.9285C52.8149 42.1161 52.8909 41.1222 52.882 40.0325C52.8776 39.8194 52.8776 39.8194 52.8731 39.602C52.8707 39.3828 52.8707 39.3828 52.8683 39.1591C52.8642 38.8013 52.8584 38.4436 52.8511 38.0859C49.2204 38.0592 45.5898 38.0384 41.959 38.026C41.5304 38.0246 41.1018 38.0231 40.6732 38.0215C40.5452 38.0211 40.5452 38.0211 40.4146 38.0206C39.0328 38.0155 37.6511 38.0062 36.2694 37.9955C34.8517 37.9845 33.434 37.978 32.0162 37.9756C31.1413 37.974 30.2665 37.9689 29.3916 37.9594C28.7208 37.9525 28.0501 37.9518 27.3793 37.9533C27.1041 37.953 26.8289 37.9507 26.5537 37.9462C25.1676 37.8515 25.1676 37.8515 23.9441 38.3437C23.7588 38.6483 23.6536 38.9171 23.5543 39.2578C22.4512 40.7669 21.0065 41.4073 19.2183 41.7187C18.8171 41.7643 18.4479 41.7583 18.0464 41.7187C17.9103 41.7063 17.7742 41.6939 17.634 41.6812C15.5739 41.4516 14.1345 40.7242 12.605 39.3722C12.5077 39.2913 12.5077 39.2913 12.4085 39.2087C12.2459 39.0726 12.0875 38.9314 11.9318 38.7875C10.9919 37.9954 10.1509 37.9608 8.97769 37.9943C8.79562 37.9961 8.61355 37.9974 8.43147 37.9984C7.95647 38.0019 7.48174 38.0111 7.00684 38.0215C6.52056 38.0312 6.03424 38.0354 5.5479 38.0401C4.59677 38.0501 3.64586 38.0661 2.69489 38.0859ZM21.9136 45.4687C21.7589 46.7449 21.6043 48.021 21.4449 49.3359C21.0298 51.1181 21.0298 51.1181 20.8122 51.8718C20.7302 52.194 20.6792 52.5235 20.6246 52.8515C25.3425 52.8515 30.0605 52.8515 34.9214 52.8515C34.6894 52.0781 34.4574 51.3046 34.2183 50.5078C33.8158 48.8368 33.6715 47.1875 33.5152 45.4687C29.6867 45.4687 25.8582 45.4687 21.9136 45.4687ZM14.2452 55.415C14.1403 55.8111 14.1943 56.0892 14.2964 56.4843C14.5142 56.8255 14.7486 57.1206 15.1168 57.3046C15.4461 57.3169 15.7726 57.322 16.102 57.3219C16.2567 57.3225 16.2567 57.3225 16.4145 57.3232C16.7623 57.3245 17.11 57.3249 17.4577 57.3254C17.7061 57.3261 17.9546 57.3269 18.2031 57.3277C18.8796 57.3298 19.5561 57.331 20.2326 57.332C20.6549 57.3326 21.0772 57.3333 21.4995 57.334C22.82 57.3362 24.1404 57.3379 25.4608 57.3389C26.9868 57.34 28.5128 57.3431 30.0387 57.3479C31.2171 57.3514 32.3954 57.3531 33.5738 57.3535C34.2781 57.3538 34.9824 57.3548 35.6867 57.3578C36.3491 57.3605 37.0115 57.361 37.674 57.3598C37.9173 57.3597 38.1607 57.3605 38.404 57.3621C38.7359 57.3642 39.0676 57.3633 39.3994 57.3618C39.496 57.3631 39.5927 57.3644 39.6922 57.3657C40.1571 57.3605 40.3764 57.3388 40.777 57.08C41.1425 56.7054 41.2353 56.4955 41.2935 55.9716C41.2412 55.4656 41.1052 55.2312 40.7808 54.8437C40.3359 54.5243 39.8287 54.5757 39.3039 54.5772C39.2011 54.5766 39.0983 54.576 38.9924 54.5753C38.6473 54.5736 38.3023 54.5735 37.9572 54.5734C37.71 54.5725 37.4629 54.5715 37.2157 54.5705C36.5438 54.5679 35.8719 54.5669 35.2 54.5663C34.7804 54.5658 34.3608 54.5651 33.9412 54.5643C32.4777 54.5614 31.0142 54.5599 29.5507 54.5595C28.1858 54.559 26.821 54.5555 25.4561 54.5506C24.2848 54.5466 23.1135 54.5447 21.9422 54.5447C21.2424 54.5446 20.5426 54.5435 19.8428 54.5402C19.1847 54.5371 18.5267 54.5369 17.8685 54.5388C17.6269 54.539 17.3853 54.5382 17.1438 54.5363C16.814 54.5339 16.4844 54.5352 16.1547 54.5373C16.059 54.5357 15.9633 54.5342 15.8648 54.5326C15.0976 54.5439 14.7178 54.7986 14.2452 55.415Z" fill="#BE0B32"/>
<path d="M50.4154 14.1472C50.8588 14.4632 51.1548 14.8302 51.3286 15.3516C51.4388 16.8204 51.4388 16.8204 50.977 17.461C50.52 17.976 50.0017 18.4242 49.4811 18.8732C49.1749 19.1403 48.8748 19.4136 48.5747 19.6875C48.1311 20.0921 47.6843 20.4918 47.2302 20.8846C47.0538 21.0399 46.8799 21.1982 46.7075 21.3579C45.1902 22.7597 45.1902 22.7597 44.1216 22.8077C42.965 22.7557 42.379 22.1333 41.5613 21.3749C41.2426 21.0867 40.9129 20.8191 40.5766 20.5518C39.104 19.3583 39.104 19.3583 38.9845 18.4511C38.9738 17.6942 39.0307 17.2485 39.4927 16.6407C40.0246 16.1087 40.5129 15.8274 41.2779 15.8167C41.8889 15.8577 42.3023 16.0147 42.7739 16.4063C42.8827 16.4939 42.9914 16.5815 43.1035 16.6718C43.4252 16.9327 43.7447 17.1959 44.063 17.461C44.5579 17.0431 45.0419 16.6158 45.5205 16.1792C48.7659 13.222 48.7659 13.222 50.4154 14.1472ZM48.7752 15.7169C48.7042 15.7849 48.6332 15.8528 48.56 15.9229C48.4377 16.0371 48.4377 16.0371 48.3128 16.1536C48.2252 16.237 48.1376 16.3204 48.0473 16.4063C47.8573 16.5777 47.6669 16.7485 47.4761 16.919C47.177 17.1883 46.8786 17.4581 46.5816 17.7297C46.0898 18.1775 45.5926 18.6178 45.081 19.043C44.9439 19.1572 44.9439 19.1572 44.8041 19.2737C44.4905 19.4803 44.3229 19.5659 43.9458 19.5703C43.2552 19.2525 42.7743 18.7989 42.2511 18.2582C41.8191 17.837 41.4969 17.7275 40.8989 17.6953C40.7662 17.945 40.7662 17.945 40.7817 18.2813C41.235 18.9268 41.9635 19.4084 42.5729 19.8958C42.9354 20.1925 43.2757 20.508 43.6116 20.8342C43.8251 20.9908 43.8251 20.9908 44.0946 21.0462C44.6117 20.9337 44.9046 20.5734 45.2715 20.2076C45.429 20.0553 45.5866 19.9032 45.7443 19.7512C45.819 19.6784 45.8936 19.6057 45.9705 19.5307C46.1976 19.3116 46.431 19.102 46.6704 18.8965C47.0376 18.5804 47.3965 18.2563 47.7544 17.9297C48.2158 17.5087 48.6813 17.0932 49.1538 16.6846C49.2974 16.5579 49.4353 16.4246 49.5708 16.2891C49.5332 15.9841 49.5332 15.9841 49.4536 15.7032C49.1047 15.5693 49.1047 15.5693 48.7752 15.7169Z" fill="#BE0B32"/>
<path d="M25.69 40.0289C25.7893 40.027 25.8887 40.0251 25.991 40.0232C26.098 40.0232 26.2049 40.0232 26.3151 40.0232C26.4253 40.0223 26.5356 40.0214 26.6491 40.0205C26.8823 40.0192 27.1155 40.0189 27.3486 40.0194C27.7054 40.0195 28.062 40.0146 28.4187 40.0094C28.6452 40.0088 28.8718 40.0085 29.0983 40.0085C29.205 40.0066 29.3117 40.0047 29.4216 40.0027C30.159 40.0107 30.159 40.0107 30.5398 40.3525C30.7027 40.664 30.7027 40.664 30.6954 41.0302C30.5848 41.3693 30.518 41.5112 30.234 41.7187C29.7934 41.8656 29.3794 41.8572 28.9202 41.8597C28.8259 41.8604 28.7315 41.861 28.6343 41.8617C28.4347 41.8628 28.2352 41.8636 28.0356 41.8641C27.7311 41.8652 27.4266 41.8688 27.1221 41.8725C26.928 41.8733 26.7339 41.8739 26.5398 41.8744C26.4491 41.8758 26.3584 41.8772 26.2649 41.8787C25.6778 41.8763 25.2666 41.7904 24.8434 41.3672C24.7875 40.5008 24.7875 40.5008 24.9906 40.2422C25.2427 40.0397 25.3696 40.0325 25.69 40.0289Z" fill="#BE0B32"/>
</g>
<defs>
<clipPath id="clip0_460_492">
<rect width="60" height="60" fill="white"/>
</clipPath>
</defs>
</svg>
