<svg width="24" height="24" viewBox="0 0 24 24" fill="none" xmlns="http://www.w3.org/2000/svg">
<g clip-path="url(#clip0_460_510)">
<path d="M6.00063 1.82815C6.4214 2.18625 6.81019 2.58254 7.20126 2.97237C7.24486 3.01578 7.24486 3.01578 7.28935 3.06006C7.44273 3.21275 7.59598 3.36556 7.74912 3.5185C7.90597 3.67509 8.06325 3.83124 8.22064 3.9873C8.34301 4.10879 8.46506 4.23061 8.58704 4.35251C8.64487 4.4102 8.70281 4.46777 8.76088 4.52522C9.41306 5.17091 9.89782 5.79458 9.93813 6.75002C9.88433 7.85309 9.04251 8.59214 8.30923 9.32229C8.2446 9.38718 8.2446 9.38718 8.17867 9.45339C8.13692 9.49508 8.09517 9.53678 8.05215 9.57973C8.01482 9.61701 7.97749 9.65428 7.93903 9.69269C7.82876 9.7969 7.71416 9.89137 7.59438 9.9844C7.62176 10.2201 7.72904 10.4022 7.84341 10.6055C7.86403 10.6424 7.88466 10.6792 7.90591 10.7172C8.23266 11.2891 8.62399 11.8242 9.04751 12.3281C9.0768 12.3633 9.0768 12.3633 9.10667 12.3992C9.67627 13.0815 10.2768 13.7637 10.9527 14.3429C11.0363 14.4145 11.119 14.487 11.2014 14.56C11.8269 15.1111 12.495 15.6171 13.2194 16.0313C13.2464 16.0471 13.2733 16.0628 13.3011 16.0791C13.3838 16.1274 13.467 16.1747 13.5504 16.2217C13.5993 16.2493 13.6482 16.2769 13.6986 16.3054C13.8434 16.3655 13.8745 16.3661 14.0163 16.3125C14.1012 16.2469 14.1012 16.2469 14.1807 16.1618C14.212 16.13 14.2433 16.0982 14.2756 16.0655C14.3258 16.0136 14.3258 16.0136 14.377 15.9606C14.412 15.925 14.4471 15.8895 14.4832 15.8528C14.6329 15.7007 14.7819 15.5479 14.9309 15.395C15.0399 15.2834 15.1493 15.1723 15.2588 15.0612C15.3081 15.0101 15.3081 15.0101 15.3584 14.958C15.6672 14.6448 16.0088 14.371 16.4215 14.209C16.4668 14.1908 16.512 14.1725 16.5587 14.1537C17.1534 13.9501 17.7836 14.045 18.3405 14.3115C18.5486 14.4351 18.7245 14.5791 18.8995 14.745C18.9289 14.7727 18.9584 14.8004 18.9887 14.8289C19.4701 15.2856 19.9379 15.7566 20.407 16.2258C20.5482 16.3671 20.6898 16.5079 20.8314 16.6488C20.942 16.7589 21.0524 16.8692 21.1628 16.9796C21.2149 17.0316 21.267 17.0836 21.3193 17.1354C21.9688 17.7808 22.5381 18.4205 22.5622 19.374C22.5451 20.3859 21.9355 21.0625 21.2533 21.7491C21.2117 21.7912 21.17 21.8333 21.1271 21.8766C21.0396 21.9648 20.952 22.0528 20.8643 22.1407C20.7754 22.2297 20.687 22.3191 20.5989 22.4089C19.6558 23.3689 19.6558 23.3689 19.1256 23.625C19.0773 23.6484 19.0289 23.6719 18.9791 23.696C17.5868 24.3392 15.8833 23.9883 14.485 23.5313C14.4443 23.518 14.4037 23.5047 14.3618 23.491C11.5872 22.5677 8.97925 20.8723 6.84438 18.8906C6.7922 18.8428 6.74002 18.7949 6.68783 18.7471C5.49358 17.6474 5.49358 17.6474 5.02065 17.0435C4.9099 16.9063 4.79111 16.7779 4.67056 16.6494C4.39092 16.3487 4.14001 16.0296 3.89126 15.7031C3.86466 15.6686 3.83807 15.634 3.81067 15.5984C2.72867 14.1905 1.80264 12.6856 1.07876 11.0625C1.05652 11.0139 1.03429 10.9652 1.01138 10.9151C0.225869 9.14986 -0.425524 7.0225 0.246728 5.12112C0.536179 4.4173 1.04595 3.91942 1.57708 3.3932C1.72082 3.25039 1.86214 3.1082 1.99282 2.95315C3.03644 1.72663 4.46048 0.7526 6.00063 1.82815ZM3.75063 3.2344C3.47503 3.49581 3.20618 3.76422 2.93671 4.03191C2.8505 4.11734 2.76405 4.20252 2.67734 4.28744C2.551 4.41119 2.42547 4.53571 2.30007 4.66042C2.26169 4.69775 2.2233 4.73507 2.18375 4.77352C1.60869 5.35071 1.3941 6.03819 1.39533 6.84016C1.407 7.60105 1.59757 8.32637 1.82876 9.0469C1.84263 9.09072 1.85649 9.13454 1.87078 9.1797C2.37706 10.7521 3.18564 12.2406 4.12563 13.5938C4.14555 13.6226 4.16547 13.6513 4.18599 13.681C4.63651 14.3292 5.1177 14.9584 5.62563 15.5625C5.65629 15.5992 5.65629 15.5992 5.68757 15.6365C6.33279 16.4057 7.01545 17.1768 7.78298 17.8268C7.89947 17.9267 8.01178 18.0308 8.12466 18.1348C8.37819 18.3652 8.63787 18.5848 8.90688 18.7969C8.9396 18.8229 8.97231 18.8488 9.00601 18.8756C11.3492 20.7272 14.6377 22.8543 17.7663 22.5938C18.3942 22.5024 18.9529 22.1206 19.3532 21.6398C19.5134 21.4549 19.6842 21.2829 19.8584 21.1114C19.8867 21.0834 19.915 21.0555 19.9441 21.0268C20.0624 20.9102 20.1808 20.7938 20.2996 20.6778C20.3872 20.5922 20.4744 20.5061 20.5615 20.4199C20.588 20.3943 20.6145 20.3687 20.6418 20.3424C20.9039 20.0819 21.1239 19.7985 21.1559 19.4209C21.1385 18.7376 20.294 18.1283 19.8403 17.6706C19.8129 17.643 19.7855 17.6153 19.7573 17.5869C19.6128 17.4412 19.4682 17.2956 19.3235 17.1502C19.2048 17.0309 19.0865 16.9113 18.9685 16.7914C18.8244 16.645 18.6797 16.4991 18.5346 16.3536C18.4799 16.2987 18.4255 16.2435 18.3713 16.1882C17.9012 15.685 17.9012 15.685 17.2741 15.4614C16.8103 15.4816 16.5187 15.8081 16.2155 16.1217C16.1333 16.2053 16.0511 16.2888 15.9688 16.3724C15.8406 16.5035 15.7126 16.6348 15.5847 16.7661C15.4604 16.8935 15.3356 17.0203 15.2107 17.1471C15.1543 17.2056 15.1543 17.2056 15.0968 17.2652C14.8235 17.5421 14.5292 17.797 14.1464 17.9C13.6655 17.9014 13.3033 17.7101 12.8913 17.4844C12.8374 17.4554 12.8374 17.4554 12.7824 17.4258C11.7882 16.8874 10.8815 16.1965 10.0509 15.4311C9.95607 15.3445 9.85978 15.2605 9.76254 15.1767C9.55365 14.9944 9.35725 14.8011 9.16177 14.6045C9.1282 14.5711 9.09463 14.5377 9.06005 14.5033C8.84305 14.286 8.63822 14.0611 8.43813 13.8281C8.39474 13.779 8.35129 13.7299 8.30776 13.6809C6.08647 11.1533 6.08647 11.1533 6.06948 9.78756C6.1345 9.44478 6.32743 9.20804 6.57485 8.97366C6.61247 8.93672 6.61247 8.93672 6.65084 8.89904C6.78679 8.7668 6.92669 8.64043 7.07034 8.51662C7.29553 8.32104 7.50651 8.11215 7.71743 7.90139C7.75586 7.86353 7.79429 7.82568 7.83389 7.78667C8.33718 7.30257 8.33718 7.30257 8.53188 6.65627C8.46502 6.04373 7.73606 5.52403 7.32284 5.10958C7.29255 5.07916 7.26226 5.04873 7.23105 5.01739C7.07128 4.85693 6.91139 4.6966 6.75138 4.53638C6.58667 4.37142 6.42241 4.20602 6.25824 4.04052C6.1312 3.91261 6.00384 3.78501 5.8764 3.6575C5.81568 3.59663 5.75507 3.53565 5.69459 3.47455C5.61015 3.38932 5.52529 3.30454 5.4403 3.21985C5.41567 3.1948 5.39105 3.16974 5.36568 3.14392C4.79885 2.5834 4.27068 2.74992 3.75063 3.2344Z" fill="#BE0B32"/>
<path d="M14.16 0.123066C14.211 0.135891 14.262 0.148716 14.3146 0.16193C16.2912 0.667351 18.0942 1.5678 19.6414 2.90627C19.6811 2.93986 19.7207 2.97346 19.7615 3.00808C20.3442 3.51593 20.9068 4.07235 21.3758 4.68752C21.4124 4.73326 21.449 4.779 21.4868 4.82613C22.2291 5.75796 22.808 6.8011 23.2527 7.90418C23.2926 8.00309 23.3336 8.10147 23.3748 8.19985C23.6815 8.96543 24.1292 10.086 24.0008 10.9219C23.89 11.1477 23.7579 11.2799 23.5321 11.3906C23.2674 11.4329 23.0542 11.402 22.8289 11.25C22.6763 11.0845 22.6114 10.9542 22.5645 10.7349C22.5523 10.6801 22.54 10.6254 22.5274 10.5689C22.5148 10.5104 22.5021 10.4519 22.4891 10.3916C22.1187 8.76484 21.4817 7.22241 20.4561 5.8962C20.3904 5.81116 20.3256 5.72546 20.2609 5.63967C19.9983 5.29509 19.7209 4.9869 19.4071 4.68752C19.2968 4.57829 19.1874 4.46867 19.0806 4.3561C17.6698 2.88666 15.5773 1.89928 13.5986 1.4991C13.5606 1.49132 13.5227 1.48354 13.4836 1.47552C13.4116 1.46109 13.3393 1.44742 13.267 1.43471C13.0188 1.38566 12.8843 1.30374 12.7039 1.12502C12.5794 0.91205 12.5402 0.750893 12.5833 0.511982C12.6417 0.316392 12.7407 0.181574 12.9052 0.0634877C13.2823 -0.125178 13.7727 0.0229268 14.16 0.123066Z" fill="#BE0B32"/>
<path d="M16.7015 5.8429C17.0136 6.09179 17.2959 6.37434 17.5779 6.65626C17.6065 6.68272 17.6351 6.70919 17.6647 6.73646C18.708 7.71545 19.6077 9.45524 19.6609 10.8955C19.6542 11.1267 19.6166 11.2649 19.4529 11.4375C19.2751 11.5768 19.1146 11.6132 18.8904 11.625C18.6632 11.5787 18.4732 11.48 18.3279 11.2969C18.2604 11.1456 18.225 10.9891 18.1872 10.8281C17.8619 9.53968 17.3252 8.50256 16.406 7.54688C16.377 7.51437 16.348 7.48186 16.3181 7.44837C15.5028 6.5639 14.2855 6.03746 13.1313 5.78683C12.839 5.72319 12.6366 5.67563 12.4613 5.42267C12.3673 5.23595 12.3607 5.08138 12.3747 4.87501C12.4635 4.62858 12.5869 4.50617 12.7966 4.35938C13.9871 4.01924 15.8008 5.15468 16.7015 5.8429Z" fill="#BE0B32"/>
</g>
<defs>
<clipPath id="clip0_460_510">
<rect width="24" height="24" fill="white"/>
</clipPath>
</defs>
</svg>
