<?xml version="1.0" encoding="UTF-8"?>
<svg xmlns="http://www.w3.org/2000/svg" version="1.1" viewBox="0 0 44 50">
  <!-- Generator: Adobe Illustrator 29.2.1, SVG Export Plug-In . SVG Version: 2.1.0 Build 116)  -->
  <defs>
    <style>
      .st0, .st1 {
        isolation: isolate;
      }

      .st1 {
        mix-blend-mode: multiply;
        opacity: .6;
      }

      .st1, .st2 {
        fill: #fff;
      }
    </style>
  </defs>
  <g class="st0">
    <g id="Layer_1">
      <g>
        <g>
          <polygon class="st2" points="23.4 23.8 23.4 37.6 16.7 37.6 16.7 21.6 23.4 23.8"/>
          <polygon class="st2" points="11.3 34.8 11.3 23.4 16.7 21.6 16.7 33 11.3 34.8"/>
          <polygon class="st1" points="11.3 34.8 11.3 23.4 16.7 21.6 16.7 33 11.3 34.8"/>
        </g>
        <g>
          <polygon class="st2" points="16.7 14.9 16.7 21.3 24.6 18.6 24.6 12.4 16.7 14.9"/>
          <polygon class="st1" points="16.7 14.9 16.7 21.3 24.6 18.6 24.6 12.4 16.7 14.9"/>
          <polygon class="st2" points="32.7 15 32.7 37.6 24.6 37.6 24.6 12.4 24.6 12.4 32.7 15"/>
        </g>
      </g>
    </g>
  </g>
</svg>