<svg width="126" height="50" viewBox="0 0 126 50" fill="none" xmlns="http://www.w3.org/2000/svg">
<path d="M60.125 34.8899V16.1399H64V34.8899H60.125ZM67.4902 34.8899V22.3899H70.7402V23.7649C71.1847 23.1816 71.7333 22.7371 72.3861 22.4316C73.0527 22.126 73.7472 21.9732 74.4694 21.9732C75.2055 21.9732 75.9 22.126 76.5527 22.4316C77.2055 22.7371 77.7541 23.1816 78.1986 23.7649C78.6847 23.1816 79.2888 22.7371 80.0111 22.4316C80.7333 22.126 81.518 21.9732 82.3652 21.9732C83.2541 21.9732 84.0875 22.1816 84.8652 22.5982C85.643 23.001 86.275 23.5982 86.7611 24.3899C87.2472 25.1677 87.4902 26.1191 87.4902 27.2441V34.8899H83.8652V27.7649C83.8652 27.0982 83.6708 26.5079 83.2819 25.9941C82.893 25.4802 82.3305 25.2232 81.5944 25.2232C81.2055 25.2232 80.8305 25.3204 80.4694 25.5149C80.1222 25.6954 79.8375 25.9732 79.6152 26.3482C79.4069 26.7093 79.3027 27.1677 79.3027 27.7232V34.8899H75.6777V27.7649C75.6777 27.3204 75.5875 26.9038 75.4069 26.5149C75.2402 26.126 74.9833 25.8135 74.6361 25.5774C74.3027 25.3413 73.893 25.2232 73.4069 25.2232C73.018 25.2232 72.643 25.3204 72.2819 25.5149C71.9347 25.6954 71.65 25.9732 71.4277 26.3482C71.2194 26.7093 71.1152 27.1677 71.1152 27.7232V34.8899H67.4902ZM90.0319 34.8899V22.3899H93.6569V34.8899H90.0319ZM91.8444 20.5774C91.4833 20.5774 91.1569 20.4941 90.8652 20.3274C90.5736 20.1468 90.3375 19.9107 90.1569 19.6191C89.9902 19.3274 89.9069 19.001 89.9069 18.6399C89.9069 18.2649 89.9902 17.9316 90.1569 17.6399C90.3375 17.3482 90.5736 17.1191 90.8652 16.9524C91.1569 16.7857 91.4833 16.7024 91.8444 16.7024C92.2194 16.7024 92.5527 16.7857 92.8444 16.9524C93.1361 17.1191 93.3652 17.3482 93.5319 17.6399C93.6986 17.9316 93.7819 18.2649 93.7819 18.6399C93.7819 19.001 93.6986 19.3274 93.5319 19.6191C93.3652 19.9107 93.1361 20.1468 92.8444 20.3274C92.5527 20.4941 92.2194 20.5774 91.8444 20.5774ZM101.894 41.5566C101.241 41.5566 100.609 41.4941 99.998 41.3691C99.3869 41.2441 98.8105 41.0566 98.2689 40.8066C97.7411 40.5704 97.2619 40.2927 96.8314 39.9732L97.7064 36.3899C98.1508 36.9871 98.7342 37.4732 99.4564 37.8482C100.179 38.2371 100.991 38.4316 101.894 38.4316C102.755 38.4316 103.484 38.2649 104.081 37.9316C104.679 37.5982 105.137 37.1399 105.456 36.5566C105.776 35.9732 105.936 35.2996 105.936 34.5357V33.6607C105.463 34.1468 104.894 34.5288 104.227 34.8066C103.574 35.0843 102.852 35.2232 102.061 35.2232C101.199 35.2232 100.387 35.0566 99.623 34.7232C98.873 34.376 98.2133 33.9038 97.6439 33.3066C97.0744 32.6954 96.623 31.9941 96.2897 31.2024C95.9703 30.3968 95.8105 29.5427 95.8105 28.6399C95.8105 27.7371 95.9703 26.8899 96.2897 26.0982C96.623 25.2927 97.0744 24.5913 97.6439 23.9941C98.2133 23.3829 98.873 22.9107 99.623 22.5774C100.387 22.2302 101.199 22.0566 102.061 22.0566C102.866 22.0566 103.602 22.2024 104.269 22.4941C104.936 22.7718 105.505 23.1607 105.977 23.6607V22.3899H109.102V35.0566C109.102 36.4177 108.769 37.5843 108.102 38.5566C107.436 39.5288 106.554 40.2718 105.456 40.7857C104.359 41.2996 103.172 41.5566 101.894 41.5566ZM102.498 32.0357C103.109 32.0357 103.665 31.8829 104.165 31.5774C104.665 31.2718 105.061 30.8621 105.352 30.3482C105.658 29.8343 105.811 29.2649 105.811 28.6399C105.811 28.0149 105.658 27.4454 105.352 26.9316C105.061 26.4177 104.665 26.0079 104.165 25.7024C103.665 25.3968 103.109 25.2441 102.498 25.2441C101.887 25.2441 101.331 25.3968 100.831 25.7024C100.331 26.0079 99.9286 26.4177 99.623 26.9316C99.3314 27.4454 99.1855 28.0149 99.1855 28.6399C99.1855 29.2649 99.3314 29.8343 99.623 30.3482C99.9286 30.8621 100.331 31.2718 100.831 31.5774C101.331 31.8829 101.887 32.0357 102.498 32.0357ZM117.971 35.3066C117.04 35.3066 116.165 35.1329 115.346 34.7857C114.526 34.4385 113.804 33.9593 113.179 33.3482C112.568 32.7371 112.089 32.0288 111.742 31.2232C111.394 30.4177 111.221 29.5566 111.221 28.6399C111.221 27.7232 111.394 26.8621 111.742 26.0566C112.089 25.251 112.568 24.5427 113.179 23.9316C113.804 23.3204 114.526 22.8413 115.346 22.4941C116.165 22.1468 117.04 21.9732 117.971 21.9732C118.901 21.9732 119.776 22.1468 120.596 22.4941C121.415 22.8413 122.13 23.3204 122.742 23.9316C123.367 24.5427 123.853 25.251 124.2 26.0566C124.547 26.8621 124.721 27.7232 124.721 28.6399C124.721 29.5566 124.547 30.4177 124.2 31.2232C123.853 32.0288 123.367 32.7371 122.742 33.3482C122.13 33.9593 121.415 34.4385 120.596 34.7857C119.776 35.1329 118.901 35.3066 117.971 35.3066ZM117.971 32.0566C118.596 32.0566 119.158 31.9038 119.658 31.5982C120.172 31.2927 120.575 30.8829 120.867 30.3691C121.172 29.8413 121.325 29.2649 121.325 28.6399C121.325 28.001 121.172 27.4246 120.867 26.9107C120.575 26.3968 120.172 25.9871 119.658 25.6816C119.158 25.376 118.596 25.2232 117.971 25.2232C117.346 25.2232 116.776 25.376 116.262 25.6816C115.762 25.9871 115.36 26.3968 115.054 26.9107C114.762 27.4246 114.617 28.001 114.617 28.6399C114.617 29.2649 114.762 29.8413 115.054 30.3691C115.36 30.8829 115.762 31.2927 116.262 31.5982C116.776 31.9038 117.346 32.0566 117.971 32.0566Z" fill="#002768"/>
<path d="M38.098 0H5.63098C2.52127 0 0 2.48136 0 5.54216V28.3899C0 28.4302 0.000260783 28.4709 0.000260783 28.5112C0.0291835 33.6541 6.42793 36.1499 10.0985 32.4897L23.079 19.5467L14.3872 14.2792L16.5761 12.1244L27.0038 15.5211L31.2241 11.1925C31.9054 10.4937 33.0134 10.3121 33.8309 10.8509C34.9402 11.582 35.0322 13.0784 34.1217 13.9386L29.6689 18.1443L33.1199 28.4082L30.931 30.5627L25.5792 22.0077L14.6499 33.1758C8.52904 39.4304 12.9353 49.9224 21.758 49.9992C21.8237 49.9997 21.8897 50 21.9557 50C34.0814 50 43.9115 40.3248 43.9115 28.3896V5.72176C43.9115 2.56184 41.3087 0 38.098 0Z" fill="#BE0B32"/>
<mask id="mask0_12_154" style="mask-type:luminance" maskUnits="userSpaceOnUse" x="0" y="0" width="44" height="50">
<path d="M38.098 0H5.63098C2.52127 0 0 2.48136 0 5.54216V28.3899C0 28.4302 0.000260783 28.4709 0.000260783 28.5112C0.0291835 33.6541 6.42793 36.1499 10.0985 32.4897L23.079 19.5467L14.3872 14.2792L16.5761 12.1244L27.0038 15.5211L31.2241 11.1925C31.9054 10.4937 33.0134 10.3121 33.8309 10.8509C34.9402 11.582 35.0322 13.0784 34.1217 13.9386L29.6689 18.1443L33.1199 28.4082L30.931 30.5627L25.5792 22.0077L14.6499 33.1758C8.52904 39.4304 12.9353 49.9224 21.758 49.9992C21.8237 49.9997 21.8897 50 21.9557 50C34.0814 50 43.9115 40.3248 43.9115 28.3896V5.72176C43.9115 2.56184 41.3087 0 38.098 0Z" fill="white"/>
</mask>
<g mask="url(#mask0_12_154)">
<g opacity="0.26">
<path d="M19.2959 36.3844C19.0351 36.2299 18.7327 36.1608 18.4356 36.0956C18.2463 36.0542 18.0567 36.0133 17.8674 35.9726C17.3197 35.8549 16.7717 35.7369 16.2238 35.6191C16.0061 35.5723 15.746 35.4851 15.7045 35.2695C15.68 35.1429 15.7445 35.0182 15.7742 34.8927C15.8039 34.7672 15.776 34.602 15.6511 34.5632C15.5228 34.2094 15.1337 33.9918 14.784 33.8407C14.4345 33.6895 14.0575 33.5951 13.7333 33.3968C13.4377 33.2157 13.1961 32.9507 13.0452 32.6417C12.8125 32.1652 12.0053 32.1854 11.4707 32.2379C11.2491 32.2597 11.0324 32.3163 10.8171 32.3728C10.394 32.4835 9.9707 32.594 9.54764 32.7048C9.50373 32.7162 9.45851 32.7273 9.41276 32.7374C9.41144 32.7377 9.41066 32.7382 9.40934 32.7384C9.40356 32.74 9.39803 32.7403 9.39225 32.7415C9.35544 32.7496 9.31837 32.7563 9.28103 32.7623C8.79934 32.842 8.46357 32.6556 8.38863 32.6284L8.3889 32.6274C8.25848 32.5723 8.13464 32.4843 8.04787 32.3966C7.90037 32.2475 7.83174 32.0366 7.81833 31.829C7.80466 31.6215 7.80282 31.4209 7.82043 31.2136C7.8349 31.0433 7.66215 30.9082 7.49177 30.8759C7.32112 30.8435 7.14522 30.8787 6.97169 30.8678C6.79841 30.857 6.60647 30.7783 6.5552 30.615C6.52365 30.5146 6.55283 30.4062 6.58596 30.306C6.66958 30.0539 6.70954 29.7297 6.93303 29.5814C7.0666 29.4926 7.22489 29.3653 7.18334 29.2121C7.15942 29.1236 7.06897 29.0635 6.97668 29.0524C6.88439 29.0413 6.79158 29.071 6.70875 29.1122C6.27517 29.3277 6.01303 29.8583 5.53186 29.9238C5.128 29.9786 4.75253 29.6507 4.61738 29.2721C4.4825 28.8935 4.51168 28.4608 4.5293 28.0599C4.54796 27.6329 4.8719 27.2356 5.2918 27.1256C5.49636 27.0721 5.71171 27.0819 5.92284 27.0661C6.13398 27.0503 6.31015 26.9225 6.50892 26.8505C6.79263 26.7478 7.12603 26.7887 7.37555 26.9569C7.76574 27.2198 7.89984 27.7167 8.17171 28.0977C8.24507 28.2007 8.36024 28.3065 8.48355 28.2726C8.57768 28.247 8.63264 28.1443 8.63369 28.048C8.63474 27.952 8.64657 27.8249 8.64158 27.7289C8.62817 27.4719 8.6145 27.2128 8.65262 26.9584C8.69075 26.7038 8.78461 26.4509 8.96104 26.261C9.24474 25.9559 9.74405 25.8624 9.84397 25.4605C9.9239 25.1383 10.1895 24.8938 10.4676 24.7066C10.7458 24.5195 11.0524 24.3663 11.2883 24.1295C11.4862 23.9308 11.5975 23.6743 11.7266 23.4266C11.9014 23.091 12.2472 22.8472 12.6263 22.7923C12.8953 22.7535 13.2187 22.7843 13.3854 22.5729C13.515 22.4085 13.4777 22.1647 13.3691 21.9862C13.2605 21.8076 13.0941 21.6717 12.9563 21.5141C12.8185 21.3565 12.7005 21.1611 12.7294 20.9551C12.7578 20.7517 12.9213 20.5853 13.1109 20.5001C13.3005 20.415 13.514 20.3982 13.7225 20.3943C14.0985 20.3873 14.4845 20.4158 14.8415 20.2998C15.1986 20.1839 15.5262 19.8715 15.5086 19.5017C15.492 19.1534 15.1939 18.8933 14.9401 18.65C14.8337 18.548 14.7335 18.4173 14.6593 18.2766C14.6562 18.2711 14.6528 18.2672 14.6496 18.2615C14.642 18.2476 14.6378 18.2341 14.6307 18.2204C14.6249 18.2077 14.6188 18.1956 14.6136 18.1829C14.4251 17.7706 14.5031 17.4086 14.5097 17.3024C14.5202 17.173 14.5116 17.0201 14.403 16.9461C14.272 16.8568 14.0925 16.9453 13.9741 17.0501C13.8555 17.1549 13.7335 17.2856 13.5742 17.2851C13.3765 17.2843 13.2429 17.0737 13.2253 16.8798C13.2077 16.686 13.2645 16.4919 13.2529 16.2978C13.2327 15.9554 12.9145 15.7453 12.6471 15.5255C12.4557 15.3682 12.1707 15.2986 11.9519 15.4163C11.7952 15.5004 11.6995 15.6606 11.6114 15.8133C11.4342 16.1203 11.2525 16.4401 11.2246 16.7921C11.2044 17.047 11.2667 17.3037 11.2404 17.5581C11.227 17.6883 11.1807 17.84 11.1045 17.9624C11.1037 17.9637 11.1037 17.9644 11.1029 17.966C10.9872 18.1438 10.805 18.4577 10.7947 18.6086C10.7729 18.8418 10.7256 19.0729 10.6467 19.2939C10.612 19.3912 10.5647 19.4947 10.4708 19.5408C10.338 19.606 10.1711 19.5198 10.0938 19.3951C10.0165 19.2703 10.0033 19.1189 9.98201 18.9745C9.83319 17.974 9.13694 17.0405 8.21852 16.5879C7.85725 16.4099 7.76048 15.9158 7.90694 15.5452C8.05339 15.1746 8.37575 14.9029 8.69337 14.6568C9.30049 14.1863 9.9402 13.8043 10.5634 13.3545C10.8137 13.1738 11.0637 12.9932 11.314 12.8126C11.5404 12.6493 11.7789 12.4697 11.8699 12.2083C11.918 12.0698 11.9196 11.9202 11.949 11.7768C11.9785 11.6335 12.046 11.4844 12.1783 11.4176C12.4015 11.3051 12.661 11.4795 12.8346 11.6578C13.0904 11.9207 13.2508 12.2455 13.4391 12.5574C13.4401 12.5592 13.4404 12.5605 13.4414 12.5623C13.6991 12.9997 13.4751 13.3232 13.2613 13.4378C12.9582 13.6006 12.655 13.7634 12.3518 13.9262C12.2309 13.9911 12.0899 14.0998 12.1299 14.2297C12.1722 14.3674 12.3629 14.3708 12.5075 14.3907C12.7607 14.4254 12.9789 14.5941 13.1283 14.7986C13.2776 15.003 13.4664 15.222 13.525 15.467C13.5732 15.6687 13.8074 15.7955 14.0146 15.759C14.2218 15.7227 14.3877 15.5506 14.4516 15.3534C14.5155 15.156 14.4884 14.9388 14.4166 14.7442C14.3449 14.5496 14.3472 14.3017 14.1887 14.1656C14.0946 14.0848 14.1371 13.9042 14.2578 13.8726C14.3504 13.8483 14.4466 13.9031 14.5118 13.972C14.5773 14.0408 14.6246 14.1257 14.6956 14.1891C14.8118 14.2934 15.0022 14.3141 15.1623 14.2644C15.2451 14.2308 15.4011 14.1179 15.3054 13.817C15.191 13.4751 15.0766 13.1332 14.9622 12.7913C14.8523 12.4629 14.7424 12.1342 14.6325 11.8058C14.5436 11.5403 14.4048 11.2888 14.1627 11.1425C13.6857 10.8542 13.2845 10.4456 13.0078 9.96682C12.8872 9.75797 12.788 9.53359 12.6253 9.35424C12.4625 9.17515 12.1349 8.88711 11.933 9.02195C11.5512 9.27609 11.2588 9.65833 11.1163 10.0897C11.0611 10.2572 11.028 10.4402 11.0821 10.6079C11.1379 10.7805 11.2772 10.9122 11.38 11.0623C11.4828 11.2127 11.4818 11.4083 11.4166 11.5776C11.3637 11.7147 11.309 11.8553 11.2107 11.9655C11.1124 12.0758 10.9596 12.1511 10.8142 12.1182C10.6309 12.0768 10.5265 11.8876 10.469 11.7111C10.3825 11.4448 10.3793 11.1625 10.4056 10.884C10.445 10.466 10.4845 10.0481 10.5239 9.63012C10.5357 9.50383 10.551 9.36951 10.6328 9.27169C10.7498 9.13194 10.9557 9.11589 11.136 9.08044C11.3164 9.04498 11.5223 8.93939 11.5262 8.75849C11.5286 8.65652 11.4584 8.56154 11.3666 8.5147C11.2749 8.4676 11.1652 8.46346 11.0635 8.48261C10.749 8.54265 10.5184 8.80507 10.3449 9.06982C10.064 9.49839 10.0477 10.0421 9.80873 10.4945C9.69383 10.7122 9.68621 10.9673 9.68542 11.2127C9.68463 11.458 9.68647 11.7114 9.58735 11.9365C9.48822 12.1614 9.25684 12.3506 9.00994 12.3195C8.77988 12.2906 8.61791 12.0936 8.44438 11.9422C8.18355 11.715 7.8115 11.7093 7.49598 11.5641C7.35925 11.5012 7.20044 11.5734 7.07029 11.6487C6.9404 11.7241 6.79157 11.8074 6.64722 11.7644C6.51917 11.7261 6.44214 11.6024 6.35379 11.5036C6.11557 11.2378 5.71486 11.266 5.36437 11.1845C5.29548 11.1684 5.22449 11.1513 5.16901 11.1084C5.11353 11.0654 5.07777 10.9891 5.10486 10.9249C5.13115 10.8623 5.20398 10.8333 5.27103 10.8185C5.33834 10.8038 5.41117 10.7952 5.46324 10.751C5.51556 10.707 5.53712 10.584 5.4961 10.5297C5.33887 10.3211 5.14482 10.133 4.9187 10.0012L4.91844 10.0007C4.83877 9.95103 4.67759 9.86485 4.61186 9.80843C4.61054 9.80714 4.60923 9.80611 4.60791 9.80507C4.60397 9.80171 4.59924 9.79782 4.59634 9.79472L4.59476 9.79601C4.52193 9.73726 4.42202 9.70543 4.3271 9.68654C4.19195 9.65962 4.04445 9.63866 3.94742 9.54239C3.85093 9.44664 3.82989 9.30093 3.76179 9.1837C3.66293 9.01341 3.4681 8.91403 3.27142 8.88142C3.07475 8.84881 2.8531 8.79731 2.66221 8.85347C2.37035 8.93913 2.0777 9.02479 1.77691 9.07241C1.64754 9.09286 1.51398 9.10631 1.38619 9.07733C1.2584 9.04834 1.16007 8.89539 1.05752 8.81517C0.353124 8.26393 -0.425685 7.73055 -0.885556 6.96942C-1.05042 6.69665 -1.32124 6.4878 -1.62992 6.39541C-1.93834 6.30328 -2.34142 6.24531 -2.60067 6.43397C-2.86334 6.62522 -3.12628 6.81647 -3.38895 7.00772C-3.50674 7.09338 -3.62927 7.18137 -3.7723 7.21217C-3.93059 7.24633 -4.11149 7.21114 -4.24348 7.30353C-4.33209 7.36538 -4.37705 7.47408 -4.38625 7.58044C-4.39519 7.68707 -4.42149 7.81129 -4.38284 7.91119C-4.25084 8.2515 -4.1341 8.70802 -4.2958 9.03566C-4.36127 9.16817 -4.54296 9.20285 -4.68837 9.16817C-4.83377 9.13349 -4.96208 9.04886 -5.10433 9.00357C-5.32729 8.9324 -5.58181 8.96501 -5.77901 9.08975C-5.97621 9.21449 -6.01907 9.4236 -6.09164 9.64306C-6.14291 9.79756 -6.06482 9.98338 -5.91758 10.0571C-5.66569 10.1834 -5.31756 9.95465 -5.04569 10.0313C-4.97102 10.0023 -4.88872 10.0786 -4.88425 10.1576C-4.88004 10.2365 -4.92789 10.3082 -4.97917 10.369C-5.24946 10.6889 -5.64939 10.8677 -6.03011 11.0486C-6.41058 11.2295 -6.83863 11.4306 -6.99534 11.8167C-7.09657 12.0659 -7.07712 12.3597 -6.94407 12.5941C-6.89779 12.6757 -6.83864 12.7504 -6.80025 12.8361C-6.76212 12.9218 -6.70375 13.0558 -6.76791 13.1247C-6.84337 13.2057 -6.86861 13.3286 -6.83075 13.4319C-6.79315 13.5351 -6.68403 13.5822 -6.57281 13.5897C-6.47552 13.5962 -6.37561 13.6034 -6.28647 13.6423C-6.19707 13.6813 -6.11898 13.759 -6.10873 13.8547C-6.09401 13.9914 -6.21338 14.1021 -6.32223 14.1886C-6.53494 14.3576 -6.74792 14.5266 -6.96064 14.6956C-7.0219 14.7442 -7.08947 14.8066 -7.08158 14.884C-7.07422 14.9554 -6.99981 15.0056 -6.92724 15.0121C-6.85441 15.0186 -6.78342 14.9922 -6.71532 14.966C-6.40348 14.847 -6.10189 14.6764 -5.77428 14.6102C-5.50241 14.5553 -5.31073 14.3115 -5.20187 14.0605C-5.09275 13.8094 -5.04069 13.5354 -4.91186 13.2937C-4.7867 13.0584 -4.59029 12.8607 -4.35444 12.7323C-4.26215 12.6821 -4.15303 12.6415 -4.05259 12.6736C-3.95215 12.7054 -3.91587 12.8211 -3.96346 12.914C-4.02761 13.0395 -4.14751 13.1265 -4.25742 13.216C-4.36732 13.3058 -4.47644 13.4125 -4.50378 13.5504C-4.53113 13.6883 -4.46435 13.7862 -4.32157 13.783C-4.10965 13.8151 -3.91534 13.6697 -3.76047 13.5237C-3.6056 13.3778 -3.4155 13.2036 -3.20121 13.2036C-2.58621 13.2033 -2.08874 13.8159 -1.67856 14.2667C-1.36541 14.6107 -1.05515 14.9678 -0.863734 15.3897C-0.526127 16.134 -0.379672 17.0123 -0.611316 17.7947C-0.74252 18.2377 -0.598171 18.7481 -0.253466 19.0607C-0.134094 19.1692 0.0128846 19.2636 0.0665231 19.4145C0.121213 19.568 0.0628438 19.7359 0.00499821 19.8883C-0.316832 20.7362 -0.774073 21.5154 -0.883979 22.4142C-0.985734 23.2473 -0.997039 24.1981 -0.454345 24.8451C0.146721 25.5617 0.326565 26.4489 0.602645 27.3376C0.732008 27.7542 0.923426 28.1523 1.16848 28.5149C1.24447 28.6272 1.34465 28.747 1.4819 28.7527C1.56709 28.7563 1.65254 28.709 1.6933 28.6352C1.73431 28.5614 1.71196 28.4473 1.70197 28.364C1.67778 28.16 1.55525 27.9825 1.44088 27.8107C1.19267 27.4383 0.827456 27.0118 0.8009 26.5671C0.792486 26.4261 0.78407 26.2853 0.775656 26.1445C0.773027 26.1018 0.770924 26.0576 0.785911 26.0175C0.801161 25.9773 0.83876 25.9421 0.882144 25.9432C0.925529 25.9445 1.02465 26.0074 1.00283 26.0444C1.03096 26.5822 1.3762 27.0464 1.70749 27.475C1.90022 27.7242 2.21706 27.9965 2.29436 28.3003C2.43556 28.8547 2.64222 29.4015 2.98719 29.8611C3.33216 30.3208 3.8107 30.7051 4.37679 30.8319C4.87453 30.9434 5.42379 31.0785 5.92757 31.1598C6.43582 31.2418 6.89044 31.5948 7.08974 32.0622C7.21411 32.3536 7.25302 32.6957 7.47994 32.9191C7.72788 33.1631 8.15068 33.1432 8.49933 33.1789C8.72624 33.2022 8.93974 33.3316 9.0628 33.5205C9.18585 33.7097 9.21635 33.9545 9.14299 34.1673C9.07095 34.3766 8.91055 34.5425 8.78645 34.7268C8.49275 35.1631 8.57742 35.7012 8.48671 36.2167C8.34393 37.0272 8.80301 37.8101 9.24369 38.5091C9.59734 39.0699 9.7948 39.7488 10.3241 40.154C10.9599 40.6408 11.3011 41.4268 11.4092 42.2125C11.5173 42.9982 11.6974 43.9195 11.3921 44.6532C11.034 45.5137 10.6701 46.4563 10.9304 47.3502C11.0663 47.8168 11.3635 48.2257 11.501 48.6918C11.6111 49.0655 11.6143 49.4607 11.6711 49.846C11.7279 50.2314 11.8517 50.6297 12.1452 50.8905C12.4583 51.169 12.6673 51.5577 12.9908 51.8248C13.1096 51.9229 13.244 52.0168 13.3986 52.0313C13.5532 52.0458 13.728 51.9503 13.7462 51.7986C13.7559 51.7174 13.7209 51.6379 13.6867 51.5631C13.4982 51.1511 13.3097 50.7391 13.1214 50.3271C13.0483 50.1674 13.1017 50.0158 13.1835 49.8602C13.2655 49.7047 13.3944 49.5784 13.4898 49.4304C13.5852 49.2826 13.6457 49.0927 13.5729 48.933C13.4998 48.773 13.31 48.6801 13.2611 48.5117C13.2203 48.3719 13.2916 48.2226 13.387 48.1115C13.4824 48.0005 13.6034 47.9115 13.6912 47.7943C13.9047 47.5098 13.8682 47.0717 13.6108 46.8251C13.5461 46.5826 13.6988 46.3046 13.8782 46.1266C14.0575 45.9488 14.2904 45.8352 14.5142 45.7161C14.738 45.5968 14.9638 45.463 15.1124 45.2596C15.0863 45.0042 15.1876 44.7578 15.3848 44.5901C15.582 44.4221 15.8168 44.2995 16.0056 44.1224C16.5238 43.6372 16.5972 42.8621 16.9027 42.2255C17.1945 41.617 17.7217 41.1217 18.3528 40.8629C18.6462 40.4255 18.7848 39.8318 18.8087 39.308C18.8205 39.0484 18.7976 38.785 18.855 38.5314C18.912 38.2778 19.0716 38.0254 19.3238 37.9486C19.6146 37.8601 19.8249 37.3911 19.7986 37.0927C19.7737 36.7954 19.5567 36.5389 19.2959 36.3844Z" fill="#002768"/>
<path d="M2.98245 8.23758C2.83625 8.39752 2.76842 8.62423 2.80339 8.8367C2.83836 9.04917 2.97508 9.24327 3.16518 9.3499C3.2388 9.39131 3.32084 9.42081 3.38316 9.47748C3.44521 9.53416 3.48176 9.63147 3.43679 9.70212C3.38237 9.78778 3.25248 9.78054 3.15703 9.74379C3.06159 9.70704 2.96377 9.65036 2.8636 9.67158C2.75501 9.69462 2.68533 9.80667 2.67613 9.91563C2.66692 10.0246 2.70479 10.1315 2.74212 10.2345C2.81496 10.4358 2.91198 10.6615 3.11786 10.7293C3.41392 10.8269 3.72103 10.5305 4.02682 10.5908C4.17984 10.6209 4.29974 10.735 4.4057 10.8476C4.51167 10.9604 4.61921 11.0815 4.76566 11.1346C4.91185 11.1879 5.10879 11.1423 5.16348 10.9987C5.21265 10.8688 5.12956 10.7244 5.14902 10.587C5.17452 10.4073 5.35778 10.3007 5.49136 10.176C5.85526 9.83644 5.88838 9.28675 5.89759 8.79322C5.89943 8.69876 5.90074 8.60197 5.8684 8.51294C5.83606 8.42392 5.76218 8.34343 5.66726 8.32997C5.49372 8.30565 5.37961 8.49302 5.2697 8.62759C5.1782 8.73991 4.95182 8.95601 4.78959 8.90244C4.61631 8.8455 4.40702 8.53417 4.27845 8.40684C4.13541 8.26554 3.98659 8.12035 3.79806 8.04737C3.52093 7.941 3.18096 8.02019 2.98245 8.23758Z" fill="#002768"/>
<path d="M2.06087 8.52484C2.15947 8.53467 2.25439 8.47877 2.32039 8.40605C2.38638 8.33333 2.43003 8.2443 2.48183 8.16097C2.64011 7.90605 2.88017 7.70109 3.15914 7.58308C3.38132 7.48887 3.63926 7.44048 3.79729 7.2601C3.97529 7.05694 3.949 6.71248 3.74207 6.53779C3.41051 6.25803 2.91067 6.54116 2.63565 6.76709C2.26517 7.07143 1.98646 7.48473 1.85237 7.94151C1.81897 8.05512 1.79426 8.17572 1.8216 8.29088C1.84895 8.40553 1.9415 8.51293 2.06087 8.52484Z" fill="#002768"/>
<path d="M5.24052 29.0969C5.15691 29.0964 5.04621 29.1246 5.04569 29.2069C5.04542 29.2675 5.10905 29.3066 5.16453 29.333C5.352 29.4225 5.53947 29.5118 5.72721 29.6013C5.99487 29.7289 6.26359 29.857 6.54703 29.9453C6.64353 29.9753 6.74818 30.0007 6.84494 29.9706C7.33005 29.82 6.5047 29.407 6.36692 29.3449C6.01459 29.1862 5.62835 29.0998 5.24052 29.0969Z" fill="#002768"/>
<path d="M7.72866 30.0954C7.62506 30.0936 7.50201 30.1013 7.44785 30.1883C7.40473 30.2574 7.42813 30.3521 7.48334 30.4119C7.53882 30.4717 7.61902 30.503 7.69842 30.5242C7.85934 30.5669 8.02919 30.576 8.19379 30.5501C8.3597 30.5239 8.58556 30.3803 8.4257 30.2077C8.27556 30.0459 7.92271 30.099 7.72866 30.0954Z" fill="#002768"/>
<path d="M23.5144 13.0566C23.6906 12.8012 23.7668 12.4614 23.6425 12.178C23.5139 11.8848 23.1829 11.6079 23.3167 11.3167C23.4137 11.1056 23.6908 11.0639 23.9109 10.9811C24.4189 10.7898 24.7405 10.2093 24.6282 9.68527C24.3737 8.49609 24.7899 7.20624 25.6273 6.31313C25.7349 6.19848 25.8514 6.08746 25.9187 5.94642C25.986 5.80537 25.9928 5.62292 25.8882 5.50594C25.7709 5.37473 25.5629 5.37189 25.3915 5.41718C25.2201 5.46221 25.056 5.54502 24.8788 5.55097C24.7016 5.55693 24.4994 5.44668 24.4923 5.27225C24.4852 5.09523 24.6668 4.97826 24.8049 4.86438C24.9429 4.75051 25.0478 4.52096 24.9043 4.41407C24.1854 3.87888 23.2231 3.64104 22.3685 3.92365C21.8345 4.10015 21.335 4.44876 20.7723 4.42546C20.461 4.41278 20.1657 4.28493 19.8562 4.24896C19.5467 4.21325 19.1792 4.30823 19.0585 4.59109C18.443 4.99974 17.8101 5.56806 17.1943 5.9767C16.7909 6.24455 16.3582 6.55123 16.233 7.01396C16.1415 7.35169 16.2464 7.73419 16.4978 7.98083C16.6695 8.1493 16.8951 8.25127 17.0954 8.38559C17.2958 8.5199 17.4835 8.70934 17.5082 8.9464C17.5721 9.55794 17.8553 10.1444 17.9555 10.751C18.0257 11.1765 18.0625 11.6107 18.0096 12.0383C17.9318 12.6692 17.6549 13.2751 17.2271 13.7512C17.0665 13.9301 16.9887 14.2054 16.9279 14.4363C16.8672 14.6674 16.8696 14.9239 16.9863 15.133C17.0975 15.3322 17.3068 15.4823 17.3539 15.7049C17.376 15.8089 17.3589 15.9163 17.3555 16.0227C17.352 16.1288 17.3652 16.2432 17.4354 16.3237C17.5056 16.4044 17.7817 16.4194 17.8755 16.3669C18.0833 16.2507 18.3241 16.4508 18.4677 16.6386C18.6112 16.8265 18.815 17.0473 19.0424 16.9753C19.2612 16.9062 19.3041 16.6291 19.3506 16.4075C19.506 15.6671 20.1034 15.0879 20.7578 14.6922C21.4125 14.2965 22.1443 14.0385 22.805 13.6532C23.0748 13.4961 23.3382 13.3121 23.5144 13.0566Z" fill="#002768"/>
<path d="M21.503 17.8938C21.6252 17.767 21.6794 17.612 21.8253 17.4966C21.981 17.3734 22.2379 17.3053 22.3351 17.1236C22.3901 17.0209 22.3762 16.8892 22.3107 16.7926C22.2452 16.6961 22.134 16.634 22.0178 16.6153C21.6523 16.5566 21.3063 16.8917 20.9424 16.8245C20.7441 16.7877 20.5448 16.6345 20.3624 16.7194C20.2143 16.7882 20.1746 16.9896 20.2343 17.1397C20.294 17.2895 20.4244 17.3995 20.5501 17.5028C20.7754 17.6883 21.2069 18.2002 21.503 17.8938Z" fill="#002768"/>
<path d="M62.8587 9.02688C62.808 8.96476 62.7433 8.9143 62.6941 8.85115C62.5829 8.70804 62.5627 8.5173 62.5566 8.33744C62.5506 8.15731 62.5527 7.97046 62.4751 7.80716C62.3975 7.64412 62.2106 7.51394 62.0355 7.56622C61.772 7.64464 61.4531 7.66275 61.1925 7.57528C60.7871 7.43941 60.5494 7.00308 60.1492 6.85271C59.7934 6.71892 59.4148 6.67414 59.0428 6.59392C58.6334 6.50541 58.2061 6.41716 57.7999 6.51886C57.3937 6.62057 57.0198 6.97512 57.0503 7.38635C57.055 7.44872 56.9953 7.50695 56.9417 7.54034C56.8878 7.57347 56.8247 7.58822 56.7629 7.60219C56.4873 7.66482 56.212 7.72771 55.9365 7.79034C55.8203 7.81674 55.7022 7.84339 55.5828 7.83899C55.4635 7.83434 55.3407 7.79474 55.2607 7.70752C55.0593 7.48729 54.7435 7.35711 54.5085 7.17181C54.4459 7.12264 54.3744 7.07062 54.295 7.07865C54.2303 7.08512 54.1774 7.13015 54.1256 7.16897C53.8866 7.34779 53.5745 7.4288 53.2772 7.38895C52.6414 7.3038 51.9909 7.12989 51.3762 6.94873C51.1232 6.8742 50.8458 6.88325 50.5984 6.97357C50.5492 6.99169 50.4974 7.01602 50.4743 7.06234C50.4404 7.13014 50.4822 7.2096 50.5229 7.27378C50.6139 7.41715 50.7109 7.61254 50.7827 7.76627C50.8137 7.83278 50.7853 7.91456 50.7335 7.96762C50.682 8.02041 50.6115 8.05069 50.5429 8.07967C50.2198 8.21632 49.8964 8.35296 49.573 8.48961C49.4013 8.56207 49.2169 8.63635 49.0332 8.60322C48.8814 8.57579 48.7508 8.47641 48.6561 8.35659C48.5615 8.23677 48.46 8.10685 48.3961 7.96865C48.3487 7.86591 48.2462 7.79577 48.1373 7.76058C48.0285 7.72512 47.9123 7.71995 47.7976 7.71503C47.6217 7.70752 47.409 7.71063 47.2497 7.63687C47.1829 7.60607 47.1032 7.65964 47.0727 7.7259C47.0425 7.79215 47.0441 7.86746 47.0299 7.93863C46.9904 8.13454 46.8258 8.29189 46.6347 8.35892C46.4435 8.4262 46.2311 8.41249 46.036 8.35788C45.8409 8.30327 45.6171 8.26549 45.441 8.16637C45.2067 8.03439 44.8733 8.1172 44.7305 8.34235C44.6511 8.46761 44.6019 8.64515 44.4542 8.67128C44.304 8.69794 44.1854 8.52377 44.1983 8.37419C44.2112 8.2246 44.3048 8.09572 44.3716 7.96089C44.6143 7.4715 44.3224 6.92569 44.044 6.45494C43.9475 6.2919 43.6906 6.25204 43.5478 6.37782C43.47 6.4464 43.4248 6.55225 43.3307 6.5965C43.2289 6.64438 43.1024 6.59987 43.0238 6.52042C42.9452 6.44097 42.9213 6.32011 42.8624 6.22539C42.7496 6.04397 42.631 5.8566 42.4498 5.74092C42.2687 5.62523 42.006 5.60376 41.8496 5.75049C41.7247 5.86773 41.7005 6.0626 41.7528 6.22461C41.8051 6.38662 41.9326 6.54785 42.0878 6.62238C42.2208 6.68631 42.2681 6.86306 42.2184 7.00023C42.1687 7.13739 42.0441 7.23677 41.9105 7.29914C41.7767 7.36151 41.6308 7.39334 41.4909 7.4407C41.121 7.56544 40.9069 7.91896 40.5633 8.10271C40.4455 8.1656 40.3579 8.28154 40.3308 8.41094C40.3038 8.54033 40.3372 8.6806 40.42 8.78464C40.4847 8.86564 40.5754 8.92336 40.6424 9.00281C40.7092 9.08226 40.7484 9.2013 40.6905 9.28723C40.6479 9.35037 40.5638 9.37625 40.487 9.37004C40.4102 9.36409 40.334 9.3232 40.2572 9.31984C40.1373 9.31466 40.0258 9.40058 39.979 9.50953C39.9325 9.61848 39.9425 9.74452 39.9814 9.85606C40.0203 9.96786 40.0829 10.032 40.1526 10.1283C40.2123 10.2109 40.2733 10.2963 40.298 10.3946C40.3227 10.493 40.3032 10.6092 40.2233 10.6733C40.1339 10.7453 39.999 10.7305 39.8957 10.6796C39.7924 10.6288 39.7069 10.5481 39.6075 10.4901C39.5081 10.4321 39.3719 10.3501 39.2936 10.434C39.1266 10.6123 39.1313 10.8923 39.2105 11.1221C39.2896 11.3519 39.4303 11.5571 39.511 11.7864C39.5917 12.0157 39.6443 12.3317 39.4534 12.4852C39.3059 12.604 39.0714 12.5481 38.9373 12.4148C38.8032 12.2815 38.7446 12.0936 38.6904 11.9138C38.6021 11.6203 38.5137 11.3271 38.4254 11.0336C38.3933 10.9275 38.3604 10.8191 38.2944 10.7292C38.2287 10.6394 38.1227 10.5701 38.0105 10.5771C37.8114 10.5895 37.7039 10.8188 37.6947 11.015C37.6673 11.5885 38.1795 12.1249 38.0725 12.6891C38.0504 12.8053 37.9153 12.8739 37.7956 12.8617C37.6763 12.8496 37.5724 12.7774 37.4812 12.7005C37.3899 12.6236 37.3029 12.5382 37.1935 12.4893C37.0841 12.4404 36.9432 12.4371 36.8549 12.517C36.7423 12.6187 36.8115 12.766 36.8091 12.9166C36.8073 13.0377 36.6934 13.1291 36.578 13.1713C36.4626 13.2134 36.3361 13.2261 36.228 13.2838C36.1221 13.3405 36.0406 13.4376 35.9285 13.4813C35.7755 13.5413 35.5213 13.4888 35.5171 13.3268C35.5139 13.2054 35.4045 13.0957 35.2812 13.0905C35.1282 13.0843 35.0067 13.2142 34.9276 13.3434C34.8484 13.4725 34.7893 13.6423 34.6557 13.7155C34.621 13.8082 34.5084 13.8503 34.4083 13.8485C34.3078 13.8467 34.2105 13.8136 34.1104 13.8066C34.0202 13.8004 33.9226 13.819 33.8598 13.883C33.797 13.9469 33.7859 14.1146 33.8553 14.1715C33.8795 14.2419 33.9037 14.3139 33.9045 14.3884C33.905 14.4627 33.8779 14.5413 33.8169 14.5851C33.7123 14.6599 33.5516 14.6286 33.4349 14.5739C33.2834 14.503 33.1023 14.6208 33.026 14.7678C32.9498 14.9148 32.94 15.0858 32.8861 15.2422C32.8325 15.3985 32.706 15.5548 32.5383 15.5532C32.3655 15.5519 32.2449 15.3905 32.1536 15.246C32.0455 15.0752 31.9375 14.9044 31.8294 14.7336C31.7916 14.6738 31.7526 14.6099 31.7534 14.5395C31.755 14.4238 31.8678 14.3346 31.983 14.3128C32.0984 14.2908 32.2165 14.3183 32.3324 14.3371C32.4484 14.356 32.5738 14.3646 32.6771 14.3097C32.8583 14.2137 32.8904 13.9541 32.796 13.7743C32.7013 13.5944 32.5925 13.444 32.3908 13.4026C31.8675 13.2957 31.3014 13.1643 30.9644 12.7559C30.8455 12.6123 30.7567 12.4355 30.5947 12.3408C30.4361 12.2484 30.2337 12.2546 30.0599 12.3144C29.8858 12.3744 29.7564 12.5294 29.5832 12.5913C28.8349 12.8586 28.3195 13.4653 27.847 14.0957C27.5972 14.4293 27.5128 14.8511 27.3703 15.2411C27.2278 15.6311 26.9644 16.0437 26.5852 16.224C26.5163 16.2569 26.4461 16.2906 26.3909 16.3428C26.3357 16.3951 26.2968 16.4699 26.3075 16.5444C26.3181 16.6192 26.3749 16.6795 26.3991 16.7515C26.4238 16.8245 26.4132 16.9036 26.4027 16.9797C26.3759 17.1723 26.3775 17.3669 26.3714 17.5613C26.3683 17.6624 26.3962 17.7673 26.4645 17.8428C26.5329 17.9184 26.6457 17.958 26.743 17.9256C26.8978 17.8739 26.9575 17.6749 27.1084 17.6128C27.2646 17.5483 27.4482 17.6694 27.5102 17.8244C27.5723 17.9795 27.5181 18.1539 27.5617 18.3151C27.5996 18.4549 27.6375 18.5946 27.6751 18.7344C27.7045 18.8436 27.7461 18.967 27.852 19.0105C27.9519 19.0517 28.0645 19.0025 28.161 18.9541C28.3085 18.8803 28.4591 18.8043 28.5709 18.6844C28.6826 18.5646 28.7602 18.3907 28.7413 18.2292C28.6398 17.3589 28.3582 16.3151 28.9116 15.6291C29.0268 15.4862 29.1517 15.3509 29.2847 15.2238C29.3768 15.1361 29.4743 15.0512 29.5897 14.9963C29.7052 14.9414 29.8414 14.9189 29.9626 14.9593C30.0838 14.9999 30.184 15.1125 30.1848 15.2385C30.1856 15.3571 30.1056 15.4596 30.0296 15.5517C29.9011 15.7075 29.8098 15.877 29.6655 16.0188C29.4783 16.2028 29.4425 16.5173 29.5834 16.7378C29.7244 16.958 30.0181 17.0064 30.2818 16.9878C30.5334 16.9699 30.7879 16.9922 31.0325 17.0532C31.1153 17.0739 31.2128 17.1177 31.2178 17.2015C31.2228 17.2851 31.13 17.3405 31.0475 17.3602C30.8676 17.4029 30.6701 17.3741 30.5027 17.4515C30.2868 17.5512 30.1601 17.8433 30.2555 18.0584C30.3073 18.1749 30.1848 18.2983 30.0612 18.3356C29.9379 18.3728 29.7985 18.369 29.6912 18.4396C29.4954 18.5685 29.5169 18.8526 29.4341 19.0695C29.3223 19.3622 29.001 19.5361 28.6853 19.569C28.3695 19.6019 28.0361 19.5633 27.7269 19.4921C27.48 19.4352 27.2783 19.2225 27.2375 18.9761C27.2273 18.9148 27.2262 18.8514 27.2044 18.7929C27.1829 18.7346 27.1334 18.68 27.0703 18.6762C26.9922 18.6712 26.9286 18.7478 26.9202 18.8244C26.9118 18.901 26.9428 18.9761 26.9733 19.047C27.0251 19.1679 27.0685 19.2496 27.063 19.3806C27.0574 19.5134 26.9691 19.6309 26.8613 19.7108C26.7535 19.7908 26.6265 19.8402 26.5047 19.8977C26.032 20.121 25.5648 20.4481 25.3728 20.9287C25.3052 21.098 25.1128 21.1779 24.939 21.2403C24.7499 21.3084 24.5611 21.3764 24.3721 21.4445C24.2057 21.5043 24.0153 21.5907 23.9806 21.7615C23.949 21.9166 24.0655 22.062 24.1894 22.1627C24.3132 22.2631 24.4589 22.3526 24.5228 22.4973C24.5746 22.6143 24.5611 22.7566 24.4888 22.8625C24.4163 22.9683 24.2856 23.0281 24.1562 23.0291C23.8983 23.0312 23.6319 23.0348 23.3966 23.1386C23.0793 23.2786 22.9391 23.5905 22.8421 23.9194C22.7238 24.3211 22.8718 24.7859 23.202 25.049C23.5323 25.3122 24.025 25.3578 24.3994 25.1603C25.113 24.7838 25.2311 23.7491 25.9281 23.3438C26.2847 23.1365 26.7227 23.1376 27.1366 23.1443C27.8318 23.1557 28.2722 23.9696 28.4591 24.6288C28.4917 24.7434 28.528 24.8767 28.6387 24.9243C28.7257 24.9618 28.8312 24.9282 28.9024 24.8661C28.9737 24.804 29.0181 24.718 29.0607 24.6345C29.1307 24.4976 29.2024 24.3467 29.1685 24.1971C29.1201 23.9831 28.8864 23.8744 28.6945 23.7631C28.4397 23.6156 28.2175 23.4134 28.0482 23.1748C27.9845 23.085 27.9267 22.9678 27.9788 22.871C28.024 22.7869 28.1384 22.7587 28.2322 22.7815C28.3261 22.8045 28.4044 22.8663 28.4794 22.9266C29.1278 23.4484 29.697 24.0975 29.8919 24.8995C29.9147 24.9939 29.9347 25.0915 29.987 25.174C30.0391 25.2566 30.1327 25.3221 30.2308 25.3107C30.3617 25.2957 30.4422 25.151 30.439 25.0214C30.4359 24.8917 30.3743 24.7714 30.3283 24.6497C30.2823 24.5281 30.2523 24.3881 30.3104 24.2716C30.4198 24.1852 30.5868 24.2067 30.703 24.284C30.8192 24.3614 30.896 24.4825 30.9696 24.6C31.1468 24.8832 31.3243 25.1665 31.5015 25.4497C31.602 25.6101 31.754 25.7139 31.9448 25.7312C32.1355 25.7483 32.325 25.7002 32.513 25.6642C32.701 25.6282 32.9003 25.6047 33.0802 25.6691C33.3184 25.7543 33.4864 26.0004 33.4767 26.2496C33.4678 26.4779 33.351 26.6932 33.142 26.7923C32.9329 26.8912 32.6908 26.8876 32.4586 26.8819C32.0868 26.8728 31.7153 26.8637 31.3435 26.8547C31.0906 26.8485 30.8337 26.8415 30.5934 26.7636C30.3575 26.687 30.1111 26.5418 29.8787 26.6282C29.7338 26.6821 29.6373 26.8138 29.5445 26.9357C29.4517 27.0576 29.3426 27.1839 29.1914 27.2165C29.0402 27.2491 28.8525 27.1282 28.8838 26.9792C28.7192 26.7129 28.3377 26.5136 28.0232 26.4768C27.9175 26.4644 27.8013 26.4647 27.7195 26.3976C27.5836 26.2858 27.6306 26.0765 27.6304 25.902C27.6301 25.5998 27.43 25.3066 27.1458 25.1922C26.7427 25.0299 26.2681 25.1156 25.854 25.2483C25.4399 25.3811 25.0418 25.5742 24.6111 25.6378C24.4307 25.6645 24.2456 25.6681 24.0705 25.7186C23.8954 25.769 23.7248 25.878 23.6614 26.0465C23.3506 26.8707 22.5339 27.4678 22.0031 28.1746C21.6507 28.6435 21.2937 29.1212 21.0938 29.6704C20.9921 29.9502 21.0058 30.2501 20.9813 30.5462C20.9655 30.74 20.9495 30.9339 20.9337 31.1277C20.924 31.2473 20.914 31.3673 20.925 31.4866C20.944 31.6926 21.026 31.8927 21.158 32.0539C21.5442 32.1598 21.7509 32.6401 21.8755 33.0154C22.0002 33.3906 22.1025 33.805 22.4135 34.0542C22.6812 34.2687 23.058 34.3127 23.3971 34.2493C23.7366 34.1859 24.0484 34.0275 24.3553 33.8712C25.0549 33.5143 25.9594 33.8857 26.643 34.2716C26.7669 34.3414 26.9015 34.3945 27.0122 34.483C27.1734 34.6121 27.3496 34.771 27.3451 34.9758C27.3417 35.1378 27.2239 35.2731 27.1684 35.4255C27.0743 35.6851 27.1857 36.0021 27.4226 36.1489C28.1415 36.5935 28.3913 37.6647 28.1023 38.4504C27.9966 38.7382 27.8215 39.0003 27.7453 39.2969C27.669 39.5935 27.7237 39.9576 27.9859 40.122C28.3319 40.3386 28.4034 40.792 28.4773 41.189C28.538 41.5153 28.5151 41.8512 28.5554 42.1804C28.5956 42.5099 28.7147 42.853 28.9863 43.0497C29.3836 43.3375 28.9879 44.0872 29.2903 44.4708C29.477 44.7076 29.8132 44.772 30.1177 44.7682C30.8169 44.7591 31.5081 44.4692 31.9993 43.9793C32.2493 43.7299 32.548 43.4956 32.6537 43.161C32.7218 42.9454 32.7347 42.706 32.8654 42.5205C32.9971 42.3334 33.223 42.2374 33.4057 42.0976C33.5884 41.9579 33.7386 41.7125 33.6334 41.5096C33.4409 41.1388 33.5582 40.637 33.8064 40.3C34.0073 40.0272 34.3141 39.8518 34.5616 39.6191C34.809 39.3864 35.0054 39.0376 34.8889 38.7208C34.6425 38.0513 34.6289 37.2977 34.7966 36.6049C34.9644 35.9121 35.4258 35.2669 36.0905 34.9864C36.5388 34.7972 36.872 34.4305 37.1257 34.0205C37.3792 33.6103 37.4359 33.0428 37.1294 32.6693C36.9627 32.4659 36.6506 32.372 36.3895 32.3246C36.1284 32.2773 35.8552 32.2566 35.6209 32.1339C35.4137 32.0255 35.2504 31.8389 35.1718 31.6212C35.1156 31.4654 34.9336 31.4018 34.8161 31.2835C34.6875 31.1541 34.5984 30.9929 34.5108 30.834C34.3601 30.5604 34.2092 30.2866 34.0586 30.0131C33.7438 29.4416 33.4762 28.8096 33.1641 28.2367C33.1149 28.1466 33.0647 28.0524 33.0613 27.9502C33.0578 27.8479 33.1165 27.7361 33.2177 27.7129C33.3376 27.6854 33.4446 27.7864 33.5235 27.8793C34.184 28.6575 34.7314 29.5286 35.144 30.4579C35.2899 30.7866 35.3577 31.1551 35.572 31.445C35.7863 31.7348 36.1252 31.9602 36.4891 31.9465C36.7734 31.9359 37.03 31.7856 37.2727 31.6396C37.6418 31.4175 38.0112 31.1952 38.3804 30.9732C38.6155 30.8319 38.8537 30.6877 39.0393 30.4877C39.2249 30.2876 39.354 30.02 39.3246 29.7504C39.2952 29.481 39.0743 29.225 38.7993 29.211C38.4093 29.2152 38.0002 29.1381 37.6363 29.0004C37.4291 28.922 37.2101 28.7985 37.1515 28.5879C37.081 28.3345 36.9103 28.1295 36.6884 27.9838C36.6237 27.9414 36.5541 27.9046 36.5004 27.8492C36.4468 27.7941 36.411 27.7139 36.4334 27.6406C36.4518 27.5809 36.506 27.5366 36.5659 27.5159C36.6258 27.4952 36.6908 27.4947 36.7542 27.4991C36.8691 27.5069 36.985 27.5299 37.0855 27.5855C37.3018 27.7051 37.4249 27.9566 37.6221 28.1047C37.8193 28.2527 38.0657 28.3526 38.3126 28.3285C38.443 28.3159 38.5721 28.2693 38.7017 28.2876C38.8582 28.3096 38.9833 28.4207 39.11 28.5136C39.2368 28.6065 39.3959 28.6888 39.5468 28.6422C39.9743 28.5107 40.4586 28.7097 40.9054 28.7431C41.0279 28.7524 41.1546 28.7628 41.2619 28.8213C41.3692 28.8798 41.452 29.0006 41.4252 29.1184C41.3739 29.3415 41.448 29.5858 41.6405 29.7139C41.833 29.842 42.108 29.835 42.2936 29.6973C42.4296 29.5961 42.6218 29.7338 42.6875 29.8888C42.7532 30.0436 42.7359 30.2183 42.7343 30.3862C42.7312 30.733 42.8003 31.0806 42.9365 31.4005C43.1337 31.8635 43.3543 32.3316 43.6412 32.7467C43.7287 32.8735 43.8381 33.0115 43.9932 33.0236C44.1592 33.0368 44.3009 32.8914 44.3506 32.7348C44.4003 32.5783 44.3845 32.4103 44.3919 32.2465C44.4145 31.7416 44.6753 31.2517 45.0844 30.9463C45.3566 30.7429 45.5793 30.4696 45.8561 30.2724C45.9787 30.1852 46.1096 30.086 46.1472 29.9419C46.1787 29.8215 46.1414 29.6797 46.2174 29.5801C46.2695 29.5118 46.3636 29.4851 46.4504 29.4913C46.5369 29.4978 46.6184 29.5322 46.6983 29.5661C46.9649 29.6797 47.2397 29.7988 47.4377 30.0081C47.5602 30.1375 47.6743 30.2791 47.7135 30.452C47.7527 30.6246 47.7613 30.8057 47.8305 30.9693C47.8997 31.1326 48.0532 31.2804 48.2328 31.2708C48.3206 31.2661 48.404 31.2247 48.4918 31.2258C48.6172 31.2276 48.7268 31.3182 48.786 31.4269C48.8452 31.5356 48.863 31.6608 48.8801 31.783C48.964 32.3844 48.8693 33.0319 49.1275 33.5832C49.2059 33.7506 49.3084 33.9061 49.4102 34.0609C49.5653 34.2964 49.7205 34.5322 49.8759 34.7677C49.9616 34.8979 50.0888 34.953 50.2382 35.0022C50.3292 35.0322 50.443 35.0443 50.5085 34.9752C50.5545 34.9268 50.5597 34.8513 50.5392 34.7881C50.5187 34.725 50.4767 34.6712 50.4351 34.6189C50.2921 34.438 50.193 34.2371 50.0654 34.0454C49.939 33.8552 49.8114 33.6657 49.6831 33.4768C49.5724 33.3138 49.4594 33.1486 49.3976 32.9623C49.3355 32.776 49.3303 32.5622 49.4294 32.3922C49.488 32.2918 49.5411 32.2079 49.6579 32.1942C49.7746 32.1805 49.8972 32.2359 49.9629 32.3319C49.971 32.4527 50.1196 32.52 50.2366 32.5578C50.3536 32.5953 50.4869 32.6269 50.5527 32.7291C50.6152 32.8267 50.595 32.961 50.6631 33.055C50.7151 33.1269 50.8174 33.159 50.9021 33.1305C50.987 33.1021 51.0478 33.0151 51.0443 32.9269C51.0401 32.814 51.1556 32.6598 51.2497 32.5953C51.3438 32.5309 51.4498 32.4799 51.5263 32.3958C51.6704 32.2369 51.6662 31.969 51.5171 31.8145C51.1203 31.4036 50.733 30.9504 50.6097 30.3966C50.5871 30.2954 50.5711 30.1898 50.5947 30.0889C50.6181 29.9879 50.6888 29.8919 50.7903 29.8642C51.0443 29.7946 51.3133 29.7838 51.5757 29.7587C51.7408 29.7429 51.9078 29.7266 52.0656 29.6764C52.2236 29.6259 52.3742 29.5382 52.4694 29.4041C52.6693 29.1233 52.9985 28.9675 53.2877 28.7765C53.4231 28.6872 53.5624 28.5586 53.5522 28.3987C53.5406 28.2191 53.5974 28.0563 53.7023 27.909C53.8072 27.7618 53.9392 27.6321 54.0231 27.4722C54.107 27.3122 54.1335 27.1047 54.0244 26.9603C53.9284 26.8332 53.8325 26.6919 53.7951 26.5379C53.7654 26.4158 53.7702 26.2884 53.7539 26.1639C53.7197 25.9018 53.5895 25.6528 53.3926 25.4732C53.2283 25.3234 53.202 25.0229 53.3487 24.8562C53.4305 24.7633 53.5603 24.6989 53.5858 24.5786C53.6129 24.4507 53.5043 24.3345 53.3934 24.2628C53.2824 24.1911 53.1523 24.1306 53.0936 24.0133C53.02 23.8663 53.0986 23.6756 53.2393 23.5884C53.3802 23.5012 53.5638 23.5038 53.721 23.5573C53.9887 23.6487 54.189 23.8684 54.3523 24.0962C54.5527 24.3751 54.6457 24.7149 54.7809 25.0296C54.8201 25.1207 54.8624 25.216 54.9431 25.2747C55.0851 25.378 55.3036 25.3216 55.413 25.1852C55.5224 25.0488 55.5392 24.8588 55.5053 24.6883C55.4635 24.4784 55.2807 24.2747 55.1479 24.1055C55.0517 23.9828 54.9528 23.8552 54.9147 23.7046C54.8506 23.451 54.9697 23.1909 55.0856 22.9559C55.2071 22.7098 55.3323 22.4585 55.5313 22.2677C55.6688 22.1358 55.8363 22.0379 55.9809 21.9132C56.1253 21.7885 56.2512 21.6239 56.2609 21.4349C56.3048 20.5993 56.6427 19.8151 56.4613 18.9976C56.3785 18.6246 56.2005 18.2799 55.994 17.957C55.8444 17.7227 55.6546 17.496 55.3922 17.3967C55.347 17.3796 55.3002 17.3664 55.2555 17.348C55.0564 17.2667 54.9076 17.0773 54.8774 16.8674C54.8471 16.6575 54.9371 16.435 55.1053 16.3025C55.3081 16.143 55.338 15.8736 55.2947 15.6216C55.271 15.4839 55.2155 15.3446 55.2481 15.2088C55.2755 15.0949 55.3625 15.0023 55.4637 14.9409C55.5649 14.8796 55.6801 14.8457 55.794 14.8123C56.2717 14.6723 56.791 14.7693 57.273 14.6451C57.4544 14.5983 57.6424 14.5354 57.766 14.3967C57.8895 14.258 57.9182 14.0214 57.7794 13.8974C57.7623 13.6702 57.7449 13.4259 57.7278 13.199C57.7202 13.0988 57.7131 12.9966 57.7394 12.8998C57.7657 12.803 57.8327 12.7109 57.9303 12.6814C58.1604 12.6115 58.3902 12.9096 58.6158 12.8268C58.7012 12.8742 58.7833 12.7709 58.8098 12.6777C58.8364 12.5848 58.8519 12.4704 58.9407 12.4295C59.0312 12.3879 59.1414 12.4614 59.1742 12.5543C59.2071 12.6472 59.185 12.7492 59.1629 12.8449C59.1145 13.0538 59.0664 13.2626 59.0183 13.4715C58.88 14.0698 58.7417 14.6681 58.6037 15.2665C58.5266 15.5998 58.6097 15.9634 58.809 16.2435C59.1805 16.7652 59.4501 17.3677 59.7511 17.9318C59.7892 18.003 59.8337 18.0801 59.9104 18.1078C60.0543 18.1596 60.1939 17.9942 60.1973 17.8433C60.2007 17.6925 60.1255 17.5512 60.1024 17.4021C60.0466 17.0403 60.2964 16.7098 60.4045 16.3599C60.5633 15.8452 60.4045 15.2753 60.104 14.8263C59.9186 14.5494 59.6331 14.3426 59.5897 14.0139C59.5466 13.6852 59.7104 13.318 60.0227 13.1938C60.1487 13.1436 60.2867 13.135 60.4213 13.1177C60.556 13.1006 60.6948 13.0721 60.8026 12.9911C60.9104 12.9099 60.9772 12.7624 60.9259 12.6387C60.8344 12.4182 60.9506 12.171 61.0852 11.9733C61.2199 11.7756 61.3839 11.574 61.3863 11.3359C61.3876 11.2127 61.3495 11.0711 61.4331 10.9795C61.4741 10.9345 61.5364 10.914 61.5843 10.8757C61.7171 10.7701 61.6813 10.5253 61.5238 10.4609C61.3382 10.3848 61.1644 10.2388 61.1078 10.0491C61.0526 9.86357 61.0794 9.66533 61.1068 9.47382C61.132 9.29732 61.1591 9.11487 61.2551 8.96347C61.3511 8.81207 61.5351 8.70001 61.711 8.74246C61.8861 8.7849 62.0704 8.80767 62.1956 8.93552C62.2726 9.01419 62.3271 9.11072 62.3946 9.19742C62.4622 9.28412 62.549 9.36383 62.6573 9.3866C62.7656 9.40938 62.8961 9.35503 62.9245 9.24944C62.9463 9.17051 62.9092 9.08899 62.8587 9.02688ZM34.459 23.6112C34.3893 23.796 34.1632 23.8793 33.9636 23.8689C33.7638 23.8586 33.575 23.7791 33.3794 23.7382C32.9319 23.6446 32.4431 23.7654 32.0937 24.056C31.9438 24.1805 31.7098 24.4111 31.5063 24.24C31.363 24.1197 31.369 23.8687 31.4261 23.7118C31.5928 23.2527 31.8084 22.8625 32.1773 22.5322C32.2622 22.4564 32.3469 22.3803 32.4318 22.3045C32.4812 22.2602 32.5317 22.2155 32.5922 22.188C32.7967 22.0956 33.0284 22.2276 33.213 22.3539C33.493 22.5457 33.773 22.7377 34.0533 22.9295C34.1722 23.0108 34.2931 23.0944 34.3786 23.209C34.464 23.3239 34.5095 23.4779 34.459 23.6112ZM37.326 25.0369C37.0657 25.2059 36.7289 25.019 36.5875 24.7866C36.4373 24.54 36.4376 24.2173 36.3916 23.9404C36.2959 23.3663 35.633 22.7665 35.9144 22.172C36.0208 21.9471 36.288 21.7993 36.5346 21.8511C36.7812 21.9026 36.9685 22.166 36.9109 22.4078C36.8675 22.5894 36.7113 22.7266 36.6521 22.9039C36.5648 23.1663 36.7089 23.4502 36.8919 23.6596C37.0749 23.8689 37.3032 24.0457 37.4344 24.2897C37.5658 24.534 37.5603 24.8847 37.326 25.0369ZM38.9447 22.9233C38.8713 23.0478 38.7467 23.1953 38.5879 23.2038C38.3759 23.2149 38.2053 22.9823 38.2455 22.7853C38.2558 22.7357 38.2779 22.6893 38.2997 22.6435C38.3265 22.5876 38.3533 22.5317 38.3801 22.4761C38.4001 22.4342 38.4204 22.3922 38.4404 22.3506C38.4869 22.2535 38.5416 22.1484 38.6426 22.1078C39.1298 21.9103 39.0711 22.7082 38.9447 22.9233Z" fill="#002768"/>
<path d="M23.9987 19.1337C24.1391 19.3201 24.2703 19.5395 24.2383 19.7694C24.1933 20.09 23.2144 20.817 23.9782 20.8972C24.5141 20.9534 25.3925 20.5558 25.1357 19.9031C25.0079 19.5784 24.6587 19.3956 24.5288 19.0703C24.4491 18.8711 24.4667 18.6475 24.4194 18.4384C24.3721 18.2292 24.2149 18.0103 23.9974 18.017C23.7618 18.0243 23.6183 18.3033 23.6582 18.5318C23.6982 18.7606 23.8583 18.9474 23.9987 19.1337Z" fill="#002768"/>
<path d="M22.7677 20.3307C22.7784 20.4013 22.7953 20.4727 22.8329 20.5338C22.8707 20.5949 22.9325 20.6448 23.0046 20.6536C23.1287 20.6692 23.232 20.5662 23.313 20.4725C23.4276 20.34 23.5441 20.2041 23.6075 20.0416C23.7468 19.685 23.5005 19.3084 23.0971 19.5048C22.953 19.575 22.8484 19.7111 22.7971 19.8609C22.7456 20.011 22.7435 20.1741 22.7677 20.3307Z" fill="#002768"/>
<path d="M35.2397 12.1454C35.3362 12.1899 35.4632 12.2194 35.5391 12.1457C35.6927 11.9969 35.4692 11.7733 35.4016 11.6407C35.3335 11.5067 35.3193 11.3807 35.2812 11.2394C35.2068 10.9643 34.9018 10.5238 34.5684 10.7994C34.4842 10.8688 34.4424 10.979 34.4393 11.0869C34.4361 11.1948 34.4679 11.3009 34.5108 11.4006C34.6507 11.7249 34.9155 11.9956 35.2397 12.1454Z" fill="#002768"/>
<path d="M35.343 9.94614C35.5023 9.53336 35.6735 9.30354 36.0445 9.03129C36.3492 8.80769 36.6779 8.53465 36.706 8.16147C36.7187 7.99221 36.6135 7.78388 36.4418 7.79812C36.3508 7.80562 36.2788 7.8742 36.2149 7.93838C35.791 8.36618 35.3674 8.79423 34.9436 9.22202C34.7409 9.42673 34.5218 9.68553 34.5899 9.96322C34.6972 10.399 35.2102 10.2901 35.343 9.94614Z" fill="#002768"/>
<path d="M36.9511 38.7949C36.807 38.8314 36.7208 38.975 36.6687 39.1122C36.6166 39.2493 36.5785 39.3997 36.4718 39.5017C36.3017 39.6644 36.0101 39.653 35.847 39.8226C35.6864 39.9897 35.7219 40.2322 35.6809 40.4403C35.6448 40.6233 35.5644 40.7509 35.435 40.8821C35.1845 41.1354 35.1263 41.4732 35.4258 41.7475C35.6422 41.9457 35.999 41.9745 36.2451 41.8138C36.5131 41.6388 36.6153 41.3021 36.6587 40.9884C36.7018 40.6748 36.7087 40.3453 36.8601 40.0661C36.9487 39.9025 37.0818 39.7669 37.1891 39.6147C37.2963 39.4623 37.3805 39.2791 37.3497 39.0961C37.3187 38.9129 37.1336 38.7485 36.9511 38.7949Z" fill="#002768"/>
</g>
</g>
</svg>
