<svg width="102" height="102" viewBox="0 0 102 102" fill="none" xmlns="http://www.w3.org/2000/svg">
<circle cx="2" cy="2" r="2" fill="#BE0B32"/>
<circle cx="16" cy="2" r="2" fill="#BE0B32"/>
<circle cx="44" cy="2" r="2" fill="#BE0B32"/>
<circle cx="58" cy="2" r="2" fill="#BE0B32"/>
<circle cx="30" cy="2" r="2" fill="#BE0B32"/>
<circle cx="86" cy="2" r="2" fill="#BE0B32"/>
<circle cx="100" cy="2" r="2" fill="#BE0B32"/>
<circle cx="72" cy="2" r="2" fill="#BE0B32"/>
<circle cx="2" cy="16" r="2" fill="#BE0B32"/>
<circle cx="16" cy="16" r="2" fill="#BE0B32"/>
<circle cx="44" cy="16" r="2" fill="#BE0B32"/>
<circle cx="58" cy="16" r="2" fill="#BE0B32"/>
<circle cx="30" cy="16" r="2" fill="#BE0B32"/>
<circle cx="86" cy="16" r="2" fill="#BE0B32"/>
<circle cx="100" cy="16" r="2" fill="#BE0B32"/>
<circle cx="72" cy="16" r="2" fill="#BE0B32"/>
<circle cx="2" cy="30" r="2" fill="#BE0B32"/>
<circle cx="16" cy="30" r="2" fill="#BE0B32"/>
<circle cx="44" cy="30" r="2" fill="#BE0B32"/>
<circle cx="58" cy="30" r="2" fill="#BE0B32"/>
<circle cx="30" cy="30" r="2" fill="#BE0B32"/>
<circle cx="86" cy="30" r="2" fill="#BE0B32"/>
<circle cx="100" cy="30" r="2" fill="#BE0B32"/>
<circle cx="72" cy="30" r="2" fill="#BE0B32"/>
<circle cx="2" cy="44" r="2" fill="#BE0B32"/>
<circle cx="16" cy="44" r="2" fill="#BE0B32"/>
<circle cx="44" cy="44" r="2" fill="#BE0B32"/>
<circle cx="58" cy="44" r="2" fill="#BE0B32"/>
<circle cx="30" cy="44" r="2" fill="#BE0B32"/>
<circle cx="86" cy="44" r="2" fill="#BE0B32"/>
<circle cx="100" cy="44" r="2" fill="#BE0B32"/>
<circle cx="72" cy="44" r="2" fill="#BE0B32"/>
<circle cx="2" cy="58" r="2" fill="#BE0B32"/>
<circle cx="16" cy="58" r="2" fill="#BE0B32"/>
<circle cx="44" cy="58" r="2" fill="#BE0B32"/>
<circle cx="58" cy="58" r="2" fill="#BE0B32"/>
<circle cx="30" cy="58" r="2" fill="#BE0B32"/>
<circle cx="86" cy="58" r="2" fill="#BE0B32"/>
<circle cx="100" cy="58" r="2" fill="#BE0B32"/>
<circle cx="72" cy="58" r="2" fill="#BE0B32"/>
<circle cx="2" cy="72" r="2" fill="#BE0B32"/>
<circle cx="16" cy="72" r="2" fill="#BE0B32"/>
<circle cx="44" cy="72" r="2" fill="#BE0B32"/>
<circle cx="58" cy="72" r="2" fill="#BE0B32"/>
<circle cx="30" cy="72" r="2" fill="#BE0B32"/>
<circle cx="86" cy="72" r="2" fill="#BE0B32"/>
<circle cx="100" cy="72" r="2" fill="#BE0B32"/>
<circle cx="72" cy="72" r="2" fill="#BE0B32"/>
<circle cx="2" cy="86" r="2" fill="#BE0B32"/>
<circle cx="16" cy="86" r="2" fill="#BE0B32"/>
<circle cx="44" cy="86" r="2" fill="#BE0B32"/>
<circle cx="58" cy="86" r="2" fill="#BE0B32"/>
<circle cx="30" cy="86" r="2" fill="#BE0B32"/>
<circle cx="86" cy="86" r="2" fill="#BE0B32"/>
<circle cx="100" cy="86" r="2" fill="#BE0B32"/>
<circle cx="72" cy="86" r="2" fill="#BE0B32"/>
<circle cx="2" cy="100" r="2" fill="#BE0B32"/>
<circle cx="16" cy="100" r="2" fill="#BE0B32"/>
<circle cx="44" cy="100" r="2" fill="#BE0B32"/>
<circle cx="58" cy="100" r="2" fill="#BE0B32"/>
<circle cx="30" cy="100" r="2" fill="#BE0B32"/>
<circle cx="86" cy="100" r="2" fill="#BE0B32"/>
<circle cx="100" cy="100" r="2" fill="#BE0B32"/>
<circle cx="72" cy="100" r="2" fill="#BE0B32"/>
</svg>
