<svg width="1920" height="317" viewBox="0 0 1920 317" fill="none" xmlns="http://www.w3.org/2000/svg">
<g clip-path="url(#clip0_212_356)">
<path d="M80.96 93.3653C76.5727 93.3653 73 89.8113 73 85.4053C73 81.0183 76.5542 77.4453 80.96 77.4453C85.3472 77.4453 88.9199 81.0003 88.9199 85.4053C88.9199 89.7933 85.3472 93.3653 80.96 93.3653Z" fill="#CB3C5B"/>
<path d="M119.656 125.266L125.876 131.486C126.32 131.93 127.042 131.93 127.486 131.486C127.93 131.042 127.93 130.32 127.486 129.876L121.266 123.656L127.486 117.436C127.93 116.992 127.93 116.27 127.486 115.825C127.042 115.381 126.32 115.381 125.876 115.825L119.656 122.045L113.436 115.825C112.992 115.381 112.27 115.381 111.825 115.825C111.381 116.27 111.381 116.992 111.825 117.436L118.045 123.656L111.825 129.876C111.381 130.32 111.381 131.042 111.825 131.486C112.27 131.93 112.992 131.93 113.436 131.486L119.656 125.266Z" fill="#CB3C5B"/>
<path d="M-14 143.391V142.243H369.908C443.09 142.243 502.64 82.693 502.64 9.51199C502.64 -63.6695 443.09 -123.22 369.908 -123.22H-14V-124.367H369.908C443.745 -124.367 503.787 -64.2978 503.787 9.51199C503.787 83.349 443.718 143.391 369.908 143.391H-14Z" fill="white" fill-opacity="0.2"/>
<path d="M-14 123.945V122.798H369.908C432.382 122.798 483.218 71.9611 483.218 9.48805C483.218 -52.9851 432.382 -103.821 369.908 -103.821H-14V-104.969H369.908C433.01 -104.969 484.365 -53.6407 484.365 9.48805C484.365 72.5901 433.037 123.945 369.908 123.945H-14Z" fill="white" fill-opacity="0.2"/>
<path d="M-14 104.522V103.375H369.908C421.673 103.375 463.768 61.28 463.768 9.51501C463.768 -42.2499 421.673 -84.3449 369.908 -84.3449H-14V-85.4922H369.908C422.302 -85.4922 464.916 -42.8782 464.916 9.51501C464.916 61.909 422.302 104.522 369.908 104.522H-14Z" fill="white" fill-opacity="0.2"/>
<path d="M-14 85.069V83.922H369.908C410.938 83.922 444.319 50.541 444.319 9.51103C444.319 -31.5186 410.938 -64.8996 369.908 -64.8996H-14V-66.0469H369.908C411.566 -66.0469 445.494 -32.1469 445.494 9.53802C445.494 51.196 411.594 85.124 369.908 85.124H-14V85.069Z" fill="white" fill-opacity="0.2"/>
<path d="M-14 65.623V64.476H369.908C400.23 64.476 424.897 39.809 424.897 9.48696C424.897 -20.834 400.23 -45.5011 369.908 -45.5011H-14V-46.6484H369.908C400.858 -46.6484 426.044 -21.463 426.044 9.48696C426.044 40.437 400.858 65.623 369.908 65.623H-14Z" fill="white" fill-opacity="0.2"/>
<mask id="mask0_212_356" style="mask-type:luminance" maskUnits="userSpaceOnUse" x="1631" y="146" width="289" height="171">
<path d="M1920 146.281H1631V316.763H1920V146.281Z" fill="white"/>
</mask>
<g mask="url(#mask0_212_356)">
<path d="M1635.47 257.207C1634.89 257.207 1634.31 256.959 1633.91 256.569C1633.69 256.392 1633.54 256.144 1633.43 255.895C1633.32 255.647 1633.25 255.364 1633.25 255.08C1633.25 254.513 1633.5 253.946 1633.91 253.556C1634.41 253.059 1635.14 252.847 1635.87 252.988C1636.02 253.024 1636.16 253.059 1636.27 253.095C1636.42 253.166 1636.53 253.237 1636.64 253.307C1636.74 253.378 1636.85 253.449 1636.96 253.556C1637.36 253.946 1637.58 254.477 1637.58 255.08C1637.58 255.364 1637.54 255.647 1637.44 255.895C1637.33 256.144 1637.14 256.392 1636.96 256.569C1636.85 256.675 1636.74 256.746 1636.64 256.853C1636.53 256.923 1636.38 256.994 1636.27 257.03C1636.13 257.101 1635.98 257.101 1635.87 257.172C1635.76 257.172 1635.62 257.207 1635.47 257.207Z" fill="white" fill-opacity="0.2"/>
<path d="M1635.91 245.824C1634.7 245.682 1633.87 244.618 1634.01 243.448C1634.16 242.279 1635.25 241.463 1636.45 241.605C1637.65 241.747 1638.49 242.81 1638.34 243.98C1638.2 245.044 1637.25 245.859 1636.2 245.859C1636.12 245.859 1636.01 245.824 1635.91 245.824ZM1818.4 243.838C1818.26 242.669 1819.1 241.605 1820.3 241.463C1821.46 241.321 1822.55 242.137 1822.74 243.307C1822.88 244.476 1822.04 245.54 1820.84 245.682C1820.73 245.682 1820.66 245.717 1820.55 245.717C1819.46 245.717 1818.51 244.937 1818.4 243.838ZM1637.8 234.621C1636.63 234.338 1635.94 233.168 1636.23 232.033C1636.52 230.899 1637.73 230.225 1638.89 230.509C1640.05 230.793 1640.78 231.962 1640.45 233.097C1640.2 234.054 1639.33 234.692 1638.34 234.692C1638.16 234.692 1638.02 234.657 1637.8 234.621ZM1816.26 232.955C1815.97 231.821 1816.66 230.651 1817.82 230.367C1818.99 230.084 1820.19 230.757 1820.44 231.892C1820.73 233.026 1820.04 234.196 1818.88 234.479C1818.7 234.515 1818.51 234.55 1818.37 234.55C1817.39 234.55 1816.48 233.912 1816.26 232.955ZM1641.18 223.738C1640.05 223.312 1639.51 222.072 1639.95 220.973C1640.42 219.874 1641.66 219.342 1642.78 219.767C1643.91 220.228 1644.46 221.434 1644.02 222.533C1643.69 223.348 1642.86 223.88 1641.98 223.88C1641.69 223.88 1641.44 223.844 1641.18 223.738ZM1812.73 222.391C1812.25 221.292 1812.8 220.086 1813.96 219.626C1815.09 219.2 1816.33 219.732 1816.77 220.831C1817.24 221.93 1816.69 223.171 1815.57 223.596C1815.31 223.702 1815.02 223.738 1814.76 223.738C1813.89 223.738 1813.05 223.242 1812.73 222.391ZM1645.88 213.351C1644.82 212.784 1644.42 211.472 1645.04 210.479C1645.62 209.451 1646.93 209.061 1647.99 209.664C1649.04 210.231 1649.45 211.507 1648.83 212.536C1648.43 213.245 1647.7 213.634 1646.9 213.634C1646.57 213.599 1646.21 213.493 1645.88 213.351ZM1807.85 212.394C1807.27 211.366 1807.63 210.089 1808.69 209.522C1809.74 208.955 1811.05 209.31 1811.67 210.338C1812.25 211.366 1811.85 212.642 1810.83 213.209C1810.47 213.386 1810.14 213.457 1809.78 213.457C1808.98 213.493 1808.25 213.067 1807.85 212.394ZM1651.92 203.602C1650.94 202.893 1650.72 201.581 1651.45 200.624C1652.14 199.667 1653.52 199.454 1654.47 200.163C1655.45 200.837 1655.67 202.184 1654.94 203.141C1654.54 203.708 1653.85 204.027 1653.16 204.027C1652.76 203.992 1652.28 203.85 1651.92 203.602ZM1801.73 203.035C1801.01 202.113 1801.22 200.766 1802.21 200.092C1803.15 199.383 1804.54 199.596 1805.23 200.553C1805.23 200.553 1805.23 200.553 1805.27 200.553C1805.96 201.51 1805.74 202.858 1804.79 203.531C1804.39 203.815 1803.95 203.921 1803.52 203.921C1802.83 203.886 1802.13 203.602 1801.73 203.035ZM1659.13 194.668C1658.25 193.853 1658.22 192.541 1659.05 191.655C1659.89 190.804 1661.24 190.769 1662.11 191.584C1662.99 192.4 1663.02 193.747 1662.18 194.562C1661.78 195.023 1661.17 195.236 1660.58 195.236C1660.11 195.271 1659.56 195.058 1659.13 194.668ZM1794.45 194.527C1793.65 193.64 1793.65 192.329 1794.56 191.513C1795.44 190.698 1796.82 190.733 1797.62 191.584C1798.46 192.47 1798.42 193.782 1797.55 194.598C1797.11 194.987 1796.6 195.165 1796.06 195.165C1795.47 195.165 1794.89 194.952 1794.45 194.527ZM1667.46 186.692C1666.7 185.806 1666.84 184.459 1667.75 183.714C1668.7 182.934 1670.05 183.076 1670.81 183.998C1671.58 184.884 1671.47 186.231 1670.52 187.011C1670.12 187.33 1669.61 187.507 1669.14 187.507C1668.52 187.472 1667.9 187.224 1667.46 186.692ZM1786.12 186.905C1785.21 186.16 1785.06 184.813 1785.83 183.927C1786.59 183.041 1787.98 182.899 1788.92 183.643C1789.83 184.388 1789.98 185.735 1789.21 186.657C1788.78 187.153 1788.16 187.437 1787.54 187.437C1787.07 187.401 1786.56 187.259 1786.12 186.905ZM1676.71 179.815C1676.05 178.822 1676.34 177.51 1677.4 176.872C1678.42 176.27 1679.76 176.553 1680.42 177.546C1681.04 178.538 1680.78 179.85 1679.73 180.488C1679.36 180.736 1678.96 180.843 1678.56 180.843C1677.84 180.807 1677.14 180.453 1676.71 179.815ZM1776.95 180.382C1775.93 179.779 1775.6 178.432 1776.26 177.439C1776.87 176.447 1778.26 176.163 1779.28 176.766C1780.3 177.404 1780.59 178.716 1779.97 179.708C1779.57 180.346 1778.84 180.701 1778.11 180.701C1777.68 180.736 1777.27 180.63 1776.95 180.382ZM1686.79 174.072C1686.28 173.044 1686.75 171.767 1687.85 171.236C1688.94 170.739 1690.21 171.2 1690.76 172.264C1691.27 173.327 1690.79 174.603 1689.7 175.1C1689.41 175.242 1689.08 175.312 1688.79 175.312C1687.95 175.312 1687.15 174.852 1686.79 174.072ZM1766.94 175.064C1765.85 174.568 1765.37 173.292 1765.88 172.228C1766.39 171.165 1767.7 170.704 1768.79 171.2C1769.89 171.696 1770.36 172.973 1769.85 174.036C1769.49 174.816 1768.69 175.242 1767.85 175.242C1767.56 175.242 1767.23 175.171 1766.94 175.064ZM1697.53 169.676C1697.16 168.541 1697.78 167.371 1698.91 166.982C1698.91 166.982 1698.91 166.982 1698.95 166.982C1700.07 166.627 1701.31 167.23 1701.71 168.364C1702.08 169.463 1701.46 170.668 1700.29 171.058C1700.07 171.129 1699.86 171.165 1699.6 171.165C1698.69 171.129 1697.82 170.562 1697.53 169.676ZM1756.35 170.987C1755.22 170.633 1754.56 169.428 1754.96 168.293C1755.33 167.159 1756.56 166.556 1757.73 166.911C1757.73 166.911 1757.73 166.911 1757.73 166.946C1758.86 167.301 1759.51 168.506 1759.11 169.605C1758.82 170.527 1757.95 171.094 1757.04 171.094C1756.78 171.094 1756.56 171.058 1756.35 170.987ZM1708.74 166.556C1708.52 165.422 1709.28 164.287 1710.48 164.075C1711.65 163.862 1712.81 164.642 1713.03 165.776C1713.25 166.911 1712.45 168.045 1711.29 168.258C1711.14 168.293 1711.03 168.293 1710.89 168.293C1709.87 168.293 1708.96 167.584 1708.74 166.556ZM1745.32 168.222C1744.12 167.974 1743.35 166.875 1743.57 165.741C1743.79 164.571 1744.95 163.826 1746.12 164.039C1747.28 164.252 1748.08 165.386 1747.87 166.521C1747.68 167.549 1746.74 168.258 1745.72 168.258C1745.57 168.258 1745.43 168.258 1745.32 168.222ZM1720.28 164.89C1720.2 163.72 1721.11 162.692 1722.31 162.621C1723.52 162.55 1724.53 163.437 1724.61 164.606C1724.68 165.776 1723.77 166.769 1722.57 166.875C1722.53 166.875 1722.5 166.875 1722.42 166.875C1721.33 166.875 1720.35 166.024 1720.28 164.89ZM1734 166.875C1732.76 166.804 1731.85 165.776 1731.96 164.606C1732.03 163.437 1733.09 162.55 1734.29 162.621C1735.49 162.692 1736.4 163.685 1736.33 164.89C1736.25 166.024 1735.31 166.875 1734.18 166.875C1734.11 166.875 1734.07 166.875 1734 166.875Z" fill="white" fill-opacity="0.2"/>
<path d="M1821.28 257.206C1820.99 257.206 1820.7 257.135 1820.44 257.029C1820.15 256.922 1819.93 256.781 1819.72 256.568C1819.32 256.178 1819.1 255.646 1819.1 255.079C1819.1 254.512 1819.35 253.98 1819.72 253.555C1819.93 253.377 1820.19 253.2 1820.44 253.094C1821.25 252.775 1822.23 252.952 1822.81 253.555C1823.21 253.945 1823.43 254.476 1823.43 255.079C1823.43 255.646 1823.17 256.178 1822.81 256.568C1822.63 256.781 1822.37 256.922 1822.08 257.029C1821.86 257.135 1821.57 257.206 1821.28 257.206Z" fill="white" fill-opacity="0.2"/>
<path d="M1662.95 257.202C1662.8 257.202 1662.66 257.166 1662.51 257.166C1662.37 257.131 1662.26 257.096 1662.11 257.025C1661.97 256.989 1661.86 256.883 1661.71 256.847C1661.6 256.776 1661.49 256.67 1661.38 256.564C1661.28 256.493 1661.2 256.386 1661.13 256.245C1661.06 256.138 1660.98 255.997 1660.91 255.89C1660.87 255.748 1660.84 255.642 1660.8 255.5C1660.77 255.358 1660.77 255.217 1660.77 255.11C1660.77 254.543 1660.98 254.011 1661.38 253.586C1662 252.983 1662.95 252.806 1663.75 253.125C1664.01 253.231 1664.26 253.409 1664.44 253.586C1664.66 253.763 1664.81 254.011 1664.91 254.259C1665.02 254.543 1665.1 254.827 1665.1 255.075C1665.1 255.642 1664.84 256.174 1664.44 256.564C1664.08 256.954 1663.53 257.202 1662.95 257.202Z" fill="white" fill-opacity="0.2"/>
<path d="M1663.57 246.074C1662.37 245.861 1661.57 244.762 1661.79 243.592C1662 242.458 1663.13 241.642 1664.3 241.855C1665.5 242.032 1666.3 243.167 1666.08 244.337C1665.9 245.365 1664.99 246.074 1663.93 246.074C1663.82 246.109 1663.72 246.109 1663.57 246.074ZM1790.63 244.266C1790.45 243.131 1791.22 241.997 1792.42 241.784C1793.62 241.607 1794.75 242.351 1794.93 243.521C1795.15 244.691 1794.35 245.79 1793.15 246.003C1793 246.038 1792.89 246.038 1792.78 246.038C1791.76 246.038 1790.85 245.294 1790.63 244.266ZM1666.15 235.261C1665.03 234.871 1664.44 233.63 1664.84 232.532C1665.24 231.433 1666.52 230.865 1667.65 231.255C1668.77 231.645 1669.36 232.886 1668.96 233.985C1668.63 234.836 1667.79 235.403 1666.92 235.403C1666.63 235.403 1666.37 235.368 1666.15 235.261ZM1787.8 233.914C1787.4 232.815 1787.98 231.61 1789.11 231.184C1790.23 230.794 1791.47 231.362 1791.91 232.461C1792.31 233.56 1791.73 234.765 1790.6 235.19C1790.34 235.261 1790.09 235.332 1789.87 235.332C1788.96 235.297 1788.12 234.765 1787.8 233.914ZM1670.59 225.051C1669.54 224.484 1669.21 223.173 1669.79 222.18C1670.38 221.152 1671.72 220.833 1672.74 221.4C1673.8 222.003 1674.12 223.279 1673.54 224.307C1673.14 224.981 1672.38 225.37 1671.65 225.37C1671.32 225.335 1670.96 225.229 1670.59 225.051ZM1783.14 224.201C1782.52 223.173 1782.88 221.896 1783.94 221.329C1784.99 220.726 1786.3 221.081 1786.92 222.109C1787.5 223.102 1787.18 224.413 1786.12 224.981C1785.79 225.193 1785.39 225.264 1785.03 225.264C1784.27 225.264 1783.5 224.874 1783.14 224.201ZM1676.85 215.728C1675.94 214.983 1675.8 213.636 1676.6 212.75C1677.36 211.828 1678.75 211.722 1679.66 212.466C1680.6 213.246 1680.71 214.558 1679.95 215.444C1679.51 215.941 1678.89 216.224 1678.27 216.224C1677.73 216.26 1677.26 216.082 1676.85 215.728ZM1776.77 215.409C1775.97 214.523 1776.11 213.14 1777.02 212.431C1777.93 211.651 1779.31 211.793 1780.08 212.679C1780.84 213.565 1780.73 214.913 1779.82 215.693C1779.42 216.047 1778.91 216.189 1778.44 216.189C1777.82 216.153 1777.2 215.905 1776.77 215.409ZM1684.64 207.61C1683.88 206.724 1683.99 205.376 1684.94 204.632C1684.94 204.632 1684.94 204.632 1684.9 204.632C1685.84 203.852 1687.23 203.994 1687.96 204.88C1688.76 205.766 1688.61 207.113 1687.7 207.893C1687.3 208.212 1686.79 208.39 1686.32 208.39C1685.7 208.39 1685.08 208.142 1684.64 207.61ZM1768.98 207.822C1768.07 207.078 1767.92 205.731 1768.72 204.845C1769.49 203.958 1770.87 203.817 1771.78 204.596C1772.69 205.341 1772.84 206.688 1772.04 207.574C1771.6 208.071 1770.98 208.319 1770.36 208.319C1769.89 208.319 1769.38 208.177 1768.98 207.822ZM1693.74 200.945C1693.12 199.917 1693.49 198.641 1694.54 198.038C1695.6 197.471 1696.91 197.79 1697.53 198.818C1698.15 199.811 1697.78 201.122 1696.73 201.725C1696.36 201.902 1696 202.009 1695.64 202.009C1694.87 202.009 1694.14 201.619 1693.74 200.945ZM1759.95 201.689C1758.9 201.122 1758.57 199.811 1759.15 198.818C1759.73 197.79 1761.08 197.435 1762.1 198.038C1763.15 198.641 1763.48 199.917 1762.9 200.945C1762.5 201.654 1761.77 202.044 1761.01 202.044C1760.68 201.973 1760.28 201.867 1759.95 201.689ZM1703.9 195.911C1703.5 194.812 1704.08 193.571 1705.21 193.181C1706.34 192.756 1707.57 193.323 1708.01 194.422C1708.41 195.521 1707.83 196.726 1706.7 197.152C1706.45 197.223 1706.19 197.294 1705.97 197.294C1705.06 197.294 1704.23 196.762 1703.9 195.911ZM1749.94 197.152C1748.81 196.762 1748.23 195.521 1748.63 194.422C1749.03 193.323 1750.31 192.756 1751.43 193.146C1752.56 193.536 1753.14 194.777 1752.74 195.876C1752.42 196.762 1751.58 197.294 1750.71 197.294C1750.45 197.294 1750.2 197.223 1749.94 197.152ZM1714.82 192.685C1714.64 191.515 1715.4 190.416 1716.6 190.239C1717.77 190.026 1718.93 190.806 1719.11 191.976C1719.33 193.11 1718.53 194.209 1717.33 194.422C1717.18 194.458 1717.07 194.458 1716.97 194.458C1715.95 194.422 1715 193.713 1714.82 192.685ZM1739.31 194.387C1738.15 194.174 1737.31 193.075 1737.53 191.905C1737.71 190.771 1738.88 189.955 1740.04 190.168C1741.24 190.345 1742.04 191.48 1741.83 192.65C1741.64 193.678 1740.7 194.387 1739.68 194.387C1739.57 194.422 1739.46 194.422 1739.31 194.387ZM1728.32 193.465C1727.12 193.465 1726.14 192.508 1726.14 191.338C1726.14 190.168 1727.12 189.211 1728.32 189.211C1729.56 189.211 1730.51 190.133 1730.54 191.338C1730.51 192.508 1729.52 193.465 1728.32 193.465C1728.36 193.465 1727.12 193.465 1728.32 193.465Z" fill="white" fill-opacity="0.2"/>
<path d="M1793.8 257.202C1793.51 257.202 1793.22 257.131 1792.96 257.025C1792.71 256.918 1792.45 256.776 1792.27 256.564C1792.09 256.386 1791.91 256.138 1791.8 255.89C1791.69 255.642 1791.65 255.358 1791.65 255.075C1791.65 254.933 1791.65 254.791 1791.69 254.649C1791.73 254.508 1791.76 254.366 1791.8 254.259C1791.87 254.118 1791.94 254.011 1792.02 253.905C1792.09 253.799 1792.16 253.692 1792.27 253.586C1792.45 253.409 1792.71 253.231 1792.96 253.125C1793.76 252.806 1794.75 252.983 1795.36 253.586C1795.44 253.692 1795.55 253.799 1795.62 253.905C1795.69 254.047 1795.77 254.153 1795.8 254.259C1795.84 254.401 1795.87 254.543 1795.95 254.649C1795.98 254.791 1795.98 254.933 1795.98 255.075C1795.98 255.358 1795.91 255.642 1795.8 255.89C1795.69 256.138 1795.55 256.386 1795.33 256.564C1794.93 256.954 1794.38 257.202 1793.8 257.202Z" fill="white" fill-opacity="0.2"/>
<path d="M1689.78 257.206C1689.2 257.206 1688.65 256.958 1688.21 256.568C1687.81 256.178 1687.59 255.646 1687.59 255.079C1687.59 254.512 1687.85 253.98 1688.21 253.555C1688.83 252.952 1689.81 252.775 1690.58 253.094C1690.87 253.2 1691.09 253.377 1691.31 253.555C1691.71 253.945 1691.93 254.476 1691.93 255.079C1691.93 255.221 1691.89 255.363 1691.89 255.469C1691.85 255.611 1691.82 255.753 1691.74 255.859C1691.71 256.001 1691.63 256.107 1691.56 256.213C1691.49 256.355 1691.38 256.462 1691.31 256.532C1690.91 256.958 1690.32 257.206 1689.78 257.206Z" fill="white" fill-opacity="0.2"/>
<path d="M1690.69 246.499C1689.52 246.179 1688.87 244.974 1689.23 243.875C1689.56 242.741 1690.79 242.103 1691.92 242.422C1693.05 242.776 1693.74 243.946 1693.38 245.045C1693.12 245.967 1692.25 246.569 1691.27 246.569C1691.12 246.569 1690.9 246.569 1690.69 246.499ZM1763.34 245.045C1762.97 243.911 1763.63 242.741 1764.79 242.422C1765.96 242.067 1767.16 242.705 1767.49 243.84C1767.85 244.974 1767.19 246.144 1766.03 246.463C1765.81 246.534 1765.63 246.569 1765.41 246.569C1764.46 246.569 1763.63 245.931 1763.34 245.045ZM1694.73 236.501C1693.71 235.863 1693.42 234.552 1694.07 233.559C1694.73 232.566 1696.07 232.283 1697.09 232.921C1698.11 233.559 1698.4 234.871 1697.75 235.863C1697.35 236.501 1696.62 236.856 1695.93 236.856C1695.49 236.856 1695.09 236.75 1694.73 236.501ZM1759.04 235.863C1758.39 234.871 1758.68 233.559 1759.66 232.921C1760.68 232.283 1762.03 232.566 1762.68 233.524C1762.68 233.524 1762.68 233.524 1762.64 233.524C1763.34 234.516 1763.01 235.828 1762.03 236.466C1761.66 236.714 1761.22 236.82 1760.86 236.82C1760.13 236.82 1759.44 236.501 1759.04 235.863ZM1701.46 228.029C1700.66 227.142 1700.77 225.795 1701.68 225.051C1702.59 224.271 1703.93 224.377 1704.74 225.264C1705.54 226.15 1705.43 227.497 1704.52 228.241C1704.12 228.596 1703.57 228.738 1703.06 228.738C1702.48 228.773 1701.86 228.525 1701.46 228.029ZM1752.23 228.241C1751.32 227.461 1751.22 226.15 1752.02 225.264C1752.82 224.377 1754.16 224.271 1755.07 225.051C1755.98 225.831 1756.09 227.142 1755.29 228.029C1754.86 228.525 1754.24 228.738 1753.62 228.738C1753.14 228.738 1752.63 228.56 1752.23 228.241ZM1710.34 221.718C1709.83 220.655 1710.3 219.414 1711.4 218.918C1712.49 218.422 1713.8 218.882 1714.31 219.946C1714.82 221.009 1714.34 222.286 1713.22 222.782C1712.92 222.924 1712.63 222.959 1712.31 222.959C1711.51 222.995 1710.7 222.498 1710.34 221.718ZM1743.5 222.782C1742.41 222.286 1741.9 221.045 1742.41 219.981C1742.92 218.882 1744.23 218.422 1745.32 218.918C1746.41 219.414 1746.88 220.655 1746.37 221.754C1746.01 222.534 1745.21 222.995 1744.37 222.995C1744.08 222.959 1743.79 222.888 1743.5 222.782ZM1720.71 218.138C1720.53 216.968 1721.37 215.905 1722.57 215.727C1723.73 215.55 1724.86 216.365 1725.05 217.535C1725.23 218.67 1724.39 219.769 1723.19 219.946C1723.08 219.946 1723.01 219.981 1722.9 219.981C1721.81 219.946 1720.86 219.202 1720.71 218.138ZM1733.56 219.946C1732.36 219.769 1731.52 218.705 1731.71 217.535C1731.85 216.401 1732.98 215.586 1734.18 215.763C1734.18 215.763 1734.18 215.763 1734.18 215.727C1735.38 215.905 1736.22 216.968 1736.04 218.138C1735.89 219.202 1734.95 219.981 1733.89 219.981C1733.74 219.946 1733.64 219.946 1733.56 219.946Z" fill="white" fill-opacity="0.2"/>
<path d="M1767.01 257.201C1766.43 257.201 1765.88 256.953 1765.45 256.598C1765.34 256.492 1765.26 256.386 1765.16 256.244C1765.08 256.137 1765.01 255.996 1764.97 255.889C1764.94 255.747 1764.9 255.641 1764.86 255.499C1764.83 255.357 1764.83 255.216 1764.83 255.109C1764.83 254.542 1765.05 254.01 1765.45 253.585C1766.25 252.805 1767.7 252.805 1768.5 253.585C1768.9 253.975 1769.16 254.542 1769.16 255.109C1769.16 255.251 1769.12 255.393 1769.12 255.499C1769.09 255.641 1769.05 255.783 1768.98 255.889C1768.9 256.031 1768.83 256.137 1768.8 256.244C1768.72 256.386 1768.61 256.492 1768.5 256.598C1768.43 256.669 1768.32 256.775 1768.18 256.846C1768.07 256.917 1767.92 256.988 1767.81 257.024C1767.67 257.095 1767.52 257.13 1767.41 257.165C1767.3 257.165 1767.12 257.201 1767.01 257.201Z" fill="white" fill-opacity="0.2"/>
<path d="M1854.4 358.128C1853.2 358.057 1852.29 357.029 1852.37 355.859C1852.44 354.69 1853.46 353.803 1854.66 353.874C1855.86 353.945 1856.81 354.973 1856.7 356.143C1856.63 357.278 1855.68 358.128 1854.51 358.128C1854.48 358.128 1854.44 358.128 1854.4 358.128ZM1864.01 356.143C1863.94 354.973 1864.85 353.945 1866.05 353.874C1867.25 353.803 1868.27 354.69 1868.35 355.859C1868.42 357.029 1867.51 358.057 1866.31 358.128C1866.27 358.128 1866.23 358.164 1866.16 358.164C1865.03 358.128 1864.09 357.278 1864.01 356.143ZM1842.54 356.675C1841.37 356.462 1840.57 355.363 1840.79 354.229C1841.05 353.059 1842.18 352.314 1843.34 352.527C1844.54 352.74 1845.31 353.839 1845.09 355.009C1844.91 356.037 1843.96 356.746 1842.94 356.746C1842.83 356.746 1842.72 356.71 1842.54 356.675ZM1875.62 354.973C1875.41 353.803 1876.21 352.704 1877.37 352.492C1878.54 352.244 1879.7 353.023 1879.92 354.158C1880.14 355.292 1879.37 356.427 1878.17 356.639C1878.17 356.639 1878.17 356.639 1878.21 356.639C1878.06 356.675 1877.92 356.675 1877.81 356.675C1876.72 356.71 1875.84 356.001 1875.62 354.973ZM1831 353.839C1829.84 353.484 1829.22 352.279 1829.58 351.145C1829.95 350.046 1831.18 349.407 1832.31 349.797C1833.48 350.152 1834.09 351.357 1833.69 352.492C1833.4 353.378 1832.53 353.945 1831.62 353.945C1831.44 353.945 1831.22 353.874 1831 353.839ZM1886.98 352.421C1886.62 351.286 1887.24 350.117 1888.4 349.727C1889.53 349.372 1890.77 349.975 1891.13 351.074C1891.49 352.173 1890.88 353.378 1889.71 353.768C1889.49 353.839 1889.27 353.874 1889.06 353.874C1888.15 353.874 1887.27 353.307 1886.98 352.421ZM1819.86 349.549C1818.77 349.053 1818.3 347.777 1818.81 346.713C1819.32 345.65 1820.63 345.189 1821.72 345.685C1822.81 346.181 1823.28 347.458 1822.78 348.521C1822.41 349.301 1821.61 349.727 1820.81 349.727C1820.48 349.727 1820.19 349.691 1819.86 349.549ZM1897.94 348.486C1897.43 347.422 1897.9 346.182 1898.99 345.65C1900.08 345.153 1901.39 345.614 1901.9 346.678C1902.41 347.741 1901.94 349.018 1900.85 349.514C1900.56 349.656 1900.23 349.727 1899.94 349.727C1899.1 349.691 1898.3 349.23 1897.94 348.486ZM1809.42 343.948C1808.4 343.31 1808.11 342.034 1808.73 341.006C1809.38 340.013 1810.73 339.73 1811.75 340.332C1812.77 340.97 1813.09 342.282 1812.44 343.275C1812.04 343.913 1811.31 344.267 1810.62 344.267C1810.18 344.303 1809.78 344.196 1809.42 343.948ZM1908.27 343.239C1907.66 342.246 1907.91 340.935 1908.97 340.297C1909.98 339.659 1911.33 339.942 1911.99 340.97C1912.64 341.963 1912.35 343.274 1911.29 343.913C1910.93 344.125 1910.53 344.267 1910.13 344.267C1909.4 344.232 1908.67 343.877 1908.27 343.239ZM1799.74 337.106C1798.83 336.362 1798.68 335.015 1799.44 334.128C1800.21 333.207 1801.59 333.1 1802.5 333.845C1803.41 334.589 1803.56 335.936 1802.79 336.858C1802.36 337.354 1801.74 337.638 1801.12 337.638C1800.65 337.602 1800.17 337.461 1799.74 337.106ZM1917.85 336.752C1917.05 335.83 1917.19 334.483 1918.14 333.738C1919.08 332.994 1920.43 333.1 1921.2 334.022C1921.96 334.908 1921.81 336.291 1920.9 337C1920.5 337.319 1919.99 337.496 1919.52 337.496C1918.9 337.532 1918.28 337.283 1917.85 336.752ZM1791.04 329.165C1790.2 328.314 1790.24 326.967 1791.11 326.187C1792.02 325.372 1793.37 325.407 1794.2 326.258C1795.04 327.109 1795 328.456 1794.13 329.236C1793.69 329.626 1793.18 329.803 1792.64 329.803C1792.06 329.803 1791.47 329.591 1791.04 329.165ZM1926.55 329.165C1925.67 328.35 1925.64 327.003 1926.47 326.152C1927.27 325.301 1928.69 325.266 1929.53 326.081C1930.4 326.861 1930.44 328.208 1929.6 329.059C1929.2 329.52 1928.58 329.732 1928.04 329.732C1927.49 329.768 1926.95 329.555 1926.55 329.165ZM1783.43 320.232C1782.7 319.31 1782.92 317.963 1783.9 317.254C1784.85 316.58 1786.23 316.793 1786.92 317.715C1787.65 318.672 1787.43 319.984 1786.45 320.693C1786.09 320.976 1785.61 321.082 1785.18 321.082C1784.52 321.082 1783.83 320.799 1783.43 320.232ZM1934.19 320.586C1933.21 319.877 1932.99 318.53 1933.72 317.608C1934.41 316.651 1935.79 316.438 1936.74 317.147C1937.72 317.821 1937.94 319.168 1937.21 320.09C1936.81 320.657 1936.12 320.976 1935.43 320.976C1935.03 321.012 1934.55 320.87 1934.19 320.586ZM1777.02 310.412C1776.44 309.384 1776.8 308.108 1777.86 307.54C1778.92 306.973 1780.23 307.363 1780.81 308.356C1781.39 309.384 1780.99 310.66 1779.93 311.263C1779.61 311.44 1779.24 311.511 1778.88 311.511C1778.15 311.511 1777.42 311.121 1777.02 310.412ZM1940.67 311.156C1939.61 310.589 1939.21 309.277 1939.83 308.285C1940.41 307.257 1941.72 306.867 1942.78 307.469C1943.83 308.037 1944.24 309.313 1943.62 310.376C1943.22 311.085 1942.49 311.475 1941.69 311.475C1941.36 311.404 1941.03 311.334 1940.67 311.156ZM1771.93 299.918C1771.45 298.819 1772 297.614 1773.16 297.153C1774.29 296.728 1775.53 297.26 1776 298.359C1776.44 299.458 1775.89 300.698 1774.77 301.124C1774.47 301.23 1774.22 301.266 1773.97 301.266C1773.06 301.266 1772.25 300.769 1771.93 299.918ZM1945.91 300.982C1944.78 300.557 1944.24 299.316 1944.67 298.252V298.217C1945.11 297.118 1946.38 296.586 1947.51 297.012C1948.64 297.472 1949.19 298.678 1948.75 299.777C1948.38 300.592 1947.58 301.124 1946.71 301.124C1946.42 301.124 1946.16 301.088 1945.91 300.982ZM1768.21 288.858C1767.92 287.723 1768.61 286.554 1769.78 286.27C1770.94 285.986 1772.15 286.66 1772.44 287.794C1772.73 288.929 1772.04 290.099 1770.87 290.382C1770.69 290.418 1770.51 290.453 1770.33 290.453C1769.34 290.453 1768.43 289.815 1768.21 288.858ZM1949.77 290.241C1948.6 289.957 1947.87 288.787 1948.2 287.688C1948.49 286.554 1949.69 285.845 1950.86 286.128C1952.02 286.412 1952.72 287.582 1952.42 288.716C1952.17 289.673 1951.26 290.311 1950.31 290.311C1950.13 290.311 1949.95 290.276 1949.77 290.241ZM1765.96 277.443C1765.81 276.308 1766.65 275.245 1767.85 275.068C1769.02 274.926 1770.11 275.741 1770.29 276.911C1770.43 278.081 1769.6 279.144 1768.4 279.286C1768.29 279.322 1768.21 279.322 1768.11 279.322C1767.05 279.322 1766.1 278.506 1765.96 277.443ZM1952.21 279.144C1951.01 279.003 1950.17 277.939 1950.31 276.805C1950.46 275.635 1951.55 274.82 1952.75 274.961C1953.95 275.103 1954.79 276.167 1954.65 277.336C1954.5 278.435 1953.55 279.215 1952.5 279.215C1952.42 279.144 1952.32 279.144 1952.21 279.144Z" fill="white" fill-opacity="0.2"/>
<path d="M1767.38 267.803C1766.79 267.803 1766.25 267.555 1765.81 267.165C1765.63 266.988 1765.45 266.74 1765.34 266.492C1765.23 266.244 1765.16 265.96 1765.16 265.676C1765.16 265.393 1765.23 265.109 1765.34 264.861C1765.45 264.613 1765.59 264.365 1765.81 264.187C1766.43 263.585 1767.41 263.408 1768.18 263.727C1768.47 263.868 1768.69 264.01 1768.91 264.187C1769.09 264.365 1769.27 264.613 1769.38 264.861C1769.52 265.145 1769.56 265.428 1769.56 265.676C1769.56 265.96 1769.52 266.244 1769.38 266.492C1769.27 266.74 1769.12 266.988 1768.91 267.165C1768.72 267.378 1768.47 267.52 1768.18 267.626C1767.96 267.768 1767.67 267.803 1767.38 267.803Z" fill="white" fill-opacity="0.2"/>
<path d="M1858.15 329.666C1858.15 328.496 1859.1 327.539 1860.34 327.539C1861.54 327.539 1862.52 328.496 1862.52 329.666C1862.52 330.836 1861.54 331.793 1860.34 331.793C1859.14 331.793 1858.15 330.871 1858.15 329.666ZM1848.58 330.836C1847.38 330.659 1846.61 329.524 1846.8 328.354C1847.01 327.22 1848.14 326.405 1849.34 326.617C1850.51 326.795 1851.31 327.929 1851.13 329.099C1850.95 330.127 1850 330.871 1848.98 330.871C1848.8 330.871 1848.69 330.836 1848.58 330.836ZM1869.58 329.063C1869.36 327.929 1870.16 326.83 1871.37 326.617C1872.57 326.44 1873.69 327.185 1873.91 328.354C1874.13 329.524 1873.33 330.623 1872.13 330.801C1871.98 330.836 1871.87 330.836 1871.73 330.836C1870.71 330.836 1869.76 330.127 1869.58 329.063ZM1837.15 327.858C1836.02 327.468 1835.44 326.227 1835.84 325.128C1836.24 324.029 1837.51 323.462 1838.64 323.852C1839.77 324.242 1840.35 325.483 1839.95 326.582C1839.63 327.468 1838.79 328 1837.92 328C1837.62 327.964 1837.37 327.929 1837.15 327.858ZM1880.76 326.546C1880.36 325.447 1880.9 324.242 1882.03 323.817C1883.16 323.427 1884.43 323.994 1884.83 325.093C1885.23 326.192 1884.69 327.397 1883.56 327.823C1883.3 327.894 1883.05 327.964 1882.79 327.964C1881.92 327.964 1881.08 327.433 1880.76 326.546ZM1826.41 323.001C1825.36 322.434 1825.03 321.122 1825.61 320.094C1826.23 319.066 1827.54 318.712 1828.6 319.315C1829.65 319.917 1829.98 321.193 1829.4 322.221C1829 322.895 1828.27 323.285 1827.51 323.285C1827.14 323.285 1826.78 323.179 1826.41 323.001ZM1891.27 322.186C1890.69 321.158 1891.02 319.882 1892.08 319.279C1893.13 318.676 1894.44 319.031 1895.06 320.059C1895.64 321.087 1895.31 322.363 1894.26 322.966C1893.9 323.143 1893.53 323.25 1893.17 323.25C1892.44 323.214 1891.68 322.86 1891.27 322.186ZM1816.7 316.408C1815.79 315.628 1815.68 314.316 1816.44 313.43C1817.24 312.508 1818.59 312.402 1819.5 313.146C1820.41 313.926 1820.55 315.238 1819.75 316.124C1819.35 316.62 1818.7 316.904 1818.08 316.904C1817.64 316.904 1817.13 316.727 1816.7 316.408ZM1900.88 316.053C1900.08 315.167 1900.23 313.82 1901.14 313.075C1902.05 312.331 1903.43 312.437 1904.2 313.359C1905 314.245 1904.85 315.592 1903.94 316.337C1903.54 316.691 1903.03 316.833 1902.56 316.833C1901.9 316.833 1901.32 316.585 1900.88 316.053ZM1808.36 308.254C1807.56 307.368 1807.67 306.021 1808.61 305.276C1809.52 304.496 1810.91 304.603 1811.71 305.524C1812.47 306.411 1812.36 307.758 1811.42 308.538C1811.02 308.857 1810.51 309.034 1810.03 309.034C1809.42 308.998 1808.8 308.75 1808.36 308.254ZM1909.22 308.431C1908.31 307.687 1908.2 306.34 1908.96 305.418C1909.73 304.532 1911.11 304.425 1912.02 305.17C1912.93 305.95 1913.08 307.261 1912.28 308.148C1911.84 308.644 1911.22 308.928 1910.6 308.928C1910.13 308.928 1909.66 308.786 1909.22 308.431ZM1801.55 298.824C1800.93 297.796 1801.3 296.52 1802.35 295.917C1803.41 295.35 1804.72 295.669 1805.34 296.697C1805.92 297.69 1805.59 299.001 1804.54 299.569C1804.21 299.746 1803.81 299.852 1803.45 299.852C1802.68 299.888 1801.95 299.498 1801.55 298.824ZM1916.13 299.498C1915.08 298.93 1914.75 297.619 1915.33 296.626C1915.95 295.598 1917.26 295.279 1918.32 295.846C1919.37 296.449 1919.7 297.725 1919.12 298.753C1918.72 299.427 1917.95 299.817 1917.23 299.817C1916.83 299.817 1916.46 299.71 1916.13 299.498ZM1796.53 288.402C1796.13 287.303 1796.68 286.097 1797.8 285.672C1798.93 285.282 1800.17 285.849 1800.61 286.913C1801.01 288.012 1800.46 289.252 1799.33 289.642C1799.08 289.713 1798.82 289.784 1798.57 289.784C1797.7 289.82 1796.86 289.288 1796.53 288.402ZM1921.3 289.572C1920.17 289.182 1919.59 287.941 1919.99 286.842C1920.39 285.743 1921.67 285.176 1922.8 285.566C1923.92 285.956 1924.51 287.196 1924.11 288.295C1923.78 289.182 1922.94 289.713 1922.07 289.713C1921.81 289.713 1921.56 289.642 1921.3 289.572ZM1793.47 277.27C1793.26 276.136 1794.06 275.001 1795.26 274.824C1796.42 274.611 1797.59 275.391 1797.77 276.561H1797.73C1797.95 277.696 1797.15 278.83 1795.95 279.007C1795.84 279.043 1795.69 279.043 1795.58 279.043C1794.57 279.043 1793.62 278.298 1793.47 277.27ZM1924.62 278.901C1923.45 278.688 1922.65 277.589 1922.83 276.419C1923.05 275.285 1924.18 274.47 1925.38 274.682C1926.54 274.86 1927.35 275.994 1927.16 277.128C1926.98 278.156 1926.07 278.901 1925.02 278.901C1924.87 278.936 1924.76 278.936 1924.62 278.901Z" fill="white" fill-opacity="0.2"/>
<path d="M1794.6 267.801C1794.46 267.801 1794.31 267.766 1794.17 267.766C1794.02 267.73 1793.91 267.695 1793.76 267.624C1793.62 267.588 1793.51 267.482 1793.36 267.447C1793.26 267.376 1793.15 267.269 1793.04 267.198C1792.64 266.808 1792.42 266.241 1792.42 265.674C1792.42 265.107 1792.67 264.575 1793.04 264.15C1793.15 264.043 1793.26 263.972 1793.36 263.901C1793.51 263.831 1793.62 263.76 1793.76 263.689C1793.91 263.653 1794.02 263.618 1794.17 263.582C1794.6 263.511 1795.04 263.547 1795.44 263.689C1795.69 263.795 1795.95 263.972 1796.17 264.15C1796.57 264.54 1796.79 265.071 1796.79 265.674C1796.79 266.241 1796.53 266.773 1796.17 267.198C1795.95 267.376 1795.69 267.553 1795.44 267.659C1795.15 267.766 1794.89 267.801 1794.6 267.801Z" fill="white" fill-opacity="0.2"/>
<path d="M1898.55 255.082C1898.41 255.082 1898.26 255.047 1898.12 255.047C1897.97 255.011 1897.83 254.976 1897.72 254.905C1897.57 254.869 1897.46 254.763 1897.35 254.728C1897.24 254.657 1897.1 254.55 1897.03 254.444C1896.62 254.054 1896.41 253.522 1896.41 252.955C1896.41 252.388 1896.62 251.821 1897.03 251.431C1897.1 251.324 1897.24 251.253 1897.35 251.182C1897.46 251.112 1897.61 251.041 1897.72 250.97C1897.86 250.934 1898.01 250.899 1898.12 250.863C1898.84 250.722 1899.57 250.934 1900.08 251.431C1900.19 251.537 1900.26 251.643 1900.37 251.75C1900.45 251.892 1900.52 251.998 1900.56 252.104C1900.63 252.246 1900.63 252.388 1900.7 252.494C1900.74 252.636 1900.74 252.778 1900.74 252.92C1900.74 253.487 1900.48 254.019 1900.08 254.408C1899.68 254.834 1899.14 255.082 1898.55 255.082Z" fill="white" fill-opacity="0.2"/>
<path d="M1899.14 243.984C1897.97 243.771 1897.17 242.672 1897.35 241.503C1897.57 240.368 1898.7 239.553 1899.9 239.765C1901.07 239.943 1901.9 241.077 1901.69 242.247C1901.5 243.275 1900.59 243.984 1899.54 243.984C1899.43 243.984 1899.28 243.984 1899.14 243.984ZM2026.24 242.141C2026.02 241.006 2026.82 239.872 2028.02 239.659C2029.19 239.482 2030.35 240.226 2030.57 241.396C2030.57 241.396 2030.57 241.396 2030.57 241.432C2030.79 242.566 2029.99 243.7 2028.79 243.878C2028.64 243.913 2028.53 243.913 2028.42 243.913C2027.37 243.913 2026.42 243.169 2026.24 242.141ZM1901.72 233.136C1900.59 232.746 1900.01 231.505 1900.45 230.407C1900.85 229.308 1902.12 228.74 1903.25 229.13C1904.38 229.52 1904.96 230.761 1904.56 231.86C1904.23 232.711 1903.4 233.243 1902.52 233.243C1902.23 233.278 1901.98 233.207 1901.72 233.136ZM2023.4 231.789C2023 230.69 2023.55 229.449 2024.67 229.059C2025.8 228.669 2027.08 229.237 2027.48 230.336C2027.88 231.435 2027.29 232.64 2026.17 233.065C2025.91 233.136 2025.66 233.207 2025.44 233.207C2024.56 233.172 2023.73 232.64 2023.4 231.789ZM1906.24 222.926C1905.18 222.359 1904.85 221.048 1905.43 220.055C1906.05 219.027 1907.36 218.708 1908.42 219.275C1909.47 219.878 1909.8 221.154 1909.22 222.182C1908.82 222.856 1908.09 223.246 1907.36 223.246C1906.93 223.21 1906.53 223.139 1906.24 222.926ZM2018.7 222.076C2018.12 221.048 2018.45 219.771 2019.51 219.204C2020.52 218.601 2021.87 218.956 2022.49 219.984C2022.49 219.984 2022.49 219.984 2022.53 219.984C2023.11 221.012 2022.78 222.288 2021.73 222.891C2021.36 223.068 2021 223.175 2020.63 223.175C2019.87 223.139 2019.11 222.749 2018.7 222.076ZM1912.46 213.603C1911.51 212.859 1911.4 211.511 1912.17 210.625C1912.97 209.703 1914.32 209.597 1915.26 210.341C1916.21 211.121 1916.32 212.433 1915.55 213.319H1915.52C1915.12 213.816 1914.46 214.099 1913.84 214.099C1913.33 214.135 1912.86 213.958 1912.46 213.603ZM2012.37 213.284C2011.57 212.398 2011.72 211.05 2012.63 210.306C2013.54 209.526 2014.92 209.668 2015.68 210.554C2016.45 211.44 2016.34 212.788 2015.43 213.532C2015.03 213.887 2014.52 214.028 2014.01 214.028C2013.43 214.064 2012.81 213.78 2012.37 213.284ZM1920.25 205.485C1919.45 204.599 1919.59 203.251 1920.5 202.507C1921.41 201.727 1922.8 201.833 1923.6 202.755C1924.36 203.641 1924.25 204.988 1923.34 205.768C1922.94 206.087 1922.43 206.265 1921.92 206.265C1921.3 206.265 1920.69 206.017 1920.25 205.485ZM2004.58 205.697C2003.64 204.953 2003.53 203.606 2004.29 202.72C2005.09 201.833 2006.44 201.692 2007.35 202.471C2008.3 203.216 2008.4 204.563 2007.64 205.485C2007.2 205.981 2006.58 206.229 2005.97 206.229C2005.46 206.194 2004.98 206.052 2004.58 205.697ZM1929.35 198.82C1928.73 197.792 1929.09 196.516 1930.15 195.913C1931.2 195.346 1932.51 195.665 1933.13 196.693C1933.72 197.721 1933.39 198.997 1932.33 199.564C1932 199.777 1931.6 199.848 1931.24 199.848C1930.48 199.884 1929.75 199.494 1929.35 198.82ZM1995.56 199.564C1994.5 198.997 1994.17 197.686 1994.75 196.693C1995.37 195.665 1996.68 195.31 1997.74 195.913C1998.76 196.516 1999.12 197.792 1998.54 198.82C1998.14 199.494 1997.41 199.884 1996.68 199.884C1996.28 199.848 1995.88 199.742 1995.56 199.564ZM1939.5 193.786C1939.1 192.687 1939.68 191.446 1940.78 191.056C1940.78 191.056 1940.78 191.056 1940.78 191.021C1941.91 190.631 1943.18 191.198 1943.58 192.297C1943.98 193.396 1943.4 194.601 1942.27 195.027C1942.01 195.133 1941.76 195.169 1941.54 195.169C1940.67 195.169 1939.83 194.637 1939.5 193.786ZM1985.55 195.027C1984.42 194.637 1983.84 193.396 1984.24 192.297C1984.64 191.198 1985.91 190.631 1987.04 191.021C1988.17 191.411 1988.75 192.652 1988.35 193.751C1988.02 194.637 1987.18 195.169 1986.31 195.169C1986.06 195.169 1985.8 195.098 1985.55 195.027ZM1950.42 190.56C1950.24 189.426 1951 188.291 1952.21 188.114C1953.41 187.901 1954.54 188.681 1954.72 189.851C1954.94 190.985 1954.13 192.084 1952.93 192.297C1952.79 192.333 1952.68 192.333 1952.57 192.333C1951.55 192.297 1950.6 191.588 1950.42 190.56ZM1974.92 192.262C1973.72 192.084 1972.92 190.95 1973.13 189.78C1973.32 188.646 1974.48 187.83 1975.65 188.043C1976.85 188.22 1977.65 189.355 1977.43 190.525C1977.25 191.553 1976.34 192.262 1975.28 192.262C1975.17 192.297 1975.06 192.297 1974.92 192.262ZM1961.74 189.213C1961.74 188.043 1962.72 187.086 1963.93 187.086C1965.13 187.086 1966.11 188.008 1966.11 189.213C1966.11 190.383 1965.16 191.34 1963.93 191.34C1962.72 191.34 1961.74 190.383 1961.74 189.213Z" fill="white" fill-opacity="0.2"/>
<path d="M1898.92 267.803C1898.78 267.803 1898.63 267.768 1898.52 267.768C1898.37 267.732 1898.23 267.697 1898.12 267.626C1897.97 267.59 1897.87 267.52 1897.76 267.449C1897.61 267.378 1897.5 267.271 1897.43 267.165C1897.21 266.988 1897.06 266.74 1896.96 266.491C1896.85 266.243 1896.77 265.96 1896.77 265.676C1896.77 265.109 1897.03 264.542 1897.43 264.152C1897.5 264.045 1897.61 263.974 1897.76 263.904C1897.87 263.833 1898.01 263.762 1898.12 263.691C1898.27 263.655 1898.37 263.62 1898.52 263.584C1898.81 263.514 1899.1 263.514 1899.36 263.584C1899.5 263.62 1899.65 263.655 1899.76 263.691C1899.9 263.762 1900.01 263.833 1900.16 263.904C1900.27 263.974 1900.38 264.045 1900.49 264.152C1900.89 264.542 1901.1 265.073 1901.1 265.676C1901.1 266.243 1900.85 266.775 1900.49 267.165C1900.38 267.271 1900.27 267.342 1900.16 267.449C1900.01 267.52 1899.9 267.59 1899.76 267.626C1899.65 267.697 1899.5 267.732 1899.36 267.768C1899.21 267.803 1899.07 267.803 1898.92 267.803Z" fill="white" fill-opacity="0.2"/>
<path d="M1854.52 305.025C1853.31 304.848 1852.48 303.784 1852.66 302.614C1852.84 301.444 1853.93 300.629 1855.13 300.806C1856.34 300.984 1857.17 302.047 1856.99 303.217C1856.84 304.281 1855.9 305.06 1854.84 305.06C1854.73 305.06 1854.62 305.025 1854.52 305.025ZM1863.65 303.217C1863.47 302.047 1864.31 300.948 1865.51 300.806C1866.71 300.629 1867.8 301.444 1867.98 302.579C1868.16 303.749 1867.33 304.848 1866.13 304.99C1866.02 304.99 1865.94 305.025 1865.84 305.025C1864.74 305.06 1863.8 304.281 1863.65 303.217ZM1843.38 301.834C1842.29 301.338 1841.81 300.097 1842.32 299.034C1842.83 297.97 1844.11 297.474 1845.2 297.97C1846.29 298.467 1846.8 299.743 1846.29 300.806C1845.93 301.586 1845.12 302.047 1844.29 302.047C1843.96 302.047 1843.67 302.012 1843.38 301.834ZM1874.39 300.771C1873.88 299.707 1874.35 298.467 1875.44 297.97C1876.54 297.474 1877.81 297.935 1878.32 298.998C1878.83 300.062 1878.36 301.338 1877.26 301.834C1876.97 301.976 1876.65 302.012 1876.35 302.012C1875.52 302.047 1874.72 301.586 1874.39 300.771ZM1833.62 295.737C1832.71 294.957 1832.6 293.61 1833.37 292.759C1834.17 291.873 1835.55 291.766 1836.46 292.511C1837.37 293.291 1837.48 294.638 1836.68 295.524C1836.24 295.985 1835.62 296.233 1835.01 296.233C1834.53 296.269 1834.02 296.091 1833.62 295.737ZM1883.92 295.524C1883.12 294.638 1883.23 293.291 1884.14 292.511H1884.18C1885.09 291.731 1886.44 291.837 1887.24 292.759C1888.04 293.645 1887.93 294.957 1886.98 295.772C1886.98 295.772 1886.98 295.772 1887.02 295.772C1886.62 296.127 1886.07 296.269 1885.6 296.269C1884.98 296.233 1884.36 295.985 1883.92 295.524ZM1826.02 287.193C1825.36 286.201 1825.65 284.889 1826.63 284.251C1827.65 283.613 1829 283.896 1829.66 284.889C1830.31 285.882 1830.02 287.193 1829 287.832C1828.64 288.08 1828.2 288.186 1827.84 288.186C1827.11 288.186 1826.42 287.831 1826.02 287.193ZM1891.6 287.796C1890.59 287.193 1890.29 285.846 1890.95 284.854C1891.6 283.861 1892.95 283.577 1893.97 284.216C1894.99 284.854 1895.28 286.165 1894.63 287.158C1894.23 287.761 1893.5 288.115 1892.81 288.115C1892.37 288.151 1891.97 288.044 1891.6 287.796ZM1821.17 276.913C1820.81 275.778 1821.47 274.608 1822.63 274.289C1823.8 273.935 1825 274.608 1825.36 275.743C1825.69 276.877 1825.03 278.047 1823.87 278.366C1823.65 278.402 1823.47 278.437 1823.25 278.437C1822.3 278.473 1821.43 277.87 1821.17 276.913ZM1896.74 278.331C1895.57 278.012 1894.92 276.806 1895.24 275.707C1895.57 274.573 1896.81 273.935 1897.94 274.254C1899.1 274.608 1899.76 275.778 1899.43 276.877C1899.14 277.799 1898.27 278.402 1897.32 278.402C1897.14 278.402 1896.96 278.402 1896.74 278.331Z" fill="white" fill-opacity="0.2"/>
<path d="M1821.68 267.802C1821.1 267.802 1820.56 267.554 1820.12 267.164C1819.72 266.774 1819.5 266.243 1819.5 265.675C1819.5 265.392 1819.54 265.108 1819.65 264.86C1819.75 264.612 1819.94 264.364 1820.12 264.186C1820.92 263.407 1822.38 263.407 1823.18 264.186C1823.39 264.364 1823.54 264.612 1823.65 264.86C1823.76 265.144 1823.83 265.427 1823.83 265.675C1823.83 266.243 1823.58 266.774 1823.18 267.164C1822.81 267.59 1822.27 267.802 1821.68 267.802Z" fill="white" fill-opacity="0.2"/>
</g>
</g>
<defs>
<clipPath id="clip0_212_356">
<rect width="1920" height="317" fill="white"/>
</clipPath>
</defs>
</svg>
